<svg width="17" height="17" viewBox="0 0 17 17" fill="none" xmlns="http://www.w3.org/2000/svg">
<path d="M13.1673 1.83334H3.83398C2.70065 1.83334 1.83398 2.70001 1.83398 3.83334V13.1667C1.83398 14.3 2.70065 15.1667 3.83398 15.1667H13.1673C14.3007 15.1667 15.1673 14.3 15.1673 13.1667V3.83334C15.1673 2.70001 14.3007 1.83334 13.1673 1.83334ZM11.1673 9.16668H9.16732V11.1667C9.16732 11.5667 8.90065 11.8333 8.50065 11.8333C8.10065 11.8333 7.83398 11.5667 7.83398 11.1667V9.16668H5.83398C5.43398 9.16668 5.16732 8.90001 5.16732 8.50001C5.16732 8.10001 5.43398 7.83334 5.83398 7.83334H7.83398V5.83334C7.83398 5.43334 8.10065 5.16668 8.50065 5.16668C8.90065 5.16668 9.16732 5.43334 9.16732 5.83334V7.83334H11.1673C11.5673 7.83334 11.834 8.10001 11.834 8.50001C11.834 8.90001 11.5673 9.16668 11.1673 9.16668Z" fill="#788CA1"/>
</svg>
