<svg width="48" height="48" viewBox="0 0 48 48" fill="none" xmlns="http://www.w3.org/2000/svg">
<g filter="url(#filter0_d)">
<rect x="4" y="2" width="40" height="40" rx="16" fill="#DFE8FF"/>
<path d="M25.0827 22.1834C25.5273 21.7985 25.884 21.3224 26.1284 20.7875C26.3728 20.2527 26.4994 19.6714 26.4993 19.0834C26.4993 17.9783 26.0604 16.9185 25.279 16.1371C24.4976 15.3557 23.4378 14.9167 22.3327 14.9167C21.2276 14.9167 20.1678 15.3557 19.3864 16.1371C18.605 16.9185 18.166 17.9783 18.166 19.0834C18.166 19.6714 18.2925 20.2527 18.537 20.7875C18.7814 21.3224 19.138 21.7985 19.5827 22.1834C18.4161 22.7116 17.4264 23.5646 16.7318 24.6405C16.0373 25.7163 15.6672 26.9694 15.666 28.25C15.666 28.471 15.7538 28.683 15.9101 28.8393C16.0664 28.9956 16.2783 29.0834 16.4993 29.0834C16.7204 29.0834 16.9323 28.9956 17.0886 28.8393C17.2449 28.683 17.3327 28.471 17.3327 28.25C17.3327 26.9239 17.8595 25.6522 18.7971 24.7145C19.7348 23.7768 21.0066 23.25 22.3327 23.25C23.6588 23.25 24.9305 23.7768 25.8682 24.7145C26.8059 25.6522 27.3327 26.9239 27.3327 28.25C27.3327 28.471 27.4205 28.683 27.5768 28.8393C27.733 28.9956 27.945 29.0834 28.166 29.0834C28.387 29.0834 28.599 28.9956 28.7553 28.8393C28.9116 28.683 28.9993 28.471 28.9993 28.25C28.9981 26.9694 28.6281 25.7163 27.9335 24.6405C27.239 23.5646 26.2492 22.7116 25.0827 22.1834V22.1834ZM22.3327 21.5834C21.8382 21.5834 21.3549 21.4367 20.9438 21.162C20.5326 20.8873 20.2122 20.4969 20.023 20.0401C19.8338 19.5832 19.7843 19.0806 19.8807 18.5956C19.9772 18.1107 20.2153 17.6652 20.5649 17.3156C20.9145 16.966 21.36 16.7279 21.845 16.6314C22.3299 16.5349 22.8326 16.5844 23.2894 16.7737C23.7462 16.9629 24.1367 17.2833 24.4114 17.6944C24.6861 18.1056 24.8327 18.5889 24.8327 19.0834C24.8327 19.7464 24.5693 20.3823 24.1004 20.8511C23.6316 21.32 22.9957 21.5834 22.3327 21.5834ZM31.4243 22L32.091 21.3417C32.1687 21.264 32.2303 21.1717 32.2724 21.0702C32.3145 20.9687 32.3361 20.8599 32.3361 20.75C32.3361 20.6401 32.3145 20.5313 32.2724 20.4298C32.2303 20.3283 32.1687 20.2361 32.091 20.1584C32.0133 20.0807 31.9211 20.019 31.8196 19.977C31.718 19.9349 31.6092 19.9133 31.4993 19.9133C31.3895 19.9133 31.2807 19.9349 31.1791 19.977C31.0776 20.019 30.9854 20.0807 30.9077 20.1584L30.2493 20.825L29.591 20.1584C29.5133 20.0807 29.4211 20.019 29.3196 19.977C29.218 19.9349 29.1092 19.9133 28.9993 19.9133C28.7774 19.9133 28.5646 20.0014 28.4077 20.1584C28.33 20.2361 28.2683 20.3283 28.2263 20.4298C28.1842 20.5313 28.1626 20.6401 28.1626 20.75C28.1626 20.9719 28.2508 21.1848 28.4077 21.3417L29.0743 22L28.4077 22.6584C28.3296 22.7358 28.2676 22.828 28.2253 22.9295C28.183 23.0311 28.1612 23.14 28.1612 23.25C28.1612 23.36 28.183 23.469 28.2253 23.5705C28.2676 23.6721 28.3296 23.7642 28.4077 23.8417C28.4852 23.9198 28.5773 23.9818 28.6789 24.0241C28.7804 24.0664 28.8893 24.0882 28.9993 24.0882C29.1094 24.0882 29.2183 24.0664 29.3198 24.0241C29.4214 23.9818 29.5135 23.9198 29.591 23.8417L30.2493 23.175L30.9077 23.8417C30.9852 23.9198 31.0773 23.9818 31.1789 24.0241C31.2804 24.0664 31.3893 24.0882 31.4993 24.0882C31.6094 24.0882 31.7183 24.0664 31.8198 24.0241C31.9214 23.9818 32.0135 23.9198 32.091 23.8417C32.1691 23.7642 32.2311 23.6721 32.2734 23.5705C32.3157 23.469 32.3375 23.36 32.3375 23.25C32.3375 23.14 32.3157 23.0311 32.2734 22.9295C32.2311 22.828 32.1691 22.7358 32.091 22.6584L31.4243 22Z" fill="#788CA1"/>
<rect x="5" y="3" width="38" height="38" rx="15" stroke="white" stroke-width="2"/>
</g>
<defs>
<filter id="filter0_d" x="0" y="0" width="48" height="48" filterUnits="userSpaceOnUse" color-interpolation-filters="sRGB">
<feFlood flood-opacity="0" result="BackgroundImageFix"/>
<feColorMatrix in="SourceAlpha" type="matrix" values="0 0 0 0 0 0 0 0 0 0 0 0 0 0 0 0 0 0 127 0"/>
<feOffset dy="2"/>
<feGaussianBlur stdDeviation="2"/>
<feColorMatrix type="matrix" values="0 0 0 0 0 0 0 0 0 0 0 0 0 0 0 0 0 0 0.16 0"/>
<feBlend mode="normal" in2="BackgroundImageFix" result="effect1_dropShadow"/>
<feBlend mode="normal" in="SourceGraphic" in2="effect1_dropShadow" result="shape"/>
</filter>
</defs>
</svg>
