<svg width="22" height="22" viewBox="0 0 22 22" fill="none" xmlns="http://www.w3.org/2000/svg">
<path d="M14.6673 1.83337H7.33399C6.60465 1.83337 5.90517 2.12311 5.38945 2.63883C4.87372 3.15456 4.58399 3.85403 4.58399 4.58337V19.25C4.58335 19.4116 4.6254 19.5704 4.70589 19.7104C4.78637 19.8505 4.90244 19.9668 5.04232 20.0475C5.18168 20.128 5.33975 20.1703 5.50066 20.1703C5.66157 20.1703 5.81964 20.128 5.95899 20.0475L11.0007 17.1325L16.0423 20.0475C16.182 20.1267 16.3401 20.1678 16.5007 20.1667C16.6612 20.1678 16.8193 20.1267 16.959 20.0475C17.0989 19.9668 17.2149 19.8505 17.2954 19.7104C17.3759 19.5704 17.418 19.4116 17.4173 19.25V4.58337C17.4173 3.85403 17.1276 3.15456 16.6119 2.63883C16.0961 2.12311 15.3967 1.83337 14.6673 1.83337ZM15.584 17.6642L11.459 15.2809C11.3196 15.2004 11.1616 15.1581 11.0007 15.1581C10.8398 15.1581 10.6817 15.2004 10.5423 15.2809L6.41733 17.6642V4.58337C6.41733 4.34026 6.5139 4.1071 6.68581 3.93519C6.85772 3.76328 7.09088 3.66671 7.33399 3.66671H14.6673C14.9104 3.66671 15.1436 3.76328 15.3155 3.93519C15.4874 4.1071 15.584 4.34026 15.584 4.58337V17.6642Z" fill="#D3EAFF"/>
</svg>
