<svg width="16" height="17" viewBox="0 0 16 17" xmlns="http://www.w3.org/2000/svg">
<path d="M12.6673 1.83334H3.33398C2.20065 1.83334 1.33398 2.70001 1.33398 3.83334V13.1667C1.33398 14.3 2.20065 15.1667 3.33398 15.1667H12.6673C13.8007 15.1667 14.6673 14.3 14.6673 13.1667V3.83334C14.6673 2.70001 13.8007 1.83334 12.6673 1.83334ZM10.4673 10.0333C10.734 10.3 10.734 10.7 10.4673 10.9667C10.2007 11.2333 9.80065 11.2333 9.53398 10.9667L8.00065 9.43334L6.46732 10.9667C6.20065 11.2333 5.80065 11.2333 5.53398 10.9667C5.26732 10.7 5.26732 10.3 5.53398 10.0333L7.06732 8.50001L5.53398 6.96668C5.26732 6.70001 5.26732 6.30001 5.53398 6.03334C5.80065 5.76668 6.20065 5.76668 6.46732 6.03334L8.00065 7.56668L9.53398 6.03334C9.80065 5.76668 10.2007 5.76668 10.4673 6.03334C10.734 6.30001 10.734 6.70001 10.4673 6.96668L8.93398 8.50001L10.4673 10.0333Z" fill="inherit"/>
</svg>
