<svg width="16" height="17" viewBox="0 0 16 17" xmlns="http://www.w3.org/2000/svg">
<path d="M10.6667 5.83334H13.6L10 2.23334V5.16668C10 5.56668 10.2667 5.83334 10.6667 5.83334ZM10.6667 7.16668C9.53333 7.16668 8.66667 6.30001 8.66667 5.16668V1.83334H6.66667C5.53333 1.83334 4.66667 2.70001 4.66667 3.83334V4.50001H4C2.86667 4.50001 2 5.36668 2 6.50001V13.1667C2 14.3 2.86667 15.1667 4 15.1667H9.33333C10.4667 15.1667 11.3333 14.3 11.3333 13.1667V12.5H12C13.1333 12.5 14 11.6333 14 10.5V7.16668H10.6667ZM10 13.1667C10 13.5667 9.73333 13.8333 9.33333 13.8333H4C3.6 13.8333 3.33333 13.5667 3.33333 13.1667V6.50001C3.33333 6.10001 3.6 5.83334 4 5.83334H4.66667V10.5C4.66667 11.6333 5.53333 12.5 6.66667 12.5H10V13.1667Z" fill="inherit"/>
</svg>
