<svg width="22" height="24" viewBox="0 0 22 24" fill="none" xmlns="http://www.w3.org/2000/svg">
<path d="M17 22.002V3.00202C17.0007 2.82581 16.9548 2.65255 16.867 2.49977C16.7792 2.34699 16.6526 2.22013 16.5 2.13202C16.348 2.04425 16.1755 1.99805 16 1.99805C15.8245 1.99805 15.652 2.04425 15.5 2.13202L12.5 3.85202L9.50001 2.13202C9.34799 2.04425 9.17554 1.99805 9.00001 1.99805C8.82447 1.99805 8.65203 2.04425 8.50001 2.13202L5.50001 3.85202L2.50001 2.13202C2.34799 2.04425 2.17554 1.99805 2.00001 1.99805C1.82447 1.99805 1.65203 2.04425 1.50001 2.13202C1.3474 2.22013 1.22079 2.34699 1.13299 2.49977C1.04518 2.65255 0.999308 2.82581 1.00001 3.00202V19.002C1.00001 19.7977 1.31608 20.5607 1.87869 21.1233C2.4413 21.686 3.20436 22.002 4.00001 22.002H18C18.7957 22.002 19.5587 21.686 20.1213 21.1233C20.6839 20.5607 21 19.7977 21 19.002V13.002C21 12.7368 20.8947 12.4825 20.7071 12.2949C20.5196 12.1074 20.2652 12.002 20 12.002H17.5" stroke="#1E3147" stroke-width="2"/>
<path d="M6 11.998H9.75C10.9926 11.998 12 10.9907 12 9.74805V9.74805C12 8.50541 10.9926 7.49805 9.75 7.49805H6V17.998" stroke="#1E3147" stroke-width="2"/>
<path d="M4 14.998H9" stroke="#1E3147" stroke-width="2"/>
</svg>
