<svg width="28" height="28" viewBox="0 0 28 28" fill="none" xmlns="http://www.w3.org/2000/svg">
<path d="M8.16602 7.18091H7.66602C6.56145 7.18091 5.66602 8.07634 5.66602 9.18091V21.8476C5.66602 22.9521 6.56145 23.8476 7.66602 23.8476H16.9993C18.1039 23.8476 18.9993 22.9521 18.9993 21.8476V20.5142" stroke="#1E3147" stroke-width="2" stroke-linecap="round"/>
<path d="M9 18.5143V5.84766C9 4.74309 9.89543 3.84766 11 3.84766H19.5C20.6046 3.84766 21.5 4.74309 21.5 5.84766V18.5143C21.5 19.6189 20.6046 20.5143 19.5 20.5143H11C9.89543 20.5143 9 19.6189 9 18.5143Z" stroke="#1E3147" stroke-width="2"/>
<path d="M11.5 15.5143H19" stroke="#1E3147" stroke-width="2"/>
<path d="M11.5 11.3477H19" stroke="#1E3147" stroke-width="2"/>
<path d="M11.5 7.18091H19" stroke="#1E3147" stroke-width="2"/>
</svg>
