<svg width="40" height="40" viewBox="0 0 40 40" fill="none" xmlns="http://www.w3.org/2000/svg">
<path d="M20 40C31.0457 40 40 31.0457 40 20C40 8.95431 31.0457 0 20 0C8.95431 0 0 8.95431 0 20C0 31.0457 8.95431 40 20 40Z" fill="#EBEFF2"/>
<path d="M20.0002 10.0096C15.9043 10.0096 12.0147 9.64556 10.5291 13.4554C9.9154 15.0289 10.0045 17.0725 10.0045 19.9986C10.0045 22.5663 9.92217 24.9795 10.5291 26.5407C12.0113 30.3527 15.9325 29.9875 19.998 29.9875C23.9203 29.9875 27.9643 30.3956 29.4681 26.5407C30.0828 24.9514 29.9926 22.9382 29.9926 19.9986C29.9926 16.0963 30.2081 13.5771 28.314 11.6857C26.3963 9.76955 23.8029 10.0096 19.9957 10.0096H20.0002ZM19.1046 11.8097C27.6485 11.7962 28.7359 10.8471 28.1358 24.0316C27.9226 28.6947 24.3692 28.1829 20.0014 28.1829C12.0373 28.1829 11.8083 27.9553 11.8083 19.9941C11.8083 11.9405 12.44 11.8142 19.1046 11.8075V11.8097ZM25.336 13.4678C24.6738 13.4678 24.1368 14.0043 24.1368 14.666C24.1368 15.3276 24.6738 15.8641 25.336 15.8641C25.9981 15.8641 26.5351 15.3276 26.5351 14.666C26.5351 14.0043 25.9981 13.4678 25.336 13.4678ZM20.0002 14.8689C17.1654 14.8689 14.8676 17.166 14.8676 19.9986C14.8676 22.8312 17.1654 25.1272 20.0002 25.1272C22.8351 25.1272 25.1318 22.8312 25.1318 19.9986C25.1318 17.166 22.8351 14.8689 20.0002 14.8689ZM20.0002 16.6689C24.4053 16.6689 24.411 23.3282 20.0002 23.3282C15.5963 23.3282 15.5895 16.6689 20.0002 16.6689Z" fill="#99A3C5"/>
</svg>
