<svg width="16" height="16" viewBox="0 0 16 16" xmlns="http://www.w3.org/2000/svg">
<path fill-rule="evenodd" clip-rule="evenodd" d="M12.0007 5.33337C12.0007 3.12671 10.2073 1.33337 8.00065 1.33337C5.79398 1.33337 4.00065 3.12671 4.00065 5.33337C4.00065 8.33337 8.00065 12.6667 8.00065 12.6667C8.00065 12.6667 12.0007 8.33337 12.0007 5.33337ZM6.66732 5.33337C6.66732 4.60004 7.26732 4.00004 8.00065 4.00004C8.73398 4.00004 9.33398 4.60004 9.33398 5.33337C9.33398 6.06671 8.74065 6.66671 8.00065 6.66671C7.26732 6.66671 6.66732 6.06671 6.66732 5.33337ZM3.33398 14.6667V13.3334H12.6673V14.6667H3.33398Z" fill="inherit"/>
</svg>
