<svg width="32" height="32" viewBox="0 0 32 32" xmlns="http://www.w3.org/2000/svg">
<path d="M11.3324 15.3333C14.2657 15.3333 16.6657 12.9333 16.6657 9.99996C16.6657 7.06663 14.2657 4.66663 11.3324 4.66663C8.39906 4.66663 5.99906 7.06663 5.99906 9.99996C5.99906 12.9333 8.39906 15.3333 11.3324 15.3333ZM17.3324 14.1333C19.5991 16 22.9324 15.6 24.7991 13.3333C26.6657 11.0666 26.2657 7.73329 23.9991 5.86663C23.0657 5.06663 21.8657 4.66663 20.6657 4.66663C19.4657 4.66663 18.2657 5.06663 17.3324 5.86663C19.5991 7.73329 19.9991 10.9333 18.1324 13.3333C17.9991 13.6 17.5991 13.8666 17.3324 14.1333ZM30.5324 25.8666C29.7324 20.9333 25.5991 17.3333 20.6657 17.3333C19.4657 17.3333 18.3991 17.4666 17.3324 17.8666C20.7991 19.0666 23.3324 22.1333 23.8657 25.7333C23.9991 26.4 23.4657 27.2 22.6657 27.2H22.5324H29.1991C29.9991 27.2 30.5324 26.6666 30.5324 25.8666C30.5324 25.8666 30.5324 26 30.5324 25.8666ZM11.3324 17.3333C6.39906 17.3333 2.1324 20.9333 1.46573 25.8666C1.3324 26.5333 1.86573 27.3333 2.66573 27.3333H2.79906H19.8657C20.6657 27.3333 21.1991 26.8 21.1991 26V25.8666C20.5324 20.9333 16.2657 17.3333 11.3324 17.3333Z" fill="inherit"/>
</svg>
