<svg width="32" height="32" viewBox="0 0 32 32" xmlns="http://www.w3.org/2000/svg">
<path d="M22.666 20.6666V22.6666C22.666 23.4666 22.1327 24 21.3327 24C20.5327 24 19.9993 23.4666 19.9993 22.6666V20.6666H11.9993V22.6666C11.9993 23.4666 11.466 24 10.666 24C9.86602 24 9.33268 23.4666 9.33268 22.6666V20.6666H6.66602C5.73268 20.6666 4.79935 20.4 3.99935 20V25.3333C3.99935 27.6 5.73268 29.3333 7.99935 29.3333H23.9993C26.266 29.3333 27.9993 27.6 27.9993 25.3333V20C27.1994 20.4 26.266 20.6666 25.3327 20.6666H22.666ZM27.9993 7.99996H22.666V6.66663C22.666 4.39996 20.9327 2.66663 18.666 2.66663H13.3327C11.066 2.66663 9.33268 4.39996 9.33268 6.66663V7.99996H3.99935C3.19935 7.99996 2.66602 8.53329 2.66602 9.33329V14.6666C2.66602 16.9333 4.39935 18.6666 6.66602 18.6666H25.3327C27.5993 18.6666 29.3327 16.9333 29.3327 14.6666V9.33329C29.3327 8.53329 28.7993 7.99996 27.9993 7.99996ZM19.9993 7.99996H11.9993V6.66663C11.9993 5.86663 12.5327 5.33329 13.3327 5.33329H18.666C19.466 5.33329 19.9993 5.86663 19.9993 6.66663V7.99996Z" fill="inherit"/>
</svg>
