<svg width="24" height="25" viewBox="0 0 24 25" fill="none" xmlns="http://www.w3.org/2000/svg">
<path d="M15.3329 9.84766C15.3329 9.07718 15.0786 8.32824 14.6096 7.71699C14.1405 7.10573 13.4829 6.66633 12.7387 6.46691C11.9945 6.2675 11.2052 6.31923 10.4934 6.61408C9.78157 6.90893 9.18691 7.43041 8.80167 8.09766C8.66922 8.32739 8.63342 8.60031 8.70214 8.85642C8.77086 9.11253 8.93848 9.33087 9.16813 9.46343C9.39779 9.59599 9.67069 9.63193 9.92683 9.56334C10.183 9.49475 10.4014 9.32725 10.5341 9.09766C10.6659 8.86985 10.8553 8.68066 11.0832 8.54903C11.3112 8.41741 11.5697 8.34797 11.8329 8.34766C12.2307 8.34766 12.6123 8.5057 12.8936 8.787C13.1749 9.06831 13.3329 9.44984 13.3329 9.84766C13.3329 10.2455 13.1749 10.627 12.8936 10.9083C12.6123 11.1896 12.2307 11.3477 11.8329 11.3477H11.8305C11.7662 11.3541 11.7028 11.3671 11.6412 11.3864C11.5738 11.3934 11.5073 11.407 11.4426 11.427C11.3875 11.4569 11.3355 11.492 11.2871 11.5319C11.2296 11.5631 11.1754 11.5999 11.1251 11.6416C11.0801 11.6953 11.0409 11.7535 11.008 11.8153C10.9716 11.8604 10.9392 11.9087 10.9113 11.9595C10.8896 12.0284 10.8752 12.0994 10.8685 12.1714C10.8511 12.2289 10.8392 12.2879 10.8329 12.3477V13.3477L10.8352 13.359L10.8363 13.8501C10.837 14.1149 10.9427 14.3686 11.1301 14.5556C11.3176 14.7426 11.5716 14.8476 11.8363 14.8477H11.8388C12.104 14.847 12.3581 14.741 12.5452 14.553C12.7322 14.365 12.837 14.1104 12.8363 13.8452L12.8348 13.1838C13.5544 12.9699 14.1859 12.53 14.6358 11.9291C15.0858 11.3282 15.3302 10.5983 15.3329 9.84766ZM11.1303 16.6377C10.9899 16.7769 10.8939 16.9547 10.8545 17.1485C10.8151 17.3422 10.8341 17.5434 10.909 17.7264C10.9838 17.9094 11.1113 18.0661 11.2753 18.1767C11.4392 18.2873 11.6322 18.3468 11.83 18.3477C12.0952 18.3455 12.3495 18.2417 12.5404 18.0577C12.726 17.868 12.83 17.6131 12.83 17.3477C12.83 17.0823 12.726 16.8274 12.5404 16.6377C12.349 16.4593 12.0971 16.3601 11.8354 16.3601C11.5737 16.3601 11.3217 16.4593 11.1303 16.6377Z" fill="#788CA1"/>
</svg>
