<svg width="16" height="17" viewBox="0 0 16 17" fill="none" xmlns="http://www.w3.org/2000/svg">
<path d="M11.8007 8.03333L10.134 6.36667C9.86732 6.1 9.46732 6.1 9.20065 6.36667C8.93398 6.63333 8.93398 7.03333 9.20065 7.3L9.73398 7.83333H6.26732L6.80065 7.3C7.06732 7.03333 7.06732 6.63333 6.80065 6.36667C6.53398 6.1 6.13398 6.1 5.86732 6.36667L4.20065 8.03333C4.13398 8.1 4.06732 8.16667 4.06732 8.23333C4.00065 8.3 4.00065 8.43333 4.00065 8.5C4.00065 8.56667 4.00065 8.7 4.06732 8.76667C4.13398 8.83333 4.13398 8.9 4.20065 8.96667L5.86732 10.6333C6.00065 10.7667 6.13398 10.8333 6.33398 10.8333C6.53398 10.8333 6.66732 10.7667 6.80065 10.6333C7.06732 10.3667 7.06732 9.96667 6.80065 9.7L6.26732 9.16667H9.73398L9.20065 9.7C9.06732 9.83333 9.00065 9.96667 9.00065 10.1667C9.00065 10.5667 9.26732 10.8333 9.66732 10.8333C9.86732 10.8333 10.0007 10.7667 10.134 10.6333L11.8007 8.96667C11.8673 8.9 11.934 8.83333 11.934 8.76667C11.934 8.7 12.0007 8.63333 12.0007 8.5C12.0007 8.43333 12.0007 8.3 11.934 8.23333C11.934 8.16667 11.8673 8.1 11.8007 8.03333ZM2.00065 4.5C1.60065 4.5 1.33398 4.76667 1.33398 5.16667V11.8333C1.33398 12.2333 1.60065 12.5 2.00065 12.5C2.40065 12.5 2.66732 12.2333 2.66732 11.8333V5.16667C2.66732 4.76667 2.40065 4.5 2.00065 4.5ZM14.0007 4.5C13.6007 4.5 13.334 4.76667 13.334 5.16667V11.8333C13.334 12.2333 13.6007 12.5 14.0007 12.5C14.4007 12.5 14.6673 12.2333 14.6673 11.8333V5.16667C14.6673 4.76667 14.4007 4.5 14.0007 4.5Z" fill="#788CA1"/>
</svg>
