<svg width="17" height="17" viewBox="0 0 17 17" xmlns="http://www.w3.org/2000/svg">
<path d="M14.0323 8.96668C13.8323 8.70001 13.8323 8.36668 14.0323 8.10001L14.8989 7.16668C15.0989 6.96668 15.0989 6.63334 14.9656 6.36668L13.6323 4.03334C13.4989 3.76668 13.2323 3.63334 12.8989 3.70001L11.6323 3.96668C11.2989 4.03334 10.9656 3.83334 10.8989 3.50001L10.4989 2.30001C10.3656 2.03334 10.0989 1.83334 9.83226 1.83334H7.16559C6.89893 1.83334 6.63226 2.03334 6.56559 2.30001L6.09893 3.50001C6.03226 3.83334 5.69893 4.03334 5.36559 3.96668L4.09893 3.70001C3.83226 3.63334 3.56559 3.76668 3.36559 4.03334L2.03226 6.36668C1.89893 6.56668 1.96559 6.90001 2.16559 7.10001L3.03226 8.03334C3.23226 8.30001 3.23226 8.63334 3.03226 8.90001L2.16559 9.83334C1.96559 10.0333 1.96559 10.3667 2.09893 10.6333L3.43226 12.9667C3.56559 13.2333 3.83226 13.3667 4.16559 13.3L5.43226 13.0333C5.76559 12.9667 6.09893 13.1667 6.16559 13.5L6.56559 14.7C6.63226 14.9667 6.89893 15.1667 7.16559 15.1667H9.83226C10.0989 15.1667 10.3656 14.9667 10.4323 14.7L10.8323 13.5C10.9656 13.1667 11.2989 12.9667 11.5656 13.0333L12.8323 13.3C13.0989 13.3667 13.4323 13.2333 13.5656 12.9667L14.8989 10.6333C15.0323 10.3667 15.0323 10.1 14.8323 9.83334L14.0323 8.96668ZM8.49893 10.5C7.36559 10.5 6.49893 9.63334 6.49893 8.50001C6.49893 7.36668 7.36559 6.50001 8.49893 6.50001C9.63226 6.50001 10.4989 7.36668 10.4989 8.50001C10.4989 9.63334 9.63226 10.5 8.49893 10.5Z" fill="inherit"/>
</svg>
