<svg width="32" height="32" viewBox="0 0 32 32" fill="none" xmlns="http://www.w3.org/2000/svg">
<path d="M27.0665 16.9333C26.6665 16.4 26.6665 15.7333 27.0665 15.2L28.7998 13.3333C29.1998 12.9333 29.1998 12.2666 28.9331 11.7333L26.2665 7.06663C25.9998 6.53329 25.4665 6.26663 24.7998 6.39996L22.2665 6.93329C21.5998 7.06663 20.9331 6.66663 20.7998 5.99996L19.9998 3.59996C19.7331 3.06663 19.1998 2.66663 18.6665 2.66663H13.3331C12.7998 2.66663 12.2665 3.06663 12.1331 3.59996L11.1998 5.99996C11.0665 6.66663 10.3998 7.06663 9.73314 6.93329L7.1998 6.39996C6.66647 6.26663 6.13314 6.53329 5.73314 7.06663L3.06647 11.7333C2.7998 12.1333 2.93314 12.8 3.33314 13.2L5.06647 15.0666C5.46647 15.6 5.46647 16.2666 5.06647 16.8L3.33314 18.6666C2.93314 19.0666 2.93314 19.7333 3.1998 20.2666L5.86647 24.9333C6.13314 25.4666 6.66647 25.7333 7.33314 25.6L9.86647 25.0666C10.5331 24.9333 11.1998 25.3333 11.3331 26L12.1331 28.4C12.2665 28.9333 12.7998 29.3333 13.3331 29.3333H18.6665C19.1998 29.3333 19.7331 28.9333 19.8665 28.4L20.6665 26C20.9331 25.3333 21.5998 24.9333 22.1331 25.0666L24.6665 25.6C25.1998 25.7333 25.8665 25.4666 26.1331 24.9333L28.7998 20.2666C29.0665 19.7333 29.0665 19.2 28.6665 18.6666L27.0665 16.9333ZM15.9998 20C13.7331 20 11.9998 18.2666 11.9998 16C11.9998 13.7333 13.7331 12 15.9998 12C18.2665 12 19.9998 13.7333 19.9998 16C19.9998 18.2666 18.2665 20 15.9998 20Z" fill="#99A3C5"/>
</svg>
