<svg width="28" height="27" viewBox="0 0 28 27" fill="none" xmlns="http://www.w3.org/2000/svg">
<path d="M9.66667 19.181C9.66667 19.7333 10.1144 20.181 10.6667 20.181C11.219 20.181 11.6667 19.7333 11.6667 19.181H9.66667ZM5 4.34766H9.66667V2.34766H5V4.34766ZM10.6667 17.681H23V15.681H10.6667V17.681ZM23 17.681V22.3477H25V17.681H23ZM23 22.3477H5V24.3477H23V22.3477ZM5 22.3477V4.34766H3V22.3477H5ZM9.66667 4.34766V19.181H11.6667V4.34766H9.66667ZM23 22.3477V22.3477V24.3477C24.1046 24.3477 25 23.4522 25 22.3477H23ZM23 17.681H23H25C25 16.5764 24.1046 15.681 23 15.681V17.681ZM9.66667 4.34766H9.66667H11.6667C11.6667 3.24309 10.7712 2.34766 9.66667 2.34766V4.34766ZM5 22.3477H5H3C3 23.4522 3.89543 24.3477 5 24.3477V22.3477ZM5 2.34766C3.89543 2.34766 3 3.24309 3 4.34766H5V4.34766V2.34766Z" fill="#1E3147"/>
<path d="M8.16602 7.51428H10.666" stroke="#1E3147" stroke-width="2" stroke-linecap="round"/>
<path d="M14.834 19.181V16.681" stroke="#1E3147" stroke-width="2" stroke-linecap="round"/>
<path d="M19.834 19.181V16.681" stroke="#1E3147" stroke-width="2" stroke-linecap="round"/>
<path d="M8.16602 12.5143H10.666" stroke="#1E3147" stroke-width="2" stroke-linecap="round"/>
<path d="M8.16602 16.681H10.666" stroke="#1E3147" stroke-width="2" stroke-linecap="round"/>
</svg>
