<svg width="16" height="17" viewBox="0 0 16 17" xmlns="http://www.w3.org/2000/svg">
<path d="M8.00065 1.83333C4.33398 1.83333 1.33398 4.83333 1.33398 8.5C1.33398 12.1667 4.33398 15.1667 8.00065 15.1667C11.6673 15.1667 14.6673 12.1667 14.6673 8.5C14.6673 4.83333 11.6673 1.83333 8.00065 1.83333ZM10.4673 3.76666C11.4673 4.29999 12.2673 5.09999 12.8007 6.09999L10.8673 6.76666C10.6007 6.29999 10.2007 5.96666 9.80065 5.7L10.4673 3.76666ZM5.53398 3.76666L6.20065 5.7C5.73398 5.96666 5.40065 6.36666 5.13398 6.76666L3.20065 6.09999C3.80065 5.09999 4.60065 4.29999 5.53398 3.76666ZM5.53398 13.2333C4.53398 12.7 3.73398 11.9 3.20065 10.9L5.13398 10.2333C5.40065 10.7 5.80065 11.0333 6.20065 11.3L5.53398 13.2333ZM8.00065 10.5C6.86732 10.5 6.00065 9.63333 6.00065 8.5C6.00065 7.36666 6.86732 6.5 8.00065 6.5C9.13398 6.5 10.0007 7.36666 10.0007 8.5C10.0007 9.63333 9.13398 10.5 8.00065 10.5ZM10.4673 13.2333L9.80065 11.3C10.2673 11.0333 10.6007 10.6333 10.8673 10.2333L12.8007 10.9C12.2007 11.9 11.4007 12.7 10.4673 13.2333Z" fill="inherit"/>
</svg>
