<svg width="20" height="21" viewBox="0 0 20 21" fill="none" xmlns="http://www.w3.org/2000/svg">
<path d="M7.25768 6.92508L9.16602 5.00841V13.0001C9.16602 13.2211 9.25381 13.4331 9.41009 13.5893C9.56637 13.7456 9.77834 13.8334 9.99935 13.8334C10.2204 13.8334 10.4323 13.7456 10.5886 13.5893C10.7449 13.4331 10.8327 13.2211 10.8327 13.0001V5.00841L12.741 6.92508C12.8185 7.00318 12.9107 7.06518 13.0122 7.10749C13.1138 7.14979 13.2227 7.17158 13.3327 7.17158C13.4427 7.17158 13.5516 7.14979 13.6532 7.10749C13.7547 7.06518 13.8469 7.00318 13.9243 6.92508C14.0025 6.84761 14.0645 6.75544 14.1068 6.65389C14.1491 6.55234 14.1708 6.44342 14.1708 6.33341C14.1708 6.2234 14.1491 6.11448 14.1068 6.01293C14.0645 5.91138 14.0025 5.81921 13.9243 5.74174L10.591 2.40841C10.5118 2.33254 10.4183 2.27307 10.316 2.23341C10.1131 2.15006 9.88557 2.15006 9.68268 2.23341C9.58039 2.27307 9.48694 2.33254 9.40768 2.40841L6.07435 5.74174C5.99665 5.81944 5.93502 5.91168 5.89297 6.0132C5.85092 6.11472 5.82927 6.22353 5.82927 6.33341C5.82927 6.44329 5.85092 6.5521 5.89297 6.65362C5.93502 6.75514 5.99665 6.84738 6.07435 6.92508C6.15205 7.00278 6.24429 7.06441 6.34581 7.10646C6.44733 7.14851 6.55613 7.17015 6.66602 7.17015C6.7759 7.17015 6.88471 7.14851 6.98622 7.10646C7.08774 7.06441 7.17998 7.00278 7.25768 6.92508ZM17.4993 10.5001C17.2783 10.5001 17.0664 10.5879 16.9101 10.7442C16.7538 10.9004 16.666 11.1124 16.666 11.3334V16.3334C16.666 16.5544 16.5782 16.7664 16.4219 16.9227C16.2657 17.0789 16.0537 17.1667 15.8327 17.1667H4.16602C3.945 17.1667 3.73304 17.0789 3.57676 16.9227C3.42048 16.7664 3.33268 16.5544 3.33268 16.3334V11.3334C3.33268 11.1124 3.24489 10.9004 3.0886 10.7442C2.93232 10.5879 2.72036 10.5001 2.49935 10.5001C2.27834 10.5001 2.06637 10.5879 1.91009 10.7442C1.75381 10.9004 1.66602 11.1124 1.66602 11.3334V16.3334C1.66602 16.9965 1.92941 17.6323 2.39825 18.1012C2.86709 18.57 3.50297 18.8334 4.16602 18.8334H15.8327C16.4957 18.8334 17.1316 18.57 17.6005 18.1012C18.0693 17.6323 18.3327 16.9965 18.3327 16.3334V11.3334C18.3327 11.1124 18.2449 10.9004 18.0886 10.7442C17.9323 10.5879 17.7204 10.5001 17.4993 10.5001Z" fill="#19DAC6"/>
</svg>
