<svg width="36" height="36" viewBox="0 0 36 36" xmlns="http://www.w3.org/2000/svg">
    <rect width="36" height="36" rx="4" fill="#9FCCFA" />
    <g opacity="0.7">
        <path
            d="M20.4724 18.4734C21.1259 17.9591 21.603 17.254 21.8372 16.456C22.0713 15.658 22.051 14.8069 21.7789 14.021C21.5068 13.2352 20.9965 12.5536 20.3191 12.0713C19.6416 11.5889 18.8307 11.3297 17.999 11.3297C17.1674 11.3297 16.3564 11.5889 15.679 12.0713C15.0015 12.5536 14.4913 13.2352 14.2192 14.021C13.9471 14.8069 13.9267 15.658 14.1609 16.456C14.395 17.254 14.8721 17.9591 15.5257 18.4734C14.4057 18.9221 13.4285 19.6663 12.6983 20.6267C11.968 21.587 11.5121 22.7276 11.379 23.9267C11.3694 24.0143 11.3771 24.1028 11.4017 24.1874C11.4263 24.272 11.4673 24.3509 11.5224 24.4196C11.6337 24.5584 11.7955 24.6473 11.9724 24.6667C12.1492 24.6862 12.3265 24.6346 12.4652 24.5233C12.604 24.412 12.6929 24.2502 12.7124 24.0734C12.8587 22.7702 13.4801 21.5666 14.4578 20.6926C15.4355 19.8186 16.701 19.3354 18.0124 19.3354C19.3238 19.3354 20.5892 19.8186 21.5669 20.6926C22.5446 21.5666 23.166 22.7702 23.3124 24.0734C23.3305 24.2372 23.4086 24.3885 23.5318 24.4981C23.6549 24.6076 23.8142 24.6677 23.979 24.6667H24.0524C24.2271 24.6466 24.3868 24.5582 24.4967 24.4209C24.6066 24.2835 24.6578 24.1083 24.639 23.9334C24.5053 22.7308 24.0469 21.5874 23.3129 20.6255C22.5789 19.6637 21.597 18.9197 20.4724 18.4734V18.4734ZM17.999 18C17.4716 18 16.956 17.8436 16.5175 17.5506C16.079 17.2576 15.7372 16.8411 15.5353 16.3539C15.3335 15.8666 15.2807 15.3304 15.3836 14.8131C15.4865 14.2959 15.7405 13.8207 16.1134 13.4478C16.4863 13.0748 16.9615 12.8208 17.4788 12.7179C17.9961 12.6151 18.5322 12.6679 19.0195 12.8697C19.5068 13.0715 19.9233 13.4133 20.2163 13.8519C20.5093 14.2904 20.6657 14.806 20.6657 15.3334C20.6657 16.0406 20.3847 16.7189 19.8846 17.219C19.3845 17.7191 18.7063 18 17.999 18Z"
            fill="white" stroke="white" />
    </g>
</svg>