<?xml version="1.0" encoding="utf-8"?><svg width="16" height="17" xmlns="http://www.w3.org/2000/svg" viewBox="0 0 16 17"><path d="M12.667 3.167H3.334c-1.133 0-2 .866-2 2v2c0 .4.267.666.667.666h.666v5.334c0 1.133.867 2 2 2h6.667c1.133 0 2-.867 2-2V7.833h.667c.4 0 .666-.266.666-.666v-2c0-1.134-.866-2-2-2zM9.334 10.5H6.667c-.4 0-.666-.267-.666-.667s.266-.666.666-.666h2.667c.4 0 .667.266.667.666s-.267.667-.667.667zm4-4H2.667V5.167c0-.4.267-.667.667-.667h9.333c.4 0 .667.267.667.667V6.5z" fill="inherit"/></svg>