<?xml version="1.0" encoding="utf-8"?><svg width="48" height="48" fill="none" xmlns="http://www.w3.org/2000/svg" viewBox="0 0 48 48"><g filter="url(#aefilter0_d)"><rect x="4" y="2" width="40" height="40" rx="16" fill="#DFE8FF"/><path d="M25.083 22.183a4.1 4.1 0 001.416-3.1 4.167 4.167 0 10-8.333 0 4.099 4.099 0 001.417 3.1 6.666 6.666 0 00-3.917 6.067.833.833 0 001.667 0 5 5 0 0110 0 .833.833 0 001.666 0 6.666 6.666 0 00-3.916-6.067zm-2.75-.6a2.5 2.5 0 110-5 2.5 2.5 0 010 5zm9.091.417l.667-.658a.838.838 0 00-1.183-1.184l-.659.667-.658-.667a.836.836 0 10-1.183 1.184l.666.658-.666.658a.833.833 0 000 1.184.833.833 0 001.183 0l.658-.667.659.667a.833.833 0 001.183 0 .833.833 0 000-1.184L31.424 22z" fill="#788CA1"/><rect x="5" y="3" width="38" height="38" rx="15" stroke="#fff" stroke-width="2"/></g><defs><filter id="aefilter0_d" x="0" y="0" width="48" height="48" filterUnits="userSpaceOnUse" color-interpolation-filters="sRGB"><feFlood flood-opacity="0" result="BackgroundImageFix"/><feColorMatrix in="SourceAlpha" values="0 0 0 0 0 0 0 0 0 0 0 0 0 0 0 0 0 0 127 0"/><feOffset dy="2"/><feGaussianBlur stdDeviation="2"/><feColorMatrix values="0 0 0 0 0 0 0 0 0 0 0 0 0 0 0 0 0 0 0.16 0"/><feBlend in2="BackgroundImageFix" result="effect1_dropShadow"/><feBlend in="SourceGraphic" in2="effect1_dropShadow" result="shape"/></filter></defs></svg>