<?xml version="1.0" encoding="utf-8"?><svg width="24" height="24" fill="none" xmlns="http://www.w3.org/2000/svg" viewBox="0 0 24 24"><path d="M1.611 13.175a5.59 5.59 0 003.768 1.679c.007.089.012.212.012.38 0 .69-.525 2.797-.855 3.963l-.339 1.194h4.106l.275-.443c.109-.176 2.672-4.379 2.672-10.714A5.631 5.631 0 005.625 3.61 5.631 5.631 0 000 9.234c0 1.483.572 2.883 1.611 3.941zm4.014-7.69a3.754 3.754 0 013.75 3.75c0 4.655-1.54 8.101-2.147 9.28h-.569c.27-1.058.607-2.533.607-3.28 0-.594-.044-1.071-.26-1.47-.191-.354-.592-.776-1.414-.78l-.041-.002c-2.027-.039-3.676-1.72-3.676-3.749a3.754 3.754 0 013.75-3.75zM14.361 13.175a5.59 5.59 0 003.768 1.679c.007.089.012.212.012.38 0 .69-.525 2.797-.855 3.963l-.339 1.194h4.106l.275-.443C21.437 19.772 24 15.569 24 9.234a5.631 5.631 0 00-5.625-5.625 5.631 5.631 0 00-5.625 5.625c0 1.483.572 2.883 1.611 3.941zm4.014-7.69a3.754 3.754 0 013.75 3.75c0 4.655-1.54 8.101-2.147 9.28h-.569c.27-1.058.607-2.533.607-3.28 0-.594-.044-1.071-.26-1.47-.191-.354-.592-.776-1.415-.78l-.04-.002c-2.027-.039-3.676-1.72-3.676-3.749a3.754 3.754 0 013.75-3.75z" fill="#1E3147"/></svg>