<?xml version="1.0" encoding="utf-8"?><svg width="32" height="32" xmlns="http://www.w3.org/2000/svg" viewBox="0 0 32 32"><path d="M25.333 5.333h-1.334V4c0-.8-.533-1.333-1.333-1.333-.8 0-1.333.533-1.333 1.333v1.333H10.666V4c0-.8-.533-1.333-1.333-1.333-.8 0-1.334.533-1.334 1.333v1.333H6.666c-2.267 0-4 1.734-4 4v1.334h26.667V9.333c0-2.266-1.734-4-4-4zm-22.667 20c0 2.267 1.733 4 4 4h18.667c2.266 0 4-1.733 4-4v-12H2.666v12zm20-9.333c.8 0 1.333.533 1.333 1.333 0 .8-.533 1.334-1.333 1.334-.8 0-1.333-.534-1.333-1.334S21.866 16 22.666 16zm0 5.333c.8 0 1.333.534 1.333 1.334S23.466 24 22.666 24c-.8 0-1.333-.533-1.333-1.333 0-.8.533-1.334 1.333-1.334zM15.999 16c.8 0 1.334.533 1.334 1.333 0 .8-.534 1.334-1.334 1.334s-1.333-.534-1.333-1.334S15.199 16 15.999 16zm0 5.333c.8 0 1.334.534 1.334 1.334S16.799 24 15.999 24s-1.333-.533-1.333-1.333c0-.8.533-1.334 1.333-1.334zM9.333 16c.8 0 1.333.533 1.333 1.333 0 .8-.533 1.334-1.333 1.334-.8 0-1.334-.534-1.334-1.334S8.533 16 9.333 16zm0 5.333c.8 0 1.333.534 1.333 1.334S10.133 24 9.333 24c-.8 0-1.334-.533-1.334-1.333 0-.8.534-1.334 1.334-1.334z" fill="inherit"/></svg>