<?xml version="1.0" encoding="utf-8"?><svg width="16" height="17" fill="none" xmlns="http://www.w3.org/2000/svg" viewBox="0 0 16 17"><g clip-path="url(#anclip0)" fill="#788CA1"><path d="M8 8.167c1.467 0 2.667-1.2 2.667-2.667 0-1.467-1.2-2.667-2.667-2.667A2.675 2.675 0 005.334 5.5c0 1.467 1.2 2.667 2.666 2.667zm7.334-.667H12c-.4 0-.666.267-.666.667s.266.666.666.666h3.334c.4 0 .666-.266.666-.666s-.267-.667-.666-.667zM8 9.167c-2.466 0-4.6 1.8-4.933 4.266-.067.334.2.734.6.734h8.6c.4 0 .667-.267.667-.667v-.067C12.6 10.967 10.466 9.167 8 9.167z"/><path d="M15.603 7.233L14.199 5.63c-.288-.278-.665-.27-.942.018-.277.289-.27.666.018.943l1.404 1.604c.288.278.665.27.942-.018.277-.289.27-.666-.018-.943z"/><path d="M13.274 9.9l1.404-1.605c.288-.277.665-.27.942.019.277.288.27.665-.018.943l-1.404 1.604c-.288.277-.665.27-.942-.019-.277-.288-.27-.665.018-.942z"/></g><defs><clipPath id="anclip0"><path fill="#fff" transform="translate(0 .5)" d="M0 0h16v16H0z"/></clipPath></defs></svg>