<?xml version="1.0" encoding="utf-8"?><svg width="16" height="17" xmlns="http://www.w3.org/2000/svg" viewBox="0 0 16 17"><path d="M12.667 1.833H3.334c-1.133 0-2 .867-2 2v9.334c0 1.133.867 2 2 2h9.333c1.134 0 2-.867 2-2V3.833c0-1.133-.866-2-2-2zm-2.2 8.2a.644.644 0 010 .934.645.645 0 01-.933 0L8.001 9.433l-1.534 1.534a.645.645 0 01-.933 0 .645.645 0 010-.934L7.067 8.5 5.534 6.967a.644.644 0 010-.934.644.644 0 01.933 0l1.534 1.534 1.533-1.534a.644.644 0 01.933 0 .644.644 0 010 .934L8.934 8.5l1.533 1.533z" fill="inherit"/></svg>