<?xml version="1.0" encoding="utf-8"?><svg width="64" height="64" fill="none" xmlns="http://www.w3.org/2000/svg" viewBox="0 0 64 64"><path d="M51.219 37.162H12.78L8.652 45.42h3.735V64h39.226V45.42h3.735l-4.13-8.258zm-1.276 2.065l2.064 4.129H35.735l-2.065-4.13h16.273zm-35.885 0H30.33l-2.065 4.129H11.993l2.065-4.13zm35.49 22.71H33.032V54.71h-2.064v7.225H14.452V45.42h15.09l1.426-2.853v9.047h2.064v-9.047l1.427 2.853h15.09v16.516z" fill="#788CA1"/><path d="M16.516 53.678h6.193v2.064h-6.193v-2.064zM16.516 57.807h6.193v2.064h-6.193v-2.064zM24.773 57.807h2.065v2.064h-2.065v-2.064zM27.233 16.788L32 15.573l4.767 1.214.374-5.119 2.532-4.325-4.479-1.939L32 1.455l-3.195 3.95-4.479 1.938 2.532 4.325.375 5.12zm2.858-9.692l1.91-2.359 1.908 2.36 2.805 1.215-1.596 2.728-.23 3.14L32 13.443l-2.888.734-.23-3.139-1.596-2.728 2.805-1.215zM11.334 18.896l1.5-2.561-2.657-1.152-1.92-2.373-1.918 2.372-2.657 1.152 1.5 2.56.221 3.055 2.855-.726 2.855.727.22-3.054zm-2.023-.63l-.079 1.074-.974-.247-.974.247-.08-1.074-.564-.965.984-.426.634-.782.632.783.984.426-.563.964zM58.818 18.896l1.5-2.561-2.657-1.152-1.919-2.373-1.919 2.372-2.657 1.152 1.5 2.56.222 3.055 2.854-.726 2.855.727.221-3.054zm-2.023-.63l-.079 1.074-.974-.247-.973.247-.079-1.074-.564-.965.984-.426.632-.782.633.783.984.426-.564.964zM12.847 24.6a22.894 22.894 0 015.187 4.757l4.089 5.11-.846-6.764a13.258 13.258 0 00-5.175-8.917l-.988-.741-3.026 6.05.759.506zm2.975-3.354a11.204 11.204 0 013.335 6.229 24.99 24.99 0 00-4.414-4.072l1.079-2.157zM42.723 27.702l-.846 6.763 4.089-5.11a22.91 22.91 0 015.187-4.756l.758-.506-3.026-6.05-.989.743a13.255 13.255 0 00-5.173 8.916zm6.534-4.3a24.925 24.925 0 00-4.414 4.072 11.21 11.21 0 013.335-6.229l1.079 2.157zM36.129 35.097h2.064v-4.325a21.27 21.27 0 014.923-13.595l-1.586-1.322a23.345 23.345 0 00-5.401 14.917v4.325zM43.355 12.387h2.065v2.064h-2.065v-2.064zM46.451 8.258h2.065v2.064H46.45V8.258zM25.807 35.097h2.064v-4.325c0-5.44-1.918-10.737-5.4-14.916l-1.586 1.321a21.275 21.275 0 014.922 13.595v4.325zM18.58 12.387h2.065v2.064H18.58v-2.064zM15.484 8.258h2.065v2.064h-2.065V8.258zM30.967 17.549h2.064v2.064h-2.064V17.55zM30.967 21.678h2.064v13.42h-2.064v-13.42zM59.871 27.871h2.065v2.065H59.87V27.87zM59.871 32h2.065v2.065H59.87V32zM61.935 29.936H64V32h-2.065v-2.064zM57.807 29.936h2.064V32h-2.064v-2.064zM56.773 0h2.065v2.065h-2.065V0zM56.773 4.129h2.065v2.064h-2.065V4.13zM58.838 2.064h2.064V4.13h-2.064V2.064zM54.709 2.064h2.064V4.13H54.71V2.064zM2.064 32H4.13v2.065H2.064V32zM2.064 36.129H4.13v2.064H2.064V36.13zM4.129 34.065h2.064v2.064H4.13v-2.064zM0 34.065h2.065v2.064H0v-2.064zM2.064 0H4.13v2.065H2.064V0zM2.064 4.129H4.13v2.064H2.064V4.13z" fill="#788CA1"/><path d="M4.129 2.064h2.064V4.13H4.13V2.064zM0 2.064h2.065V4.13H0V2.064z" fill="#788CA1"/></svg>