<?xml version="1.0" encoding="utf-8"?><svg width="16" height="17" xmlns="http://www.w3.org/2000/svg" viewBox="0 0 16 17"><path d="M10.667 5.833H13.6l-3.6-3.6v2.934c0 .4.267.666.667.666zm0 1.334c-1.134 0-2-.867-2-2V1.833h-2c-1.134 0-2 .867-2 2V4.5H4c-1.133 0-2 .867-2 2v6.667c0 1.133.867 2 2 2h5.333c1.134 0 2-.867 2-2V12.5H12c1.133 0 2-.867 2-2V7.167h-3.333zm-.667 6c0 .4-.267.666-.667.666H4c-.4 0-.667-.266-.667-.666V6.5c0-.4.267-.667.667-.667h.667V10.5c0 1.133.866 2 2 2H10v.667z" fill="inherit"/></svg>