<?xml version="1.0" encoding="utf-8"?><svg width="40" height="40" fill="none" xmlns="http://www.w3.org/2000/svg" viewBox="0 0 40 40"><path d="M20 40c11.046 0 20-8.954 20-20S31.046 0 20 0 0 8.954 0 20s8.954 20 20 20z" fill="#EBEFF2"/><path d="M20 10.01c-4.096 0-7.985-.364-9.47 3.445-.615 1.574-.525 3.618-.525 6.544 0 2.567-.083 4.98.524 6.542 1.482 3.812 5.403 3.447 9.469 3.447 3.922 0 7.966.408 9.47-3.447.615-1.59.525-3.603.525-6.542 0-3.903.215-6.422-1.679-8.313-1.918-1.916-4.511-1.676-8.318-1.676H20zm-.895 1.8c8.543-.014 9.63-.963 9.03 12.222-.212 4.663-3.766 4.15-8.134 4.15-7.964 0-8.193-.227-8.193-8.188 0-8.053.632-8.18 7.297-8.187v.003zm6.231 1.658a1.199 1.199 0 100 2.397 1.199 1.199 0 000-2.397zM20 14.868a5.131 5.131 0 00-5.132 5.13A5.13 5.13 0 0020 25.129a5.13 5.13 0 100-10.26zm0 1.8c4.405 0 4.411 6.66 0 6.66-4.404 0-4.41-6.66 0-6.66z" fill="#99A3C5"/></svg>