<?xml version="1.0" encoding="utf-8"?><svg width="16" height="17" fill="none" xmlns="http://www.w3.org/2000/svg" viewBox="0 0 16 17"><path d="M7.983 6.834c-1.247 0-2.2.954-2.2 2.2 0 1.248.953 2.201 2.2 2.201 1.247 0 2.2-.953 2.2-2.2 0-1.247-.953-2.2-2.2-2.2zm7.261 1.907c-1.467-3.447-4.254-5.574-7.261-5.574-3.008 0-5.795 2.127-7.262 5.574a.81.81 0 000 .587c1.467 3.447 4.254 5.575 7.262 5.575 3.007 0 5.794-2.128 7.261-5.575a.81.81 0 000-.587zm-7.261 3.961a3.632 3.632 0 01-3.668-3.667 3.632 3.632 0 013.668-3.668 3.632 3.632 0 013.667 3.668 3.632 3.632 0 01-3.667 3.667z" fill="#788CA1"/></svg>