<?xml version="1.0" encoding="utf-8"?><svg width="32" height="32" xmlns="http://www.w3.org/2000/svg" viewBox="0 0 32 32"><path d="M11.332 15.333c2.934 0 5.334-2.4 5.334-5.333 0-2.933-2.4-5.333-5.334-5.333C8.4 4.667 6 7.067 6 10c0 2.933 2.4 5.333 5.333 5.333zm6-1.2c2.267 1.867 5.6 1.467 7.467-.8 1.867-2.266 1.467-5.6-.8-7.466-.933-.8-2.133-1.2-3.333-1.2-1.2 0-2.4.4-3.334 1.2 2.267 1.866 2.667 5.066.8 7.466-.133.267-.533.534-.8.8zm13.2 11.734c-.8-4.934-4.933-8.534-9.866-8.534-1.2 0-2.267.134-3.334.534 3.467 1.2 6 4.266 6.534 7.866.133.667-.4 1.467-1.2 1.467h-.134H29.2c.8 0 1.333-.533 1.333-1.333 0 0 0 .133 0 0zm-19.2-8.534c-4.933 0-9.2 3.6-9.866 8.534-.134.666.4 1.466 1.2 1.466h17.2c.8 0 1.333-.533 1.333-1.333v-.133c-.667-4.934-4.933-8.534-9.867-8.534z" fill="inherit"/></svg>