<?xml version="1.0" encoding="utf-8"?><svg width="16" height="17" xmlns="http://www.w3.org/2000/svg" viewBox="0 0 16 17"><path d="M12 9.3V7.167c0-1.934-1.4-3.6-3.334-3.934V2.5c0-.4-.267-.667-.667-.667s-.666.267-.666.667v.733a4.002 4.002 0 00-3.334 3.934V9.3c-.8.267-1.333 1-1.333 1.867V12.5c0 .4.267.667.667.667h2.066c.334 1.4 1.8 2.266 3.2 1.933a2.82 2.82 0 001.934-1.933h2.133c.4 0 .667-.267.667-.667v-1.333c0-.867-.534-1.6-1.334-1.867zm-4 4.533c-.467 0-.934-.266-1.134-.666h2.333c-.266.4-.733.666-1.2.666z" fill="inherit"/></svg>