<?xml version="1.0" encoding="utf-8"?><svg width="32" height="32" xmlns="http://www.w3.org/2000/svg" viewBox="0 0 32 32"><path d="M24 17.6v-4.267c0-3.866-2.8-7.2-6.666-7.866V4c0-.8-.533-1.333-1.333-1.333-.8 0-1.334.533-1.334 1.333v1.467c-3.866.666-6.666 4-6.666 7.866V17.6c-1.6.533-2.667 2-2.667 3.733V24c0 .8.533 1.333 1.333 1.333h4.134c.666 2.8 3.6 4.534 6.4 3.867a5.64 5.64 0 003.866-3.867h4.267c.8 0 1.333-.533 1.333-1.333v-2.667c0-1.733-1.066-3.2-2.666-3.733zm-8 9.067c-.933 0-1.866-.534-2.266-1.334h4.667c-.534.8-1.467 1.334-2.4 1.334z" fill="inherit"/></svg>