<?xml version="1.0" encoding="utf-8"?><svg width="32" height="32" xmlns="http://www.w3.org/2000/svg" viewBox="0 0 32 32"><path d="M22.666 20.667v2c0 .8-.533 1.333-1.333 1.333-.8 0-1.334-.533-1.334-1.333v-2h-8v2c0 .8-.533 1.333-1.333 1.333-.8 0-1.333-.533-1.333-1.333v-2H6.666c-.933 0-1.867-.267-2.667-.667v5.333c0 2.267 1.734 4 4 4h16c2.267 0 4-1.733 4-4V20c-.8.4-1.733.667-2.666.667h-2.667zM27.999 8h-5.333V6.667c0-2.267-1.733-4-4-4h-5.333c-2.267 0-4 1.733-4 4V8H3.999c-.8 0-1.333.533-1.333 1.333v5.334c0 2.266 1.733 4 4 4h18.667c2.266 0 4-1.734 4-4V9.333c0-.8-.534-1.333-1.334-1.333zm-8 0h-8V6.667c0-.8.534-1.334 1.334-1.334h5.333c.8 0 1.333.534 1.333 1.334V8z" fill="inherit"/></svg>