<?xml version="1.0" encoding="utf-8"?><svg width="24" height="25" fill="none" xmlns="http://www.w3.org/2000/svg" viewBox="0 0 24 25"><path d="M15.333 9.848a3.5 3.5 0 00-6.531-1.75 1 1 0 001.732 1 1.503 1.503 0 012.36-.311 1.5 1.5 0 01-1.061 2.56h-.002a.947.947 0 00-.19.04c-.067.006-.134.02-.198.04a.977.977 0 00-.156.105 1.005 1.005 0 00-.162.11 1.007 1.007 0 00-.117.173.984.984 0 00-.097.145 1.02 1.02 0 00-.043.211.953.953 0 00-.035.177v1l.002.011.001.491a1 1 0 001 .998h.003a1 1 0 00.997-1.003l-.001-.661a3.493 3.493 0 002.498-3.336zm-4.203 6.79a1 1 0 101.41 1.42 1.015 1.015 0 000-1.42 1.034 1.034 0 00-1.41 0z" fill="#788CA1"/></svg>