<?xml version="1.0" encoding="utf-8"?><svg width="16" height="17" fill="none" xmlns="http://www.w3.org/2000/svg" viewBox="0 0 16 17"><path d="M11.8 8.033l-1.666-1.666a.644.644 0 00-.933 0 .644.644 0 000 .933l.533.533H6.267l.534-.533a.644.644 0 000-.933.644.644 0 00-.934 0L4.201 8.033c-.067.067-.134.134-.134.2-.066.067-.066.2-.066.267s0 .2.066.267c.067.066.067.133.134.2l1.666 1.666c.134.134.267.2.467.2s.333-.066.467-.2a.644.644 0 000-.933l-.534-.533h3.467l-.533.533a.605.605 0 00-.2.467c0 .4.266.666.666.666.2 0 .334-.066.467-.2l1.667-1.666c.066-.067.133-.134.133-.2 0-.067.067-.134.067-.267 0-.067 0-.2-.067-.267 0-.066-.067-.133-.133-.2zM2 4.5c-.4 0-.666.267-.666.667v6.666c0 .4.267.667.667.667s.666-.267.666-.667V5.167c0-.4-.266-.667-.666-.667zm12 0c-.4 0-.666.267-.666.667v6.666c0 .4.267.667.667.667s.666-.267.666-.667V5.167c0-.4-.266-.667-.666-.667z" fill="#788CA1"/></svg>