<?xml version="1.0" encoding="utf-8"?><svg width="17" height="17" xmlns="http://www.w3.org/2000/svg" viewBox="0 0 17 17"><path d="M14.032 8.967a.7.7 0 010-.867l.867-.933c.2-.2.2-.534.067-.8l-1.334-2.334c-.133-.266-.4-.4-.733-.333l-1.267.267c-.333.066-.666-.134-.733-.467l-.4-1.2c-.133-.267-.4-.467-.667-.467H7.166a.64.64 0 00-.6.467l-.467 1.2c-.067.333-.4.533-.733.467L4.099 3.7c-.267-.067-.533.067-.733.333L2.032 6.367c-.133.2-.066.533.134.733l.866.933c.2.267.2.6 0 .867l-.866.933c-.2.2-.2.534-.067.8l1.333 2.334c.134.266.4.4.734.333l1.266-.267c.334-.066.667.134.734.467l.4 1.2a.64.64 0 00.6.467h2.666a.64.64 0 00.6-.467l.4-1.2c.134-.333.467-.533.734-.467l1.266.267a.67.67 0 00.734-.333l1.333-2.334c.133-.266.133-.533-.067-.8l-.8-.866zM8.5 10.5c-1.133 0-2-.867-2-2s.867-2 2-2 2 .867 2 2-.867 2-2 2z" fill="inherit"/></svg>