<?xml version="1.0" encoding="utf-8"?><svg width="32" height="32" fill="none" xmlns="http://www.w3.org/2000/svg" viewBox="0 0 32 32"><path d="M27.067 16.933c-.4-.533-.4-1.2 0-1.733l1.733-1.867c.4-.4.4-1.066.133-1.6l-2.666-4.666c-.267-.534-.8-.8-1.467-.667l-2.534.533C21.6 7.067 20.934 6.667 20.8 6L20 3.6c-.267-.533-.8-.933-1.334-.933h-5.333c-.533 0-1.066.4-1.2.933L11.2 6c-.133.667-.8 1.067-1.467.933L7.2 6.4c-.534-.133-1.067.133-1.467.667l-2.667 4.666c-.266.4-.133 1.067.267 1.467l1.733 1.867c.4.533.4 1.2 0 1.733l-1.733 1.867c-.4.4-.4 1.066-.133 1.6l2.666 4.666c.267.534.8.8 1.467.667l2.533-.533c.667-.134 1.334.266 1.467.933l.8 2.4c.134.533.667.933 1.2.933h5.333c.534 0 1.067-.4 1.2-.933l.8-2.4c.267-.667.934-1.067 1.467-.933l2.534.533c.533.133 1.2-.133 1.466-.667l2.667-4.666c.267-.534.267-1.067-.134-1.6l-1.6-1.734zM16 20c-2.267 0-4-1.733-4-4s1.733-4 4-4 4 1.733 4 4-1.733 4-4 4z" fill="#99A3C5"/></svg>