<?xml version="1.0" encoding="utf-8"?><svg width="28" height="27" fill="none" xmlns="http://www.w3.org/2000/svg" viewBox="0 0 28 27"><path d="M9.667 19.181a1 1 0 002 0h-2zM5 4.348h4.667v-2H5v2zm5.667 13.333H23v-2H10.667v2zm12.333 0v4.667h2V17.68h-2zm0 4.667H5v2h18v-2zm-18 0v-18H3v18h2zm4.667-18V19.18h2V4.348h-2zm13.333 18v2a2 2 0 002-2h-2zm0-4.667h2a2 2 0 00-2-2v2zM9.667 4.348h2a2 2 0 00-2-2v2zM5 22.348H3a2 2 0 002 2v-2zm0-20a2 2 0 00-2 2h2v-2z" fill="#1E3147"/><path d="M8.166 7.514h2.5M14.834 19.181v-2.5M19.834 19.181v-2.5M8.166 12.514h2.5M8.166 16.681h2.5" stroke="#1E3147" stroke-width="2" stroke-linecap="round"/></svg>