<?xml version="1.0" encoding="utf-8"?><svg width="16" height="17" xmlns="http://www.w3.org/2000/svg" viewBox="0 0 16 17"><path d="M8 1.833c-3.666 0-6.666 3-6.666 6.667s3 6.667 6.667 6.667c3.666 0 6.666-3 6.666-6.667s-3-6.667-6.666-6.667zm2.467 1.934c1 .533 1.8 1.333 2.334 2.333l-1.934.667c-.266-.467-.666-.8-1.066-1.067l.666-1.933zm-4.933 0L6.201 5.7c-.467.267-.8.667-1.067 1.067L3.201 6.1c.6-1 1.4-1.8 2.333-2.333zm0 9.466c-1-.533-1.8-1.333-2.333-2.333l1.933-.667c.267.467.667.8 1.067 1.067l-.667 1.933zM8.001 10.5c-1.134 0-2-.867-2-2s.866-2 2-2c1.133 0 2 .867 2 2s-.867 2-2 2zm2.466 2.733L9.801 11.3c.466-.267.8-.667 1.066-1.067l1.934.667c-.6 1-1.4 1.8-2.334 2.333z" fill="inherit"/></svg>