<?xml version="1.0" encoding="utf-8"?><svg width="40" height="40" fill="none" xmlns="http://www.w3.org/2000/svg" viewBox="0 0 40 40"><path fill-rule="evenodd" clip-rule="evenodd" d="M33.633 19.303c-.029-8.741-7.145-15.913-15.886-15.97-8.853-.055-16.08 7.117-16.08 15.998 0 8.825 7.143 15.969 15.968 15.969 3.614 0 6.976-1.205 9.638-3.222.7.224 1.4.364 2.13.505.812.111 1.652.196 2.465.168.784-.028 1.596-.112 2.325-.337.42-.112.84-.252 1.26-.42.134-.05.258-.11.378-.169.081-.039.16-.077.239-.111.112-.056.224-.168.028-.252-.588-.252-1.149-.532-1.653-.897a8.282 8.282 0 01-1.373-1.204 9.76 9.76 0 01-1.457-2.326 15.664 15.664 0 002.018-7.732z" fill="#33A1FB"/><path fill-rule="evenodd" clip-rule="evenodd" d="M15.957 26.89c0 .897.755 1.654 1.653 1.654.98 0 1.68-.757 1.68-1.681-.026-.925-.755-1.653-1.68-1.625-.898 0-1.653.728-1.653 1.653zm4.391-7.182l.176-.157.456-.413c1.27-1.131 2.711-2.421 2.737-4.266 0-1.289-.644-2.55-1.624-3.39-3.252-2.858-9.974-1.485-10.423 3.278-.026.28.084.392.364.42.368.042.736.092 1.1.14.362.05.723.098 1.085.14.589.084.618.084.784-.476 1.15-3.782 6.78-1.737 4.541 1.317-.39.536-.908.923-1.422 1.308-.668.5-1.325.994-1.69 1.801-.53 1.093-.504 2.69-.475 3.895 0 .252.11.336.335.336h1.29c.364 0 .758-.028 1.148 0 .335.028.476-.084.45-.42 0-.617.026-1.233.084-1.85.049-.752.57-1.213 1.084-1.663z" fill="#fff"/></svg>