<?xml version="1.0" encoding="utf-8"?><svg width="20" height="21" fill="none" xmlns="http://www.w3.org/2000/svg" viewBox="0 0 20 21"><path d="M7.258 6.925l1.908-1.917V13a.833.833 0 101.667 0V5.008l1.908 1.917a.834.834 0 001.366-.271.833.833 0 00-.183-.912l-3.333-3.334a.833.833 0 00-.275-.175.833.833 0 00-.633 0 .833.833 0 00-.275.175L6.074 5.742a.837.837 0 001.184 1.183zM17.499 10.5a.833.833 0 00-.833.833v5a.833.833 0 01-.833.834H4.166a.834.834 0 01-.833-.834v-5a.833.833 0 10-1.667 0v5a2.5 2.5 0 002.5 2.5h11.667a2.5 2.5 0 002.5-2.5v-5a.833.833 0 00-.834-.833z" fill="#19DAC6"/></svg>