<?xml version="1.0" encoding="utf-8"?><svg width="16" height="17" xmlns="http://www.w3.org/2000/svg" viewBox="0 0 16 17"><path d="M12.667 1.833H3.334c-1.133 0-2 .867-2 2v9.334c0 1.133.867 2 2 2h9.333c1.134 0 2-.867 2-2V3.833c0-1.133-.866-2-2-2zM8.001 4.5c1 0 1.866.8 1.866 1.867 0 1.066-.8 1.866-1.866 1.866-1.067 0-1.867-.8-1.867-1.866 0-1.067.867-1.867 1.867-1.867zm3.066 7.933c-.066 0-.133.067-.266.067H5.134a.668.668 0 01-.667-.667c0-.066 0-.133.067-.266.733-1.934 2.867-2.867 4.8-2.134 1 .4 1.733 1.134 2.133 2.134.134.4-.066.733-.4.866z" fill="inherit"/></svg>