<?xml version="1.0" encoding="utf-8"?><svg width="40" height="40" fill="none" xmlns="http://www.w3.org/2000/svg" viewBox="0 0 40 40"><path d="M20 40c11.046 0 20-8.954 20-20S31.046 0 20 0 0 8.954 0 20s8.954 20 20 20z" fill="#EBEFF2"/><path fill-rule="evenodd" clip-rule="evenodd" d="M19.274 26.95h1.256s.379-.042.572-.251c.179-.192.173-.552.173-.552s-.025-1.687.757-1.936c.77-.244 1.76 1.63 2.81 2.352.792.546 1.395.426 1.395.426l2.804-.04s1.467-.09.772-1.245c-.057-.095-.405-.855-2.085-2.417-1.759-1.635-1.523-1.37.595-4.198 1.29-1.722 1.806-2.774 1.645-3.224-.154-.43-1.103-.316-1.103-.316l-3.157.02s-.234-.032-.408.072c-.17.102-.279.34-.279.34s-.5 1.332-1.166 2.466c-1.406 2.391-1.968 2.517-2.198 2.369-.535-.346-.401-1.39-.401-2.132 0-2.318.35-3.284-.684-3.535-.343-.083-.596-.137-1.473-.146-1.127-.012-2.08.003-2.62.268-.36.176-.637.569-.468.592.209.027.681.127.932.469.323.44.312 1.431.312 1.431s.186 2.728-.434 3.067c-.426.233-1.01-.242-2.263-2.411-.643-1.112-1.128-2.34-1.128-2.34s-.093-.23-.26-.353c-.202-.148-.485-.196-.485-.196l-3 .02s-.451.012-.616.209c-.148.174-.012.535-.012.535s2.349 5.505 5.009 8.28c2.439 2.543 5.208 2.376 5.208 2.376z" fill="#99A3C5"/></svg>