<?xml version="1.0" encoding="utf-8"?><svg viewBox="0 0 36 36" xmlns="http://www.w3.org/2000/svg" xmlns:xlink="http://www.w3.org/1999/xlink"><style>:root>svg{display:none}:root>svg:target{display:block}</style><svg viewBox="0 0 16 17" id="archive" xmlns="http://www.w3.org/2000/svg"><path d="M12.667 3.167H3.334c-1.133 0-2 .866-2 2v2c0 .4.267.666.667.666h.666v5.334c0 1.133.867 2 2 2h6.667c1.133 0 2-.867 2-2V7.833h.667c.4 0 .666-.266.666-.666v-2c0-1.134-.866-2-2-2zM9.334 10.5H6.667c-.4 0-.666-.267-.666-.667s.266-.666.666-.666h2.667c.4 0 .667.266.667.666s-.267.667-.667.667zm4-4H2.667V5.167c0-.4.267-.667.667-.667h9.333c.4 0 .667.267.667.667V6.5z" fill="inherit"/></svg><svg fill="none" viewBox="0 0 10 6" id="arrow" xmlns="http://www.w3.org/2000/svg"><path d="M1 5l3.646-3.646a.5.5 0 01.708 0L9 5" stroke="inherit" stroke-width="2" stroke-linecap="round"/></svg><svg fill="none" viewBox="0 0 22 22" id="bookmarks" xmlns="http://www.w3.org/2000/svg"><path d="M14.667 1.833H7.334a2.75 2.75 0 00-2.75 2.75V19.25a.916.916 0 001.375.797l5.042-2.915 5.041 2.915c.14.08.298.12.459.12.16 0 .318-.04.458-.12a.916.916 0 00.458-.797V4.583a2.75 2.75 0 00-2.75-2.75zm.917 15.831l-4.125-2.383a.916.916 0 00-.917 0l-4.125 2.383V4.584a.917.917 0 01.917-.917h7.333a.917.917 0 01.917.916v13.081z" fill="#D3EAFF"/></svg><svg viewBox="0 0 14 21" id="bookmarks2" xmlns="http://www.w3.org/2000/svg"><path d="M11 0H3a3 3 0 00-3 3v16a1 1 0 001.5.87L7 16.69l5.5 3.18a1 1 0 00.5.13 1 1 0 00.5-.13A1 1 0 0014 19V3a3 3 0 00-3-3z" fill="inherit"/></svg><svg viewBox="0 0 16 17" id="close" xmlns="http://www.w3.org/2000/svg"><path d="M12.667 1.833H3.334c-1.133 0-2 .867-2 2v9.334c0 1.133.867 2 2 2h9.333c1.134 0 2-.867 2-2V3.833c0-1.133-.866-2-2-2zm-2.2 8.2a.644.644 0 010 .934.645.645 0 01-.933 0L8.001 9.433l-1.534 1.534a.645.645 0 01-.933 0 .645.645 0 010-.934L7.067 8.5 5.534 6.967a.644.644 0 010-.934.644.644 0 01.933 0l1.534 1.534 1.533-1.534a.644.644 0 01.933 0 .644.644 0 010 .934L8.934 8.5l1.533 1.533z" fill="inherit"/></svg><svg fill="none" viewBox="0 0 13 14" id="comments" xmlns="http://www.w3.org/2000/svg"><rect x="1" width="11" height="13" rx="2" fill="#788CA1"/><path fill="#fff" d="M4 3h5v1H4zM4 6h5v1H4zM4 9h5v1H4z"/></svg><svg viewBox="0 0 16 17" id="copy" xmlns="http://www.w3.org/2000/svg"><path d="M10.667 5.833H13.6l-3.6-3.6v2.934c0 .4.267.666.667.666zm0 1.334c-1.134 0-2-.867-2-2V1.833h-2c-1.134 0-2 .867-2 2V4.5H4c-1.133 0-2 .867-2 2v6.667c0 1.133.867 2 2 2h5.333c1.134 0 2-.867 2-2V12.5H12c1.133 0 2-.867 2-2V7.167h-3.333zm-.667 6c0 .4-.267.666-.667.666H4c-.4 0-.667-.266-.667-.666V6.5c0-.4.267-.667.667-.667h.667V10.5c0 1.133.866 2 2 2H10v.667z" fill="inherit"/></svg><svg fill="none" viewBox="0 0 22 24" id="cost" xmlns="http://www.w3.org/2000/svg"><path d="M17 22.002v-19a1 1 0 00-1.5-.87l-3 1.72-3-1.72a1 1 0 00-1 0l-3 1.72-3-1.72a1 1 0 00-1.5.87v16a3 3 0 003 3h14a3 3 0 003-3v-6a1 1 0 00-1-1h-2.5" stroke="#1E3147" stroke-width="2"/><path d="M6 11.998h3.75A2.25 2.25 0 0012 9.748v0a2.25 2.25 0 00-2.25-2.25H6v10.5M4 14.998h5" stroke="#1E3147" stroke-width="2"/></svg><svg fill="none" viewBox="0 0 19 20" id="down" xmlns="http://www.w3.org/2000/svg"><path d="M13.383 7.846a.744.744 0 00-1.076 0L9.614 10.54 6.922 7.846a.744.744 0 00-1.077 0 .744.744 0 000 1.077l3.23 3.23c.155.155.308.232.54.232.23 0 .384-.077.538-.231l3.23-3.23a.744.744 0 000-1.078z" fill="#fff"/></svg><svg viewBox="0 0 16 17" id="edit" xmlns="http://www.w3.org/2000/svg"><path d="M13.134 5.767a.644.644 0 000-.934l-2.8-2.8a.644.644 0 00-.933 0L7.534 3.9l3.8 3.8 1.8-1.933zm-9.8 6.733h2.8c.2 0 .333-.067.467-.2l3.666-3.667-3.733-3.8L2.867 8.5a.757.757 0 00-.2.533v2.8c0 .4.267.667.667.667zm10.667 1.333H2c-.4 0-.667.267-.667.667s.267.667.667.667h12c.4 0 .666-.267.666-.667s-.266-.667-.666-.667z" fill="inherit"/></svg><svg viewBox="0 0 16 17" id="exit" xmlns="http://www.w3.org/2000/svg"><path d="M11.333 1.833H4.666c-1.133 0-2 .867-2 2v4h5.733L6.866 6.3a.644.644 0 010-.933.644.644 0 01.933 0l2.667 2.666a.644.644 0 010 .934l-2.667 2.666a.644.644 0 01-.933 0 .644.644 0 010-.933l1.533-1.533H2.666v4c0 1.133.867 2 2 2h6.667c1.133 0 2-.867 2-2V3.833c0-1.133-.867-2-2-2z" fill="inherit"/></svg><svg fill="none" viewBox="0 0 28 28" id="files" xmlns="http://www.w3.org/2000/svg"><path d="M8.166 7.18h-.5a2 2 0 00-2 2v12.668a2 2 0 002 2h9.333a2 2 0 002-2v-1.334" stroke="#1E3147" stroke-width="2" stroke-linecap="round"/><path d="M9 18.514V5.848a2 2 0 012-2h8.5a2 2 0 012 2v12.666a2 2 0 01-2 2H11a2 2 0 01-2-2zM11.5 15.514H19M11.5 11.348H19M11.5 7.18H19" stroke="#1E3147" stroke-width="2"/></svg><svg viewBox="0 0 14 14" id="finish" xmlns="http://www.w3.org/2000/svg"><path fill="inherit" d="M0 1h2v13H0zM12 1h2v13h-2z"/><path d="M0 2h14v7H0V2z" fill="inherit"/></svg><svg fill="none" viewBox="0 0 16 16" id="map" xmlns="http://www.w3.org/2000/svg"><path fill-rule="evenodd" clip-rule="evenodd" d="M12 5.333c0-2.206-1.793-4-4-4-2.206 0-4 1.794-4 4 0 3 4 7.334 4 7.334s4-4.334 4-7.334zm-5.333 0C6.667 4.6 7.267 4 8.001 4a1.333 1.333 0 11-1.333 1.333zm-3.333 9.334v-1.334h9.333v1.334H3.334z" fill="#fff"/></svg><svg viewBox="0 0 24 24" id="more" xmlns="http://www.w3.org/2000/svg"><path d="M12 10c-1.1 0-2 .9-2 2s.9 2 2 2 2-.9 2-2-.9-2-2-2zm-9 0c-1.1 0-2 .9-2 2s.9 2 2 2 2-.9 2-2-.9-2-2-2zm18 0c-1.1 0-2 .9-2 2s.9 2 2 2 2-.9 2-2-.9-2-2-2z" fill="inherit"/></svg><svg fill="none" viewBox="0 0 25 24" id="new" xmlns="http://www.w3.org/2000/svg"><rect x="1" y=".5" width="23" height="23" rx="6.5" fill="#DFE8FF" stroke="#DFE8FF"/><path d="M6.5 12h12M12.5 18V6" stroke="#788CA1" stroke-width="2"/></svg><svg viewBox="0 0 16 17" id="notifications" xmlns="http://www.w3.org/2000/svg"><path d="M12 9.3V7.167c0-1.934-1.4-3.6-3.334-3.934V2.5c0-.4-.267-.667-.667-.667s-.666.267-.666.667v.733a4.002 4.002 0 00-3.334 3.934V9.3c-.8.267-1.333 1-1.333 1.867V12.5c0 .4.267.667.667.667h2.066c.334 1.4 1.8 2.266 3.2 1.933a2.82 2.82 0 001.934-1.933h2.133c.4 0 .667-.267.667-.667v-1.333c0-.867-.534-1.6-1.334-1.867zm-4 4.533c-.467 0-.934-.266-1.134-.666h2.333c-.266.4-.733.666-1.2.666z" fill="inherit"/></svg><svg fill="none" viewBox="0 0 13 13" id="plus" xmlns="http://www.w3.org/2000/svg"><path fill="#2EE1CE" d="M.5 5.5h12v2H.5z"/><path fill="#2EE1CE" d="M5.5 12.5V.5h2v12z"/></svg><svg fill="none" viewBox="0 0 21 20" id="purse" xmlns="http://www.w3.org/2000/svg"><path d="M15.694 6.387V2H3.5a2 2 0 00-2 2v2.516m14.194-.129h1.096a2 2 0 012 2V16a2 2 0 01-2 2H3.5a2 2 0 01-2-2V6.387h14.194z" stroke="#1E3147" stroke-width="2"/><circle cx="15.177" cy="12.065" r="1.29" fill="#1E3147"/></svg><svg viewBox="0 0 17 17" id="setting" xmlns="http://www.w3.org/2000/svg"><path d="M14.032 8.967a.7.7 0 010-.867l.867-.933c.2-.2.2-.534.067-.8l-1.334-2.334c-.133-.266-.4-.4-.733-.333l-1.267.267c-.333.066-.666-.134-.733-.467l-.4-1.2c-.133-.267-.4-.467-.667-.467H7.166a.64.64 0 00-.6.467l-.467 1.2c-.067.333-.4.533-.733.467L4.099 3.7c-.267-.067-.533.067-.733.333L2.032 6.367c-.133.2-.066.533.134.733l.866.933c.2.267.2.6 0 .867l-.866.933c-.2.2-.2.534-.067.8l1.333 2.334c.134.266.4.4.734.333l1.266-.267c.334-.066.667.134.734.467l.4 1.2a.64.64 0 00.6.467h2.666a.64.64 0 00.6-.467l.4-1.2c.134-.333.467-.533.734-.467l1.266.267a.67.67 0 00.734-.333l1.333-2.334c.133-.266.133-.533-.067-.8l-.8-.866zM8.5 10.5c-1.133 0-2-.867-2-2s.867-2 2-2 2 .867 2 2-.867 2-2 2z" fill="inherit"/></svg><svg fill="none" viewBox="0 0 20 20" id="square" xmlns="http://www.w3.org/2000/svg"><path d="M6 1v3M1 9h5V7M19 11h-9v2" stroke="#1E3147" stroke-width="2"/><path d="M5.896 19H3a2 2 0 01-2-2V3a2 2 0 012-2h13.856a2 2 0 012 2v14a2 2 0 01-2 2H9.928L10 16" stroke="#1E3147" stroke-width="2"/></svg><svg fill="none" viewBox="0 0 28 27" id="square2" xmlns="http://www.w3.org/2000/svg"><path d="M9.667 19.181a1 1 0 002 0h-2zM5 4.348h4.667v-2H5v2zm5.667 13.333H23v-2H10.667v2zm12.333 0v4.667h2V17.68h-2zm0 4.667H5v2h18v-2zm-18 0v-18H3v18h2zm4.667-18V19.18h2V4.348h-2zm13.333 18v2a2 2 0 002-2h-2zm0-4.667h2a2 2 0 00-2-2v2zM9.667 4.348h2a2 2 0 00-2-2v2zM5 22.348H3a2 2 0 002 2v-2zm0-20a2 2 0 00-2 2h2v-2z" fill="#1E3147"/><path d="M8.166 7.514h2.5M14.834 19.181v-2.5M19.834 19.181v-2.5M8.166 12.514h2.5M8.166 16.681h2.5" stroke="#1E3147" stroke-width="2" stroke-linecap="round"/></svg><svg viewBox="0 0 14 14" id="start" xmlns="http://www.w3.org/2000/svg"><path fill="inherit" d="M1 1h2v13H1z"/><path d="M2 2h11l-2 3.5L13 9H2V2z" fill="inherit"/></svg><svg viewBox="0 0 16 17" id="support" xmlns="http://www.w3.org/2000/svg"><path d="M8 1.833c-3.666 0-6.666 3-6.666 6.667s3 6.667 6.667 6.667c3.666 0 6.666-3 6.666-6.667s-3-6.667-6.666-6.667zm2.467 1.934c1 .533 1.8 1.333 2.334 2.333l-1.934.667c-.266-.467-.666-.8-1.066-1.067l.666-1.933zm-4.933 0L6.201 5.7c-.467.267-.8.667-1.067 1.067L3.201 6.1c.6-1 1.4-1.8 2.333-2.333zm0 9.466c-1-.533-1.8-1.333-2.333-2.333l1.933-.667c.267.467.667.8 1.067 1.067l-.667 1.933zM8.001 10.5c-1.134 0-2-.867-2-2s.866-2 2-2c1.133 0 2 .867 2 2s-.867 2-2 2zm2.466 2.733L9.801 11.3c.466-.267.8-.667 1.066-1.067l1.934.667c-.6 1-1.4 1.8-2.334 2.333z" fill="inherit"/></svg><svg fill="none" viewBox="0 0 32 16" id="triangle" xmlns="http://www.w3.org/2000/svg"><path fill-rule="evenodd" clip-rule="evenodd" d="M16.037 0c.547 8.938 7.246 16 15.43 16H.533c8.184 0 14.883-7.062 15.43-16h.074zM0 15.99c.177.006.355.01.533.01H0v-.01zm32 0c-.177.006-.355.01-.533.01H32v-.01z" fill="#fff"/></svg><svg viewBox="0 0 36 36" id="user" xmlns="http://www.w3.org/2000/svg"><rect width="36" height="36" rx="4" fill="#9FCCFA"/><path d="M20.472 18.473a4.001 4.001 0 10-4.946 0 6.666 6.666 0 00-4.147 5.454.671.671 0 001.333.146 5.333 5.333 0 0110.6 0 .666.666 0 00.667.594h.073a.667.667 0 00.587-.734 6.667 6.667 0 00-4.167-5.46v0zM18 18a2.667 2.667 0 110-5.333 2.667 2.667 0 010 5.333z" fill="#fff" stroke="#fff" opacity=".7"/></svg><svg viewBox="0 0 16 17" id="user-small" xmlns="http://www.w3.org/2000/svg"><path d="M12.667 1.833H3.334c-1.133 0-2 .867-2 2v9.334c0 1.133.867 2 2 2h9.333c1.134 0 2-.867 2-2V3.833c0-1.133-.866-2-2-2zM8.001 4.5c1 0 1.866.8 1.866 1.867 0 1.066-.8 1.866-1.866 1.866-1.067 0-1.867-.8-1.867-1.866 0-1.067.867-1.867 1.867-1.867zm3.066 7.933c-.066 0-.133.067-.266.067H5.134a.668.668 0 01-.667-.667c0-.066 0-.133.067-.266.733-1.934 2.867-2.867 4.8-2.134 1 .4 1.733 1.134 2.133 2.134.134.4-.066.733-.4.866z" fill="inherit"/></svg><svg viewBox="0 0 16 17" id="wallet" xmlns="http://www.w3.org/2000/svg"><path d="M12.667 5.167h-.666V4.5c0-1.133-.867-2-2-2H3.334c-1.133 0-2 .867-2 2v8c0 1.133.867 2 2 2h9.333c1.134 0 2-.867 2-2V7.167c0-1.134-.866-2-2-2zm-2 0H3.334c-.4 0-.667-.267-.667-.667s.267-.667.667-.667h6.667c.4 0 .666.267.666.667v.667zm2.667 6h-.667c-.733 0-1.333-.6-1.333-1.334 0-.733.6-1.333 1.333-1.333h.667v2.667z" fill="inherit"/></svg></svg>