<?xml version="1.0" encoding="utf-8"?><svg viewBox="0 0 36 36" xmlns="http://www.w3.org/2000/svg" xmlns:xlink="http://www.w3.org/1999/xlink"><style>:root>svg{display:none}:root>svg:target{display:block}</style><svg fill="none" viewBox="0 0 22 22" id="bookmarks" xmlns="http://www.w3.org/2000/svg"><path d="M14.667 1.833H7.334a2.75 2.75 0 00-2.75 2.75V19.25a.916.916 0 001.375.797l5.042-2.915 5.041 2.915c.14.08.298.12.459.12.16 0 .318-.04.458-.12a.916.916 0 00.458-.797V4.583a2.75 2.75 0 00-2.75-2.75zm.917 15.831l-4.125-2.383a.916.916 0 00-.917 0l-4.125 2.383V4.584a.917.917 0 01.917-.917h7.333a.917.917 0 01.917.916v13.081z" fill="#D3EAFF"/></svg><svg fill="none" viewBox="0 0 22 24" id="cost" xmlns="http://www.w3.org/2000/svg"><path d="M17 22.002v-19a1 1 0 00-1.5-.87l-3 1.72-3-1.72a1 1 0 00-1 0l-3 1.72-3-1.72a1 1 0 00-1.5.87v16a3 3 0 003 3h14a3 3 0 003-3v-6a1 1 0 00-1-1h-2.5" stroke="#1E3147" stroke-width="2"/><path d="M6 11.998h3.75A2.25 2.25 0 0012 9.748v0a2.25 2.25 0 00-2.25-2.25H6v10.5M4 14.998h5" stroke="#1E3147" stroke-width="2"/></svg><svg fill="none" viewBox="0 0 19 20" id="down" xmlns="http://www.w3.org/2000/svg"><path d="M13.383 7.846a.744.744 0 00-1.076 0L9.614 10.54 6.922 7.846a.744.744 0 00-1.077 0 .744.744 0 000 1.077l3.23 3.23c.155.155.308.232.54.232.23 0 .384-.077.538-.231l3.23-3.23a.744.744 0 000-1.078z" fill="#fff"/></svg><svg fill="none" viewBox="0 0 14 14" id="finish" xmlns="http://www.w3.org/2000/svg"><path fill="#fff" d="M0 1h2v13H0zM12 1h2v13h-2z"/><path d="M0 2h14v7H0V2z" fill="#fff"/></svg><svg fill="none" viewBox="0 0 16 16" id="map" xmlns="http://www.w3.org/2000/svg"><path fill-rule="evenodd" clip-rule="evenodd" d="M12 5.333c0-2.206-1.793-4-4-4-2.206 0-4 1.794-4 4 0 3 4 7.334 4 7.334s4-4.334 4-7.334zm-5.333 0C6.667 4.6 7.267 4 8.001 4a1.333 1.333 0 11-1.333 1.333zm-3.333 9.334v-1.334h9.333v1.334H3.334z" fill="#fff"/></svg><svg fill="none" viewBox="0 0 24 24" id="more" xmlns="http://www.w3.org/2000/svg"><path d="M12 10c-1.1 0-2 .9-2 2s.9 2 2 2 2-.9 2-2-.9-2-2-2zm-9 0c-1.1 0-2 .9-2 2s.9 2 2 2 2-.9 2-2-.9-2-2-2zm18 0c-1.1 0-2 .9-2 2s.9 2 2 2 2-.9 2-2-.9-2-2-2z" fill="#D3EAFF"/></svg><svg fill="none" viewBox="0 0 13 13" id="plus" xmlns="http://www.w3.org/2000/svg"><path fill="#2EE1CE" d="M.5 5.5h12v2H.5z"/><path fill="#2EE1CE" d="M5.5 12.5V.5h2v12z"/></svg><svg fill="none" viewBox="0 0 21 20" id="purse" xmlns="http://www.w3.org/2000/svg"><path d="M15.694 6.387V2H3.5a2 2 0 00-2 2v2.516m14.194-.129h1.096a2 2 0 012 2V16a2 2 0 01-2 2H3.5a2 2 0 01-2-2V6.387h14.194z" stroke="#1E3147" stroke-width="2"/><circle cx="15.177" cy="12.065" r="1.29" fill="#1E3147"/></svg><svg fill="none" viewBox="0 0 20 20" id="square" xmlns="http://www.w3.org/2000/svg"><path d="M6 1v3M1 9h5V7M19 11h-9v2" stroke="#1E3147" stroke-width="2"/><path d="M5.896 19H3a2 2 0 01-2-2V3a2 2 0 012-2h13.856a2 2 0 012 2v14a2 2 0 01-2 2H9.928L10 16" stroke="#1E3147" stroke-width="2"/></svg><svg fill="none" viewBox="0 0 14 14" id="start" xmlns="http://www.w3.org/2000/svg"><path fill="#fff" d="M1 1h2v13H1z"/><path d="M2 2h11l-2 3.5L13 9H2V2z" fill="#fff"/></svg><svg viewBox="0 0 36 36" id="user" xmlns="http://www.w3.org/2000/svg"><rect width="36" height="36" rx="4" fill="#9FCCFA"/><path d="M20.472 18.473a4.001 4.001 0 10-4.946 0 6.666 6.666 0 00-4.147 5.454.671.671 0 001.333.146 5.333 5.333 0 0110.6 0 .666.666 0 00.667.594h.073a.667.667 0 00.587-.734 6.667 6.667 0 00-4.167-5.46v0zM18 18a2.667 2.667 0 110-5.333 2.667 2.667 0 010 5.333z" fill="#fff" stroke="#fff" opacity=".7"/></svg></svg>