<?xml version="1.0" encoding="utf-8"?><svg viewBox="0 0 360 102" xmlns="http://www.w3.org/2000/svg" xmlns:xlink="http://www.w3.org/1999/xlink"><style>:root>svg{display:none}:root>svg:target{display:block}</style><svg fill="none" viewBox="0 0 17 17" id="add" xmlns="http://www.w3.org/2000/svg"><path d="M13.167 1.833H3.834c-1.133 0-2 .867-2 2v9.334c0 1.133.867 2 2 2h9.333c1.134 0 2-.867 2-2V3.833c0-1.133-.866-2-2-2zm-2 7.334h-2v2c0 .4-.266.666-.666.666s-.667-.266-.667-.666v-2h-2c-.4 0-.667-.267-.667-.667s.267-.667.667-.667h2v-2c0-.4.267-.666.667-.666s.666.266.666.666v2h2c.4 0 .667.267.667.667s-.267.667-.667.667z" fill="#788CA1"/></svg><svg viewBox="0 0 16 17" id="archive" xmlns="http://www.w3.org/2000/svg"><path d="M12.667 3.167H3.334c-1.133 0-2 .866-2 2v2c0 .4.267.666.667.666h.666v5.334c0 1.133.867 2 2 2h6.667c1.133 0 2-.867 2-2V7.833h.667c.4 0 .666-.266.666-.666v-2c0-1.134-.866-2-2-2zM9.334 10.5H6.667c-.4 0-.666-.267-.666-.667s.266-.666.666-.666h2.667c.4 0 .667.266.667.666s-.267.667-.667.667zm4-4H2.667V5.167c0-.4.267-.667.667-.667h9.333c.4 0 .667.267.667.667V6.5z" fill="inherit"/></svg><svg fill="none" viewBox="0 0 10 6" id="arrow" xmlns="http://www.w3.org/2000/svg"><path d="M1 5l3.646-3.646a.5.5 0 01.708 0L9 5" stroke="inherit" stroke-width="2" stroke-linecap="round"/></svg><svg fill="none" viewBox="0 0 48 48" id="author-no-image" xmlns="http://www.w3.org/2000/svg"><g filter="url(#adfilter0_d)"><rect x="4" y="2" width="40" height="40" rx="16" fill="#DFE8FF"/><path d="M25.083 22.183a4.1 4.1 0 001.416-3.1 4.167 4.167 0 10-8.333 0 4.099 4.099 0 001.417 3.1 6.666 6.666 0 00-3.917 6.067.833.833 0 001.667 0 5 5 0 0110 0 .833.833 0 001.666 0 6.666 6.666 0 00-3.916-6.067zm-2.75-.6a2.5 2.5 0 110-5 2.5 2.5 0 010 5zm9.091.417l.667-.658a.838.838 0 00-1.183-1.184l-.659.667-.658-.667a.836.836 0 10-1.183 1.184l.666.658-.666.658a.833.833 0 000 1.184.833.833 0 001.183 0l.658-.667.659.667a.833.833 0 001.183 0 .833.833 0 000-1.184L31.424 22z" fill="#788CA1"/><rect x="5" y="3" width="38" height="38" rx="15" stroke="#fff" stroke-width="2"/></g><defs><filter id="adfilter0_d" x="0" y="0" width="48" height="48" filterUnits="userSpaceOnUse" color-interpolation-filters="sRGB"><feFlood flood-opacity="0" result="BackgroundImageFix"/><feColorMatrix in="SourceAlpha" values="0 0 0 0 0 0 0 0 0 0 0 0 0 0 0 0 0 0 127 0"/><feOffset dy="2"/><feGaussianBlur stdDeviation="2"/><feColorMatrix values="0 0 0 0 0 0 0 0 0 0 0 0 0 0 0 0 0 0 0.16 0"/><feBlend in2="BackgroundImageFix" result="effect1_dropShadow"/><feBlend in="SourceGraphic" in2="effect1_dropShadow" result="shape"/></filter></defs></svg><svg fill="none" viewBox="0 0 22 22" id="bookmarks" xmlns="http://www.w3.org/2000/svg"><path d="M14.667 1.833H7.334a2.75 2.75 0 00-2.75 2.75V19.25a.916.916 0 001.375.797l5.042-2.915 5.041 2.915c.14.08.298.12.459.12.16 0 .318-.04.458-.12a.916.916 0 00.458-.797V4.583a2.75 2.75 0 00-2.75-2.75zm.917 15.831l-4.125-2.383a.916.916 0 00-.917 0l-4.125 2.383V4.584a.917.917 0 01.917-.917h7.333a.917.917 0 01.917.916v13.081z" fill="#D3EAFF"/></svg><svg viewBox="0 0 14 21" id="bookmarks2" xmlns="http://www.w3.org/2000/svg"><path d="M11 0H3a3 3 0 00-3 3v16a1 1 0 001.5.87L7 16.69l5.5 3.18a1 1 0 00.5.13 1 1 0 00.5-.13A1 1 0 0014 19V3a3 3 0 00-3-3z" fill="inherit"/></svg><svg viewBox="0 0 32 32" id="calendar" xmlns="http://www.w3.org/2000/svg"><path d="M25.333 5.333h-1.334V4c0-.8-.533-1.333-1.333-1.333-.8 0-1.333.533-1.333 1.333v1.333H10.666V4c0-.8-.533-1.333-1.333-1.333-.8 0-1.334.533-1.334 1.333v1.333H6.666c-2.267 0-4 1.734-4 4v1.334h26.667V9.333c0-2.266-1.734-4-4-4zm-22.667 20c0 2.267 1.733 4 4 4h18.667c2.266 0 4-1.733 4-4v-12H2.666v12zm20-9.333c.8 0 1.333.533 1.333 1.333 0 .8-.533 1.334-1.333 1.334-.8 0-1.333-.534-1.333-1.334S21.866 16 22.666 16zm0 5.333c.8 0 1.333.534 1.333 1.334S23.466 24 22.666 24c-.8 0-1.333-.533-1.333-1.333 0-.8.533-1.334 1.333-1.334zM15.999 16c.8 0 1.334.533 1.334 1.333 0 .8-.534 1.334-1.334 1.334s-1.333-.534-1.333-1.334S15.199 16 15.999 16zm0 5.333c.8 0 1.334.534 1.334 1.334S16.799 24 15.999 24s-1.333-.533-1.333-1.333c0-.8.533-1.334 1.333-1.334zM9.333 16c.8 0 1.333.533 1.333 1.333 0 .8-.533 1.334-1.333 1.334-.8 0-1.334-.534-1.334-1.334S8.533 16 9.333 16zm0 5.333c.8 0 1.333.534 1.333 1.334S10.133 24 9.333 24c-.8 0-1.334-.533-1.334-1.333 0-.8.534-1.334 1.334-1.334z" fill="inherit"/></svg><svg fill="none" viewBox="0 0 16 17" id="change" xmlns="http://www.w3.org/2000/svg"><g clip-path="url(#ahclip0)" fill="#788CA1"><path d="M8 8.167c1.467 0 2.667-1.2 2.667-2.667 0-1.467-1.2-2.667-2.667-2.667A2.675 2.675 0 005.334 5.5c0 1.467 1.2 2.667 2.666 2.667zm7.334-.667H12c-.4 0-.666.267-.666.667s.266.666.666.666h3.334c.4 0 .666-.266.666-.666s-.267-.667-.666-.667zM8 9.167c-2.466 0-4.6 1.8-4.933 4.266-.067.334.2.734.6.734h8.6c.4 0 .667-.267.667-.667v-.067C12.6 10.967 10.466 9.167 8 9.167z"/><path d="M15.603 7.233L14.199 5.63c-.288-.278-.665-.27-.942.018-.277.289-.27.666.018.943l1.404 1.604c.288.278.665.27.942-.018.277-.289.27-.666-.018-.943z"/><path d="M13.274 9.9l1.404-1.605c.288-.277.665-.27.942.019.277.288.27.665-.018.943l-1.404 1.604c-.288.277-.665.27-.942-.019-.277-.288-.27-.665.018-.942z"/></g><defs><clipPath id="ahclip0"><path fill="#fff" transform="translate(0 .5)" d="M0 0h16v16H0z"/></clipPath></defs></svg><svg viewBox="0 0 16 17" id="close" xmlns="http://www.w3.org/2000/svg"><path d="M12.667 1.833H3.334c-1.133 0-2 .867-2 2v9.334c0 1.133.867 2 2 2h9.333c1.134 0 2-.867 2-2V3.833c0-1.133-.866-2-2-2zm-2.2 8.2a.644.644 0 010 .934.645.645 0 01-.933 0L8.001 9.433l-1.534 1.534a.645.645 0 01-.933 0 .645.645 0 010-.934L7.067 8.5 5.534 6.967a.644.644 0 010-.934.644.644 0 01.933 0l1.534 1.534 1.533-1.534a.644.644 0 01.933 0 .644.644 0 010 .934L8.934 8.5l1.533 1.533z" fill="inherit"/></svg><svg fill="none" viewBox="0 0 13 14" id="comments" xmlns="http://www.w3.org/2000/svg"><rect x="1" width="11" height="13" rx="2" fill="#788CA1"/><path fill="#fff" d="M4 3h5v1H4zM4 6h5v1H4zM4 9h5v1H4z"/></svg><svg viewBox="0 0 16 17" id="copy" xmlns="http://www.w3.org/2000/svg"><path d="M10.667 5.833H13.6l-3.6-3.6v2.934c0 .4.267.666.667.666zm0 1.334c-1.134 0-2-.867-2-2V1.833h-2c-1.134 0-2 .867-2 2V4.5H4c-1.133 0-2 .867-2 2v6.667c0 1.133.867 2 2 2h5.333c1.134 0 2-.867 2-2V12.5H12c1.133 0 2-.867 2-2V7.167h-3.333zm-.667 6c0 .4-.267.666-.667.666H4c-.4 0-.667-.266-.667-.666V6.5c0-.4.267-.667.667-.667h.667V10.5c0 1.133.866 2 2 2H10v.667z" fill="inherit"/></svg><svg fill="none" viewBox="0 0 22 24" id="cost" xmlns="http://www.w3.org/2000/svg"><path d="M17 22.002v-19a1 1 0 00-1.5-.87l-3 1.72-3-1.72a1 1 0 00-1 0l-3 1.72-3-1.72a1 1 0 00-1.5.87v16a3 3 0 003 3h14a3 3 0 003-3v-6a1 1 0 00-1-1h-2.5" stroke="#1E3147" stroke-width="2"/><path d="M6 11.998h3.75A2.25 2.25 0 0012 9.748v0a2.25 2.25 0 00-2.25-2.25H6v10.5M4 14.998h5" stroke="#1E3147" stroke-width="2"/></svg><svg fill="none" viewBox="0 0 360 102" id="decorate" xmlns="http://www.w3.org/2000/svg"><path opacity=".15" d="M-28.54 22.515C-66.743 88.446-88.098 96.77-94 92.69V129h477V80.858c-23.609 22.847-67.07 25.295-89.605 13.055-22.536-12.24-35.95-20.807-65.46-10.608-23.609 8.16-39.546 11.12-65.46 9.384C104.666 88.817 99.697 58.01 52.48 16.804c-37.773-32.966-69.752-9.928-81.02 5.711z" fill="url(#ampaint0_linear)"/><defs><linearGradient id="ampaint0_linear" x1="257.351" y1="257.116" x2="65.389" y2="-168.458" gradientUnits="userSpaceOnUse"><stop stop-color="#ACC2F8"/><stop offset=".877" stop-color="#2EE1CE"/></linearGradient></defs></svg><svg fill="none" viewBox="0 0 19 20" id="down" xmlns="http://www.w3.org/2000/svg"><path d="M13.383 7.846a.744.744 0 00-1.076 0L9.614 10.54 6.922 7.846a.744.744 0 00-1.077 0 .744.744 0 000 1.077l3.23 3.23c.155.155.308.232.54.232.23 0 .384-.077.538-.231l3.23-3.23a.744.744 0 000-1.078z" fill="#fff"/></svg><svg viewBox="0 0 16 17" id="edit" xmlns="http://www.w3.org/2000/svg"><path d="M13.134 5.767a.644.644 0 000-.934l-2.8-2.8a.644.644 0 00-.933 0L7.534 3.9l3.8 3.8 1.8-1.933zm-9.8 6.733h2.8c.2 0 .333-.067.467-.2l3.666-3.667-3.733-3.8L2.867 8.5a.757.757 0 00-.2.533v2.8c0 .4.267.667.667.667zm10.667 1.333H2c-.4 0-.667.267-.667.667s.267.667.667.667h12c.4 0 .666-.267.666-.667s-.266-.667-.666-.667z" fill="inherit"/></svg><svg viewBox="0 0 16 17" id="exit" xmlns="http://www.w3.org/2000/svg"><path d="M11.333 1.833H4.666c-1.133 0-2 .867-2 2v4h5.733L6.866 6.3a.644.644 0 010-.933.644.644 0 01.933 0l2.667 2.666a.644.644 0 010 .934l-2.667 2.666a.644.644 0 01-.933 0 .644.644 0 010-.933l1.533-1.533H2.666v4c0 1.133.867 2 2 2h6.667c1.133 0 2-.867 2-2V3.833c0-1.133-.867-2-2-2z" fill="inherit"/></svg><svg fill="none" viewBox="0 0 28 28" id="files" xmlns="http://www.w3.org/2000/svg"><path d="M8.166 7.18h-.5a2 2 0 00-2 2v12.668a2 2 0 002 2h9.333a2 2 0 002-2v-1.334" stroke="#1E3147" stroke-width="2" stroke-linecap="round"/><path d="M9 18.514V5.848a2 2 0 012-2h8.5a2 2 0 012 2v12.666a2 2 0 01-2 2H11a2 2 0 01-2-2zM11.5 15.514H19M11.5 11.348H19M11.5 7.18H19" stroke="#1E3147" stroke-width="2"/></svg><svg viewBox="0 0 14 14" id="finish" xmlns="http://www.w3.org/2000/svg"><path fill="inherit" d="M0 1h2v13H0zM12 1h2v13h-2z"/><path d="M0 2h14v7H0V2z" fill="inherit"/></svg><svg viewBox="0 0 32 32" id="home" xmlns="http://www.w3.org/2000/svg"><path d="M28.933 13.333l-12-10.666c-.534-.4-1.2-.4-1.734 0l-12 10.666c-.533.534-.666 1.334-.133 1.867.267.267.667.4.933.4h1.334v12c0 .8.533 1.333 1.333 1.333h18.667c.8 0 1.333-.533 1.333-1.333v-12H28c.8 0 1.334-.533 1.334-1.333 0-.4-.134-.667-.4-.934zm-8.934 12.934h-8v-4c0-2.267 1.734-4 4-4 2.267 0 4 1.733 4 4v4z" fill="inherit"/></svg><svg fill="none" viewBox="0 0 16 17" id="look" xmlns="http://www.w3.org/2000/svg"><path d="M7.983 6.834c-1.247 0-2.2.954-2.2 2.2 0 1.248.953 2.201 2.2 2.201 1.247 0 2.2-.953 2.2-2.2 0-1.247-.953-2.2-2.2-2.2zm7.261 1.907c-1.467-3.447-4.254-5.574-7.261-5.574-3.008 0-5.795 2.127-7.262 5.574a.81.81 0 000 .587c1.467 3.447 4.254 5.575 7.262 5.575 3.007 0 5.794-2.128 7.261-5.575a.81.81 0 000-.587zm-7.261 3.961a3.632 3.632 0 01-3.668-3.667 3.632 3.632 0 013.668-3.668 3.632 3.632 0 013.667 3.668 3.632 3.632 0 01-3.667 3.667z" fill="#788CA1"/></svg><svg fill="none" viewBox="0 0 24 24" id="mail" xmlns="http://www.w3.org/2000/svg"><path d="M19 4H5a3 3 0 00-3 3v10a3 3 0 003 3h14a3 3 0 003-3V7a3 3 0 00-3-3zm-.41 2l-5.88 5.88a1.002 1.002 0 01-1.42 0L5.41 6h13.18zM20 17a1 1 0 01-1 1H5a1 1 0 01-1-1V7.41l5.88 5.88a3 3 0 004.24 0L20 7.41V17z" fill="#fff"/></svg><svg fill="none" viewBox="0 0 16 16" id="map" xmlns="http://www.w3.org/2000/svg"><path fill-rule="evenodd" clip-rule="evenodd" d="M12 5.333c0-2.206-1.793-4-4-4-2.206 0-4 1.794-4 4 0 3 4 7.334 4 7.334s4-4.334 4-7.334zm-5.333 0C6.667 4.6 7.267 4 8.001 4a1.333 1.333 0 11-1.333 1.333zm-3.333 9.334v-1.334h9.333v1.334H3.334z" fill="#fff"/></svg><svg viewBox="0 0 32 32" id="members" xmlns="http://www.w3.org/2000/svg"><path d="M11.332 15.333c2.934 0 5.334-2.4 5.334-5.333 0-2.933-2.4-5.333-5.334-5.333C8.4 4.667 6 7.067 6 10c0 2.933 2.4 5.333 5.333 5.333zm6-1.2c2.267 1.867 5.6 1.467 7.467-.8 1.867-2.266 1.467-5.6-.8-7.466-.933-.8-2.133-1.2-3.333-1.2-1.2 0-2.4.4-3.334 1.2 2.267 1.866 2.667 5.066.8 7.466-.133.267-.533.534-.8.8zm13.2 11.734c-.8-4.934-4.933-8.534-9.866-8.534-1.2 0-2.267.134-3.334.534 3.467 1.2 6 4.266 6.534 7.866.133.667-.4 1.467-1.2 1.467h-.134H29.2c.8 0 1.333-.533 1.333-1.333 0 0 0 .133 0 0zm-19.2-8.534c-4.933 0-9.2 3.6-9.866 8.534-.134.666.4 1.466 1.2 1.466h17.2c.8 0 1.333-.533 1.333-1.333v-.133c-.667-4.934-4.933-8.534-9.867-8.534z" fill="inherit"/></svg><svg fill="none" viewBox="0 0 24 24" id="mobile-close" xmlns="http://www.w3.org/2000/svg"><path d="M13.41 12l6.3-6.29a1.004 1.004 0 10-1.42-1.42L12 10.59l-6.29-6.3a1.004 1.004 0 00-1.42 1.42l6.3 6.29-6.3 6.29a1 1 0 000 1.42.998.998 0 001.42 0l6.29-6.3 6.29 6.3a.998.998 0 001.42 0 .997.997 0 00.219-1.095.998.998 0 00-.22-.325L13.41 12z" fill="#788CA1"/></svg><svg viewBox="0 0 24 24" id="more" xmlns="http://www.w3.org/2000/svg"><path d="M12 10c-1.1 0-2 .9-2 2s.9 2 2 2 2-.9 2-2-.9-2-2-2zm-9 0c-1.1 0-2 .9-2 2s.9 2 2 2 2-.9 2-2-.9-2-2-2zm18 0c-1.1 0-2 .9-2 2s.9 2 2 2 2-.9 2-2-.9-2-2-2z" fill="inherit"/></svg><svg fill="none" viewBox="0 0 25 24" id="new" xmlns="http://www.w3.org/2000/svg"><rect x="1" y=".5" width="23" height="23" rx="6.5" fill="#DFE8FF" stroke="#DFE8FF"/><path d="M6.5 12h12M12.5 18V6" stroke="#788CA1" stroke-width="2"/></svg><svg viewBox="0 0 16 17" id="notifications" xmlns="http://www.w3.org/2000/svg"><path d="M12 9.3V7.167c0-1.934-1.4-3.6-3.334-3.934V2.5c0-.4-.267-.667-.667-.667s-.666.267-.666.667v.733a4.002 4.002 0 00-3.334 3.934V9.3c-.8.267-1.333 1-1.333 1.867V12.5c0 .4.267.667.667.667h2.066c.334 1.4 1.8 2.266 3.2 1.933a2.82 2.82 0 001.934-1.933h2.133c.4 0 .667-.267.667-.667v-1.333c0-.867-.534-1.6-1.334-1.867zm-4 4.533c-.467 0-.934-.266-1.134-.666h2.333c-.266.4-.733.666-1.2.666z" fill="inherit"/></svg><svg viewBox="0 0 32 32" id="notifications2" xmlns="http://www.w3.org/2000/svg"><path d="M24 17.6v-4.267c0-3.866-2.8-7.2-6.666-7.866V4c0-.8-.533-1.333-1.333-1.333-.8 0-1.334.533-1.334 1.333v1.467c-3.866.666-6.666 4-6.666 7.866V17.6c-1.6.533-2.667 2-2.667 3.733V24c0 .8.533 1.333 1.333 1.333h4.134c.666 2.8 3.6 4.534 6.4 3.867a5.64 5.64 0 003.866-3.867h4.267c.8 0 1.333-.533 1.333-1.333v-2.667c0-1.733-1.066-3.2-2.666-3.733zm-8 9.067c-.933 0-1.866-.534-2.266-1.334h4.667c-.534.8-1.467 1.334-2.4 1.334z" fill="inherit"/></svg><svg fill="none" viewBox="0 0 13 13" id="plus" xmlns="http://www.w3.org/2000/svg"><path fill="#2EE1CE" d="M.5 5.5h12v2H.5z"/><path fill="#2EE1CE" d="M5.5 12.5V.5h2v12z"/></svg><svg viewBox="0 0 32 32" id="projects" xmlns="http://www.w3.org/2000/svg"><path d="M22.666 20.667v2c0 .8-.533 1.333-1.333 1.333-.8 0-1.334-.533-1.334-1.333v-2h-8v2c0 .8-.533 1.333-1.333 1.333-.8 0-1.333-.533-1.333-1.333v-2H6.666c-.933 0-1.867-.267-2.667-.667v5.333c0 2.267 1.734 4 4 4h16c2.267 0 4-1.733 4-4V20c-.8.4-1.733.667-2.666.667h-2.667zM27.999 8h-5.333V6.667c0-2.267-1.733-4-4-4h-5.333c-2.267 0-4 1.733-4 4V8H3.999c-.8 0-1.333.533-1.333 1.333v5.334c0 2.266 1.733 4 4 4h18.667c2.266 0 4-1.734 4-4V9.333c0-.8-.534-1.333-1.334-1.333zm-8 0h-8V6.667c0-.8.534-1.334 1.334-1.334h5.333c.8 0 1.333.534 1.333 1.334V8z" fill="inherit"/></svg><svg fill="none" viewBox="0 0 21 20" id="purse" xmlns="http://www.w3.org/2000/svg"><path d="M15.694 6.387V2H3.5a2 2 0 00-2 2v2.516m14.194-.129h1.096a2 2 0 012 2V16a2 2 0 01-2 2H3.5a2 2 0 01-2-2V6.387h14.194z" stroke="#1E3147" stroke-width="2"/><circle cx="15.177" cy="12.065" r="1.29" fill="#1E3147"/></svg><svg fill="none" viewBox="0 0 24 25" id="question" xmlns="http://www.w3.org/2000/svg"><path d="M15.333 9.848a3.5 3.5 0 00-6.531-1.75 1 1 0 001.732 1 1.503 1.503 0 012.36-.311 1.5 1.5 0 01-1.061 2.56h-.002a.947.947 0 00-.19.04c-.067.006-.134.02-.198.04a.977.977 0 00-.156.105 1.005 1.005 0 00-.162.11 1.007 1.007 0 00-.117.173.984.984 0 00-.097.145 1.02 1.02 0 00-.043.211.953.953 0 00-.035.177v1l.002.011.001.491a1 1 0 001 .998h.003a1 1 0 00.997-1.003l-.001-.661a3.493 3.493 0 002.498-3.336zm-4.203 6.79a1 1 0 101.41 1.42 1.015 1.015 0 000-1.42 1.034 1.034 0 00-1.41 0z" fill="#788CA1"/></svg><svg fill="none" viewBox="0 0 16 16" id="search" xmlns="http://www.w3.org/2000/svg"><path d="M14.474 13.527l-2.473-2.454a6 6 0 10-.927.927l2.454 2.453a.668.668 0 00.946 0 .666.666 0 000-.926zM7.334 12a4.667 4.667 0 110-9.333 4.667 4.667 0 010 9.333z" fill="#788CA1"/></svg><svg viewBox="0 0 17 17" id="setting" xmlns="http://www.w3.org/2000/svg"><path d="M14.032 8.967a.7.7 0 010-.867l.867-.933c.2-.2.2-.534.067-.8l-1.334-2.334c-.133-.266-.4-.4-.733-.333l-1.267.267c-.333.066-.666-.134-.733-.467l-.4-1.2c-.133-.267-.4-.467-.667-.467H7.166a.64.64 0 00-.6.467l-.467 1.2c-.067.333-.4.533-.733.467L4.099 3.7c-.267-.067-.533.067-.733.333L2.032 6.367c-.133.2-.066.533.134.733l.866.933c.2.267.2.6 0 .867l-.866.933c-.2.2-.2.534-.067.8l1.333 2.334c.134.266.4.4.734.333l1.266-.267c.334-.066.667.134.734.467l.4 1.2a.64.64 0 00.6.467h2.666a.64.64 0 00.6-.467l.4-1.2c.134-.333.467-.533.734-.467l1.266.267a.67.67 0 00.734-.333l1.333-2.334c.133-.266.133-.533-.067-.8l-.8-.866zM8.5 10.5c-1.133 0-2-.867-2-2s.867-2 2-2 2 .867 2 2-.867 2-2 2z" fill="inherit"/></svg><svg fill="none" viewBox="0 0 32 32" id="settings" xmlns="http://www.w3.org/2000/svg"><path d="M27.067 16.933c-.4-.533-.4-1.2 0-1.733l1.733-1.867c.4-.4.4-1.066.133-1.6l-2.666-4.666c-.267-.534-.8-.8-1.467-.667l-2.534.533C21.6 7.067 20.934 6.667 20.8 6L20 3.6c-.267-.533-.8-.933-1.334-.933h-5.333c-.533 0-1.066.4-1.2.933L11.2 6c-.133.667-.8 1.067-1.467.933L7.2 6.4c-.534-.133-1.067.133-1.467.667l-2.667 4.666c-.266.4-.133 1.067.267 1.467l1.733 1.867c.4.533.4 1.2 0 1.733l-1.733 1.867c-.4.4-.4 1.066-.133 1.6l2.666 4.666c.267.534.8.8 1.467.667l2.533-.533c.667-.134 1.334.266 1.467.933l.8 2.4c.134.533.667.933 1.2.933h5.333c.534 0 1.067-.4 1.2-.933l.8-2.4c.267-.667.934-1.067 1.467-.933l2.534.533c.533.133 1.2-.133 1.466-.667l2.667-4.666c.267-.534.267-1.067-.134-1.6l-1.6-1.734zM16 20c-2.267 0-4-1.733-4-4s1.733-4 4-4 4 1.733 4 4-1.733 4-4 4z" fill="#99A3C5"/></svg><svg fill="none" viewBox="0 0 20 20" id="square" xmlns="http://www.w3.org/2000/svg"><path d="M6 1v3M1 9h5V7M19 11h-9v2" stroke="#1E3147" stroke-width="2"/><path d="M5.896 19H3a2 2 0 01-2-2V3a2 2 0 012-2h13.856a2 2 0 012 2v14a2 2 0 01-2 2H9.928L10 16" stroke="#1E3147" stroke-width="2"/></svg><svg fill="none" viewBox="0 0 28 27" id="square2" xmlns="http://www.w3.org/2000/svg"><path d="M9.667 19.181a1 1 0 002 0h-2zM5 4.348h4.667v-2H5v2zm5.667 13.333H23v-2H10.667v2zm12.333 0v4.667h2V17.68h-2zm0 4.667H5v2h18v-2zm-18 0v-18H3v18h2zm4.667-18V19.18h2V4.348h-2zm13.333 18v2a2 2 0 002-2h-2zm0-4.667h2a2 2 0 00-2-2v2zM9.667 4.348h2a2 2 0 00-2-2v2zM5 22.348H3a2 2 0 002 2v-2zm0-20a2 2 0 00-2 2h2v-2z" fill="#1E3147"/><path d="M8.166 7.514h2.5M14.834 19.181v-2.5M19.834 19.181v-2.5M8.166 12.514h2.5M8.166 16.681h2.5" stroke="#1E3147" stroke-width="2" stroke-linecap="round"/></svg><svg viewBox="0 0 14 14" id="start" xmlns="http://www.w3.org/2000/svg"><path fill="inherit" d="M1 1h2v13H1z"/><path d="M2 2h11l-2 3.5L13 9H2V2z" fill="inherit"/></svg><svg viewBox="0 0 16 17" id="support" xmlns="http://www.w3.org/2000/svg"><path d="M8 1.833c-3.666 0-6.666 3-6.666 6.667s3 6.667 6.667 6.667c3.666 0 6.666-3 6.666-6.667s-3-6.667-6.666-6.667zm2.467 1.934c1 .533 1.8 1.333 2.334 2.333l-1.934.667c-.266-.467-.666-.8-1.066-1.067l.666-1.933zm-4.933 0L6.201 5.7c-.467.267-.8.667-1.067 1.067L3.201 6.1c.6-1 1.4-1.8 2.333-2.333zm0 9.466c-1-.533-1.8-1.333-2.333-2.333l1.933-.667c.267.467.667.8 1.067 1.067l-.667 1.933zM8.001 10.5c-1.134 0-2-.867-2-2s.866-2 2-2c1.133 0 2 .867 2 2s-.867 2-2 2zm2.466 2.733L9.801 11.3c.466-.267.8-.667 1.066-1.067l1.934.667c-.6 1-1.4 1.8-2.334 2.333z" fill="inherit"/></svg><svg fill="none" viewBox="0 0 40 40" id="support2" xmlns="http://www.w3.org/2000/svg"><path fill-rule="evenodd" clip-rule="evenodd" d="M33.633 19.303c-.029-8.741-7.145-15.913-15.886-15.97-8.853-.055-16.08 7.117-16.08 15.998 0 8.825 7.143 15.969 15.968 15.969 3.614 0 6.976-1.205 9.638-3.222.7.224 1.4.364 2.13.505.812.111 1.652.196 2.465.168.784-.028 1.596-.112 2.325-.337.42-.112.84-.252 1.26-.42.134-.05.258-.11.378-.169.081-.039.16-.077.239-.111.112-.056.224-.168.028-.252-.588-.252-1.149-.532-1.653-.897a8.282 8.282 0 01-1.373-1.204 9.76 9.76 0 01-1.457-2.326 15.664 15.664 0 002.018-7.732z" fill="#33A1FB"/><path fill-rule="evenodd" clip-rule="evenodd" d="M15.957 26.89c0 .897.755 1.654 1.653 1.654.98 0 1.68-.757 1.68-1.681-.026-.925-.755-1.653-1.68-1.625-.898 0-1.653.728-1.653 1.653zm4.391-7.182l.176-.157.456-.413c1.27-1.131 2.711-2.421 2.737-4.266 0-1.289-.644-2.55-1.624-3.39-3.252-2.858-9.974-1.485-10.423 3.278-.026.28.084.392.364.42.368.042.736.092 1.1.14.362.05.723.098 1.085.14.589.084.618.084.784-.476 1.15-3.782 6.78-1.737 4.541 1.317-.39.536-.908.923-1.422 1.308-.668.5-1.325.994-1.69 1.801-.53 1.093-.504 2.69-.475 3.895 0 .252.11.336.335.336h1.29c.364 0 .758-.028 1.148 0 .335.028.476-.084.45-.42 0-.617.026-1.233.084-1.85.049-.752.57-1.213 1.084-1.663z" fill="#fff"/></svg><svg fill="none" viewBox="0 0 16 17" id="trash" xmlns="http://www.w3.org/2000/svg"><path d="M13.333 4.5h-2.666v-.667c0-1.133-.867-2-2-2H7.333c-1.133 0-2 .867-2 2V4.5H2.667c-.4 0-.667.267-.667.667s.267.666.667.666h.666v7.334c0 1.133.867 2 2 2h5.334c1.133 0 2-.867 2-2V5.833h.666c.4 0 .667-.266.667-.666s-.267-.667-.667-.667zm-4 0H6.667v-.667c0-.4.266-.666.666-.666h1.334c.4 0 .666.266.666.666V4.5z" fill="#788CA1"/></svg><svg fill="none" viewBox="0 0 32 16" id="triangle" xmlns="http://www.w3.org/2000/svg"><path fill-rule="evenodd" clip-rule="evenodd" d="M16.037 0c.547 8.938 7.246 16 15.43 16H.533c8.184 0 14.883-7.062 15.43-16h.074zM0 15.99c.177.006.355.01.533.01H0v-.01zm32 0c-.177.006-.355.01-.533.01H32v-.01z" fill="#fff"/></svg><svg viewBox="0 0 36 36" id="user" xmlns="http://www.w3.org/2000/svg"><rect width="36" height="36" rx="4" fill="#9FCCFA"/><path d="M20.472 18.473a4.001 4.001 0 10-4.946 0 6.666 6.666 0 00-4.147 5.454.671.671 0 001.333.146 5.333 5.333 0 0110.6 0 .666.666 0 00.667.594h.073a.667.667 0 00.587-.734 6.667 6.667 0 00-4.167-5.46v0zM18 18a2.667 2.667 0 110-5.333 2.667 2.667 0 010 5.333z" fill="#fff" stroke="#fff" opacity=".7"/></svg><svg viewBox="0 0 16 17" id="user-small" xmlns="http://www.w3.org/2000/svg"><path d="M12.667 1.833H3.334c-1.133 0-2 .867-2 2v9.334c0 1.133.867 2 2 2h9.333c1.134 0 2-.867 2-2V3.833c0-1.133-.866-2-2-2zM8.001 4.5c1 0 1.866.8 1.866 1.867 0 1.066-.8 1.866-1.866 1.866-1.067 0-1.867-.8-1.867-1.866 0-1.067.867-1.867 1.867-1.867zm3.066 7.933c-.066 0-.133.067-.266.067H5.134a.668.668 0 01-.667-.667c0-.066 0-.133.067-.266.733-1.934 2.867-2.867 4.8-2.134 1 .4 1.733 1.134 2.133 2.134.134.4-.066.733-.4.866z" fill="inherit"/></svg><svg viewBox="0 0 16 17" id="wallet" xmlns="http://www.w3.org/2000/svg"><path d="M12.667 5.167h-.666V4.5c0-1.133-.867-2-2-2H3.334c-1.133 0-2 .867-2 2v8c0 1.133.867 2 2 2h9.333c1.134 0 2-.867 2-2V7.167c0-1.134-.866-2-2-2zm-2 0H3.334c-.4 0-.667-.267-.667-.667s.267-.667.667-.667h6.667c.4 0 .666.267.666.667v.667zm2.667 6h-.667c-.733 0-1.333-.6-1.333-1.334 0-.733.6-1.333 1.333-1.333h.667v2.667z" fill="inherit"/></svg></svg>