<?xml version="1.0" encoding="utf-8"?><svg viewBox="0 0 360 102" xmlns="http://www.w3.org/2000/svg" xmlns:xlink="http://www.w3.org/1999/xlink"><style>:root>svg{display:none}:root>svg:target{display:block}</style><svg fill="none" viewBox="0 0 17 17" id="add" xmlns="http://www.w3.org/2000/svg"><path d="M13.167 1.833H3.834c-1.133 0-2 .867-2 2v9.334c0 1.133.867 2 2 2h9.333c1.134 0 2-.867 2-2V3.833c0-1.133-.866-2-2-2zm-2 7.334h-2v2c0 .4-.266.666-.666.666s-.667-.266-.667-.666v-2h-2c-.4 0-.667-.267-.667-.667s.267-.667.667-.667h2v-2c0-.4.267-.666.667-.666s.666.266.666.666v2h2c.4 0 .667.267.667.667s-.267.667-.667.667z" fill="#788CA1"/></svg><svg fill="none" viewBox="0 0 24 24" id="angle-down" xmlns="http://www.w3.org/2000/svg"><path d="M17 9.17a1 1 0 00-1.41 0L12 12.71 8.46 9.17a1 1 0 10-1.41 1.42l4.24 4.24a1.002 1.002 0 001.42 0L17 10.59a1.002 1.002 0 000-1.42z" fill="#788CA1"/></svg><svg viewBox="0 0 16 17" id="archive" xmlns="http://www.w3.org/2000/svg"><path d="M12.667 3.167H3.334c-1.133 0-2 .866-2 2v2c0 .4.267.666.667.666h.666v5.334c0 1.133.867 2 2 2h6.667c1.133 0 2-.867 2-2V7.833h.667c.4 0 .666-.266.666-.666v-2c0-1.134-.866-2-2-2zM9.334 10.5H6.667c-.4 0-.666-.267-.666-.667s.266-.666.666-.666h2.667c.4 0 .667.266.667.666s-.267.667-.667.667zm4-4H2.667V5.167c0-.4.267-.667.667-.667h9.333c.4 0 .667.267.667.667V6.5z" fill="inherit"/></svg><svg fill="none" viewBox="0 0 10 6" id="arrow" xmlns="http://www.w3.org/2000/svg"><path d="M1 5l3.646-3.646a.5.5 0 01.708 0L9 5" stroke="inherit" stroke-width="2" stroke-linecap="round"/></svg><svg fill="none" viewBox="0 0 24 24" id="at" xmlns="http://www.w3.org/2000/svg"><path d="M12 2a10 10 0 105 18.66 1 1 0 10-1-1.73A8 8 0 1120 12v.75a1.75 1.75 0 11-3.5 0V8.5a1 1 0 00-1-1 1 1 0 00-1 .79A4.45 4.45 0 0012 7.5a4.5 4.5 0 103.3 7.5 3.74 3.74 0 006.7-2.25V12A9.999 9.999 0 0012 2zm0 12.5a2.5 2.5 0 110-5 2.5 2.5 0 010 5z" fill="#1E3147"/></svg><svg fill="none" viewBox="0 0 48 48" id="author-no-image" xmlns="http://www.w3.org/2000/svg"><g filter="url(#affilter0_d)"><rect x="4" y="2" width="40" height="40" rx="16" fill="#DFE8FF"/><path d="M25.083 22.183a4.1 4.1 0 001.416-3.1 4.167 4.167 0 10-8.333 0 4.099 4.099 0 001.417 3.1 6.666 6.666 0 00-3.917 6.067.833.833 0 001.667 0 5 5 0 0110 0 .833.833 0 001.666 0 6.666 6.666 0 00-3.916-6.067zm-2.75-.6a2.5 2.5 0 110-5 2.5 2.5 0 010 5zm9.091.417l.667-.658a.838.838 0 00-1.183-1.184l-.659.667-.658-.667a.836.836 0 10-1.183 1.184l.666.658-.666.658a.833.833 0 000 1.184.833.833 0 001.183 0l.658-.667.659.667a.833.833 0 001.183 0 .833.833 0 000-1.184L31.424 22z" fill="#788CA1"/><rect x="5" y="3" width="38" height="38" rx="15" stroke="#fff" stroke-width="2"/></g><defs><filter id="affilter0_d" x="0" y="0" width="48" height="48" filterUnits="userSpaceOnUse" color-interpolation-filters="sRGB"><feFlood flood-opacity="0" result="BackgroundImageFix"/><feColorMatrix in="SourceAlpha" values="0 0 0 0 0 0 0 0 0 0 0 0 0 0 0 0 0 0 127 0"/><feOffset dy="2"/><feGaussianBlur stdDeviation="2"/><feColorMatrix values="0 0 0 0 0 0 0 0 0 0 0 0 0 0 0 0 0 0 0.16 0"/><feBlend in2="BackgroundImageFix" result="effect1_dropShadow"/><feBlend in="SourceGraphic" in2="effect1_dropShadow" result="shape"/></filter></defs></svg><svg fill="none" viewBox="0 0 24 24" id="background" xmlns="http://www.w3.org/2000/svg"><path d="M12.56 2.17a1 1 0 00-1.12 0c-.3.2-7.19 5-7.19 12.08a7.75 7.75 0 0015.5 0c0-7.2-6.9-11.89-7.19-12.08zM12 20a5.76 5.76 0 01-5.75-5.75c0-5 4.21-8.77 5.75-10 1.55 1.21 5.75 5 5.75 10A5.76 5.76 0 0112 20z" fill="#1E3147"/></svg><svg fill="none" viewBox="0 0 24 24" id="bold" xmlns="http://www.w3.org/2000/svg"><path d="M16.5 9.5A3.5 3.5 0 0013 6H8.5a1 1 0 00-1 1v10a1 1 0 001 1H13a3.49 3.49 0 002.44-6 3.5 3.5 0 001.06-2.5zM13 16H9.5v-3H13a1.5 1.5 0 110 3zm0-5H9.5V8H13a1.5 1.5 0 010 3z" fill="#1E3147"/></svg><svg fill="none" viewBox="0 0 22 22" id="bookmarks" xmlns="http://www.w3.org/2000/svg"><path d="M14.667 1.833H7.334a2.75 2.75 0 00-2.75 2.75V19.25a.916.916 0 001.375.797l5.042-2.915 5.041 2.915c.14.08.298.12.459.12.16 0 .318-.04.458-.12a.916.916 0 00.458-.797V4.583a2.75 2.75 0 00-2.75-2.75zm.917 15.831l-4.125-2.383a.916.916 0 00-.917 0l-4.125 2.383V4.584a.917.917 0 01.917-.917h7.333a.917.917 0 01.917.916v13.081z" fill="#D3EAFF"/></svg><svg viewBox="0 0 14 21" id="bookmarks2" xmlns="http://www.w3.org/2000/svg"><path d="M11 0H3a3 3 0 00-3 3v16a1 1 0 001.5.87L7 16.69l5.5 3.18a1 1 0 00.5.13 1 1 0 00.5-.13A1 1 0 0014 19V3a3 3 0 00-3-3z" fill="inherit"/></svg><svg viewBox="0 0 32 32" id="calendar" xmlns="http://www.w3.org/2000/svg"><path d="M25.333 5.333h-1.334V4c0-.8-.533-1.333-1.333-1.333-.8 0-1.333.533-1.333 1.333v1.333H10.666V4c0-.8-.533-1.333-1.333-1.333-.8 0-1.334.533-1.334 1.333v1.333H6.666c-2.267 0-4 1.734-4 4v1.334h26.667V9.333c0-2.266-1.734-4-4-4zm-22.667 20c0 2.267 1.733 4 4 4h18.667c2.266 0 4-1.733 4-4v-12H2.666v12zm20-9.333c.8 0 1.333.533 1.333 1.333 0 .8-.533 1.334-1.333 1.334-.8 0-1.333-.534-1.333-1.334S21.866 16 22.666 16zm0 5.333c.8 0 1.333.534 1.333 1.334S23.466 24 22.666 24c-.8 0-1.333-.533-1.333-1.333 0-.8.533-1.334 1.333-1.334zM15.999 16c.8 0 1.334.533 1.334 1.333 0 .8-.534 1.334-1.334 1.334s-1.333-.534-1.333-1.334S15.199 16 15.999 16zm0 5.333c.8 0 1.334.534 1.334 1.334S16.799 24 15.999 24s-1.333-.533-1.333-1.333c0-.8.533-1.334 1.333-1.334zM9.333 16c.8 0 1.333.533 1.333 1.333 0 .8-.533 1.334-1.333 1.334-.8 0-1.334-.534-1.334-1.334S8.533 16 9.333 16zm0 5.333c.8 0 1.333.534 1.333 1.334S10.133 24 9.333 24c-.8 0-1.334-.533-1.334-1.333 0-.8.534-1.334 1.334-1.334z" fill="inherit"/></svg><svg fill="none" viewBox="0 0 24 24" id="calendar-alt" xmlns="http://www.w3.org/2000/svg"><path d="M12 19a1 1 0 100-2 1 1 0 000 2zm5 0a1 1 0 100-2 1 1 0 000 2zm0-4a1 1 0 100-2 1 1 0 000 2zm-5 0a1 1 0 100-2 1 1 0 000 2zm7-12h-1V2a1 1 0 00-2 0v1H8V2a1 1 0 00-2 0v1H5a3 3 0 00-3 3v14a3 3 0 003 3h14a3 3 0 003-3V6a3 3 0 00-3-3zm1 17a1 1 0 01-1 1H5a1 1 0 01-1-1v-9h16v9zm0-11H4V6a1 1 0 011-1h1v1a1 1 0 002 0V5h8v1a1 1 0 002 0V5h1a1 1 0 011 1v3zM7 15a1 1 0 100-2 1 1 0 000 2zm0 4a1 1 0 100-2 1 1 0 000 2z" fill="#1E3147"/></svg><svg fill="none" viewBox="0 0 16 17" id="change" xmlns="http://www.w3.org/2000/svg"><g clip-path="url(#amclip0)" fill="#788CA1"><path d="M8 8.167c1.467 0 2.667-1.2 2.667-2.667 0-1.467-1.2-2.667-2.667-2.667A2.675 2.675 0 005.334 5.5c0 1.467 1.2 2.667 2.666 2.667zm7.334-.667H12c-.4 0-.666.267-.666.667s.266.666.666.666h3.334c.4 0 .666-.266.666-.666s-.267-.667-.666-.667zM8 9.167c-2.466 0-4.6 1.8-4.933 4.266-.067.334.2.734.6.734h8.6c.4 0 .667-.267.667-.667v-.067C12.6 10.967 10.466 9.167 8 9.167z"/><path d="M15.603 7.233L14.199 5.63c-.288-.278-.665-.27-.942.018-.277.289-.27.666.018.943l1.404 1.604c.288.278.665.27.942-.018.277-.289.27-.666-.018-.943z"/><path d="M13.274 9.9l1.404-1.605c.288-.277.665-.27.942.019.277.288.27.665-.018.943l-1.404 1.604c-.288.277-.665.27-.942-.019-.277-.288-.27-.665.018-.942z"/></g><defs><clipPath id="amclip0"><path fill="#fff" transform="translate(0 .5)" d="M0 0h16v16H0z"/></clipPath></defs></svg><svg fill="none" viewBox="0 0 11 9" id="check" xmlns="http://www.w3.org/2000/svg"><path d="M1.5 4.5L4 7l5.5-5.5" stroke="#fff" stroke-width="2" stroke-linecap="round"/></svg><svg fill="none" viewBox="0 0 24 24" id="check-list" xmlns="http://www.w3.org/2000/svg"><path d="M10.21 14.75a1.002 1.002 0 001.42 0l4.08-4.08a1.004 1.004 0 10-1.42-1.42l-3.37 3.38-1.21-1.22a1.004 1.004 0 10-1.42 1.42l1.92 1.92zM21 2H3a1 1 0 00-1 1v18a1 1 0 001 1h18a1 1 0 001-1V3a1 1 0 00-1-1zm-1 18H4V4h16v16z" fill="#1E3147"/></svg><svg viewBox="0 0 16 17" id="close" xmlns="http://www.w3.org/2000/svg"><path d="M12.667 1.833H3.334c-1.133 0-2 .867-2 2v9.334c0 1.133.867 2 2 2h9.333c1.134 0 2-.867 2-2V3.833c0-1.133-.866-2-2-2zm-2.2 8.2a.644.644 0 010 .934.645.645 0 01-.933 0L8.001 9.433l-1.534 1.534a.645.645 0 01-.933 0 .645.645 0 010-.934L7.067 8.5 5.534 6.967a.644.644 0 010-.934.644.644 0 01.933 0l1.534 1.534 1.533-1.534a.644.644 0 01.933 0 .644.644 0 010 .934L8.934 8.5l1.533 1.533z" fill="inherit"/></svg><svg fill="none" viewBox="0 0 24 24" id="close2" xmlns="http://www.w3.org/2000/svg"><path d="M15.71 8.29a1 1 0 00-1.42 0L12 10.59l-2.29-2.3a1.004 1.004 0 00-1.42 1.42l2.3 2.29-2.3 2.29a1 1 0 00.325 1.639 1 1 0 001.095-.219l2.29-2.3 2.29 2.3a1.002 1.002 0 001.639-.325 1 1 0 00-.219-1.095L13.41 12l2.3-2.29a1 1 0 000-1.42zM19 2H5a3 3 0 00-3 3v14a3 3 0 003 3h14a3 3 0 003-3V5a3 3 0 00-3-3zm1 17a1 1 0 01-1 1H5a1 1 0 01-1-1V5a1 1 0 011-1h14a1 1 0 011 1v14z" fill="#AA3E86"/></svg><svg fill="none" viewBox="0 0 24 24" id="code" xmlns="http://www.w3.org/2000/svg"><path d="M6 6a2 2 0 012-2 1 1 0 000-2 4 4 0 00-4 4v3a2 2 0 01-2 2 1 1 0 000 2 2 2 0 012 2v3a4 4 0 004 4 1 1 0 000-2 2 2 0 01-2-2v-3a4 4 0 00-1.38-3A4 4 0 006 9V6zm16 5a2 2 0 01-2-2V6a4 4 0 00-4-4 1 1 0 100 2 2 2 0 012 2v3a4 4 0 001.38 3A4 4 0 0018 15v3a2 2 0 01-2 2 1 1 0 000 2 4 4 0 004-4v-3a2 2 0 012-2 1 1 0 000-2z" fill="#1E3147"/></svg><svg fill="none" viewBox="0 0 13 14" id="comments" xmlns="http://www.w3.org/2000/svg"><rect x="1" width="11" height="13" rx="2" fill="#788CA1"/><path fill="#fff" d="M4 3h5v1H4zM4 6h5v1H4zM4 9h5v1H4z"/></svg><svg fill="none" viewBox="0 0 64 64" id="congratulations" xmlns="http://www.w3.org/2000/svg"><path d="M51.219 37.162H12.78L8.652 45.42h3.735V64h39.226V45.42h3.735l-4.13-8.258zm-1.276 2.065l2.064 4.129H35.735l-2.065-4.13h16.273zm-35.885 0H30.33l-2.065 4.129H11.993l2.065-4.13zm35.49 22.71H33.032V54.71h-2.064v7.225H14.452V45.42h15.09l1.426-2.853v9.047h2.064v-9.047l1.427 2.853h15.09v16.516z" fill="#788CA1"/><path d="M16.516 53.678h6.193v2.064h-6.193v-2.064zM16.516 57.807h6.193v2.064h-6.193v-2.064zM24.773 57.807h2.065v2.064h-2.065v-2.064zM27.233 16.788L32 15.573l4.767 1.214.374-5.119 2.532-4.325-4.479-1.939L32 1.455l-3.195 3.95-4.479 1.938 2.532 4.325.375 5.12zm2.858-9.692l1.91-2.359 1.908 2.36 2.805 1.215-1.596 2.728-.23 3.14L32 13.443l-2.888.734-.23-3.139-1.596-2.728 2.805-1.215zM11.334 18.896l1.5-2.561-2.657-1.152-1.92-2.373-1.918 2.372-2.657 1.152 1.5 2.56.221 3.055 2.855-.726 2.855.727.22-3.054zm-2.023-.63l-.079 1.074-.974-.247-.974.247-.08-1.074-.564-.965.984-.426.634-.782.632.783.984.426-.563.964zM58.818 18.896l1.5-2.561-2.657-1.152-1.919-2.373-1.919 2.372-2.657 1.152 1.5 2.56.222 3.055 2.854-.726 2.855.727.221-3.054zm-2.023-.63l-.079 1.074-.974-.247-.973.247-.079-1.074-.564-.965.984-.426.632-.782.633.783.984.426-.564.964zM12.847 24.6a22.894 22.894 0 015.187 4.757l4.089 5.11-.846-6.764a13.258 13.258 0 00-5.175-8.917l-.988-.741-3.026 6.05.759.506zm2.975-3.354a11.204 11.204 0 013.335 6.229 24.99 24.99 0 00-4.414-4.072l1.079-2.157zM42.723 27.702l-.846 6.763 4.089-5.11a22.91 22.91 0 015.187-4.756l.758-.506-3.026-6.05-.989.743a13.255 13.255 0 00-5.173 8.916zm6.534-4.3a24.925 24.925 0 00-4.414 4.072 11.21 11.21 0 013.335-6.229l1.079 2.157zM36.129 35.097h2.064v-4.325a21.27 21.27 0 014.923-13.595l-1.586-1.322a23.345 23.345 0 00-5.401 14.917v4.325zM43.355 12.387h2.065v2.064h-2.065v-2.064zM46.451 8.258h2.065v2.064H46.45V8.258zM25.807 35.097h2.064v-4.325c0-5.44-1.918-10.737-5.4-14.916l-1.586 1.321a21.275 21.275 0 014.922 13.595v4.325zM18.58 12.387h2.065v2.064H18.58v-2.064zM15.484 8.258h2.065v2.064h-2.065V8.258zM30.967 17.549h2.064v2.064h-2.064V17.55zM30.967 21.678h2.064v13.42h-2.064v-13.42zM59.871 27.871h2.065v2.065H59.87V27.87zM59.871 32h2.065v2.065H59.87V32zM61.935 29.936H64V32h-2.065v-2.064zM57.807 29.936h2.064V32h-2.064v-2.064zM56.773 0h2.065v2.065h-2.065V0zM56.773 4.129h2.065v2.064h-2.065V4.13zM58.838 2.064h2.064V4.13h-2.064V2.064zM54.709 2.064h2.064V4.13H54.71V2.064zM2.064 32H4.13v2.065H2.064V32zM2.064 36.129H4.13v2.064H2.064V36.13zM4.129 34.065h2.064v2.064H4.13v-2.064zM0 34.065h2.065v2.064H0v-2.064zM2.064 0H4.13v2.065H2.064V0zM2.064 4.129H4.13v2.064H2.064V4.13z" fill="#788CA1"/><path d="M4.129 2.064h2.064V4.13H4.13V2.064zM0 2.064h2.065V4.13H0V2.064z" fill="#788CA1"/></svg><svg viewBox="0 0 16 17" id="copy" xmlns="http://www.w3.org/2000/svg"><path d="M10.667 5.833H13.6l-3.6-3.6v2.934c0 .4.267.666.667.666zm0 1.334c-1.134 0-2-.867-2-2V1.833h-2c-1.134 0-2 .867-2 2V4.5H4c-1.133 0-2 .867-2 2v6.667c0 1.133.867 2 2 2h5.333c1.134 0 2-.867 2-2V12.5H12c1.133 0 2-.867 2-2V7.167h-3.333zm-.667 6c0 .4-.267.666-.667.666H4c-.4 0-.667-.266-.667-.666V6.5c0-.4.267-.667.667-.667h.667V10.5c0 1.133.866 2 2 2H10v.667z" fill="inherit"/></svg><svg fill="none" viewBox="0 0 22 24" id="cost" xmlns="http://www.w3.org/2000/svg"><path d="M17 22.002v-19a1 1 0 00-1.5-.87l-3 1.72-3-1.72a1 1 0 00-1 0l-3 1.72-3-1.72a1 1 0 00-1.5.87v16a3 3 0 003 3h14a3 3 0 003-3v-6a1 1 0 00-1-1h-2.5" stroke="#1E3147" stroke-width="2"/><path d="M6 11.998h3.75A2.25 2.25 0 0012 9.748v0a2.25 2.25 0 00-2.25-2.25H6v10.5M4 14.998h5" stroke="#1E3147" stroke-width="2"/></svg><svg fill="none" viewBox="0 0 360 102" id="decorate" xmlns="http://www.w3.org/2000/svg"><path opacity=".15" d="M-28.54 22.515C-66.743 88.446-88.098 96.77-94 92.69V129h477V80.858c-23.609 22.847-67.07 25.295-89.605 13.055-22.536-12.24-35.95-20.807-65.46-10.608-23.609 8.16-39.546 11.12-65.46 9.384C104.666 88.817 99.697 58.01 52.48 16.804c-37.773-32.966-69.752-9.928-81.02 5.711z" fill="url(#awpaint0_linear)"/><defs><linearGradient id="awpaint0_linear" x1="257.351" y1="257.116" x2="65.389" y2="-168.458" gradientUnits="userSpaceOnUse"><stop stop-color="#ACC2F8"/><stop offset=".877" stop-color="#2EE1CE"/></linearGradient></defs></svg><svg fill="none" viewBox="0 0 24 24" id="document-info" xmlns="http://www.w3.org/2000/svg"><path d="M12 14a1 1 0 00-1 1v2a1 1 0 002 0v-2a1 1 0 00-1-1zm.38-2.92a1 1 0 00-.58-.08l-.18.06-.18.09-.15.12A1.002 1.002 0 0011 12a1 1 0 00.29.71 1 1 0 00.33.21.84.84 0 00.38.08 1 1 0 00.71-.29A1 1 0 0013 12a1 1 0 00-.29-.71 1.15 1.15 0 00-.33-.21zM20 8.94a1.307 1.307 0 00-.06-.27v-.09a1.07 1.07 0 00-.19-.28l-6-6a1.071 1.071 0 00-.28-.19h-.1a1.099 1.099 0 00-.31-.11H7a3 3 0 00-3 3v14a3 3 0 003 3h10a3 3 0 003-3V9v-.06zm-6-3.53L16.59 8H15a1 1 0 01-1-1V5.41zM18 19a1 1 0 01-1 1H7a1 1 0 01-1-1V5a1 1 0 011-1h5v3a3 3 0 003 3h3v9z" fill="#F8F9FC"/></svg><svg fill="none" viewBox="0 0 19 20" id="down" xmlns="http://www.w3.org/2000/svg"><path d="M13.383 7.846a.744.744 0 00-1.076 0L9.614 10.54 6.922 7.846a.744.744 0 00-1.077 0 .744.744 0 000 1.077l3.23 3.23c.155.155.308.232.54.232.23 0 .384-.077.538-.231l3.23-3.23a.744.744 0 000-1.078z" fill="#fff"/></svg><svg viewBox="0 0 16 17" id="edit" xmlns="http://www.w3.org/2000/svg"><path d="M13.134 5.767a.644.644 0 000-.934l-2.8-2.8a.644.644 0 00-.933 0L7.534 3.9l3.8 3.8 1.8-1.933zm-9.8 6.733h2.8c.2 0 .333-.067.467-.2l3.666-3.667-3.733-3.8L2.867 8.5a.757.757 0 00-.2.533v2.8c0 .4.267.667.667.667zm10.667 1.333H2c-.4 0-.667.267-.667.667s.267.667.667.667h12c.4 0 .666-.267.666-.667s-.266-.667-.666-.667z" fill="inherit"/></svg><svg viewBox="0 0 16 17" id="exit" xmlns="http://www.w3.org/2000/svg"><path d="M11.333 1.833H4.666c-1.133 0-2 .867-2 2v4h5.733L6.866 6.3a.644.644 0 010-.933.644.644 0 01.933 0l2.667 2.666a.644.644 0 010 .934l-2.667 2.666a.644.644 0 01-.933 0 .644.644 0 010-.933l1.533-1.533H2.666v4c0 1.133.867 2 2 2h6.667c1.133 0 2-.867 2-2V3.833c0-1.133-.867-2-2-2z" fill="inherit"/></svg><svg fill="none" viewBox="0 0 40 40" id="facebook" xmlns="http://www.w3.org/2000/svg"><path d="M20 40c11.046 0 20-8.954 20-20S31.046 0 20 0 0 8.954 0 20s8.954 20 20 20z" fill="#EBEFF2"/><path d="M23.638 20.979h-2.67V32h-4.044V20.979H15v-3.873h1.924v-2.507c0-1.792.755-4.599 4.08-4.599l2.996.014v3.76h-2.174c-.356 0-.858.2-.858 1.056v2.28h3.023l-.353 3.869z" fill="#99A3C5"/></svg><svg fill="none" viewBox="0 0 16 17" id="file" xmlns="http://www.w3.org/2000/svg"><path d="M10 5.833h2.933l-3.6-3.6v2.934c0 .4.266.666.666.666zm0 1.334c-1.134 0-2-.867-2-2V1.833H4.665c-1.133 0-2 .867-2 2v9.334c0 1.133.867 2 2 2h6.667c1.133 0 2-.867 2-2v-6H9.999z" fill="#788CA1"/></svg><svg fill="none" viewBox="0 0 28 28" id="files" xmlns="http://www.w3.org/2000/svg"><path d="M8.166 7.18h-.5a2 2 0 00-2 2v12.668a2 2 0 002 2h9.333a2 2 0 002-2v-1.334" stroke="#1E3147" stroke-width="2" stroke-linecap="round"/><path d="M9 18.514V5.848a2 2 0 012-2h8.5a2 2 0 012 2v12.666a2 2 0 01-2 2H11a2 2 0 01-2-2zM11.5 15.514H19M11.5 11.348H19M11.5 7.18H19" stroke="#1E3147" stroke-width="2"/></svg><svg viewBox="0 0 14 14" id="finish" xmlns="http://www.w3.org/2000/svg"><path fill="inherit" d="M0 1h2v13H0zM12 1h2v13h-2z"/><path d="M0 2h14v7H0V2z" fill="inherit"/></svg><svg fill="none" viewBox="0 0 24 24" id="further" xmlns="http://www.w3.org/2000/svg"><path d="M10 6l5.657 5.657L10 17.314" stroke="#19DAC6" stroke-width="2"/></svg><svg fill="none" viewBox="0 0 32 32" id="google" xmlns="http://www.w3.org/2000/svg"><g clip-path="url(#bgclip0)"><path d="M7.092 19.338l-1.114 4.158-4.071.086A15.928 15.928 0 010 16c0-2.653.645-5.155 1.789-7.358l3.625.664 1.588 3.603a9.51 9.51 0 00-.513 3.09c0 1.175.213 2.3.603 3.339z" fill="#FBBB00"/><path d="M31.72 13.01c.184.969.28 1.968.28 2.99 0 1.145-.12 2.263-.35 3.34a15.996 15.996 0 01-5.633 9.137h-.001l-4.566-.234-.646-4.033a9.536 9.536 0 004.103-4.87h-8.555v-6.33H31.72z" fill="#518EF8"/><path d="M26.015 28.476l.001.001A15.932 15.932 0 0116 32c-6.093 0-11.39-3.406-14.093-8.418l5.185-4.244A9.514 9.514 0 0016 25.51a9.46 9.46 0 004.805-1.301l5.211 4.266z" fill="#28B446"/><path d="M26.213 3.683l-5.184 4.244a9.516 9.516 0 00-14.027 4.982L1.79 8.642C4.451 3.508 9.815 0 16 0c3.882 0 7.442 1.383 10.213 3.683z" fill="#F14336"/></g><defs><clipPath id="bgclip0"><path fill="#fff" d="M0 0h32v32H0z"/></clipPath></defs></svg><svg viewBox="0 0 32 32" id="home" xmlns="http://www.w3.org/2000/svg"><path d="M28.933 13.333l-12-10.666c-.534-.4-1.2-.4-1.734 0l-12 10.666c-.533.534-.666 1.334-.133 1.867.267.267.667.4.933.4h1.334v12c0 .8.533 1.333 1.333 1.333h18.667c.8 0 1.333-.533 1.333-1.333v-12H28c.8 0 1.334-.533 1.334-1.333 0-.4-.134-.667-.4-.934zm-8.934 12.934h-8v-4c0-2.267 1.734-4 4-4 2.267 0 4 1.733 4 4v4z" fill="inherit"/></svg><svg fill="none" viewBox="0 0 40 40" id="instagram" xmlns="http://www.w3.org/2000/svg"><path d="M20 40c11.046 0 20-8.954 20-20S31.046 0 20 0 0 8.954 0 20s8.954 20 20 20z" fill="#EBEFF2"/><path d="M20 10.01c-4.096 0-7.985-.364-9.47 3.445-.615 1.574-.525 3.618-.525 6.544 0 2.567-.083 4.98.524 6.542 1.482 3.812 5.403 3.447 9.469 3.447 3.922 0 7.966.408 9.47-3.447.615-1.59.525-3.603.525-6.542 0-3.903.215-6.422-1.679-8.313-1.918-1.916-4.511-1.676-8.318-1.676H20zm-.895 1.8c8.543-.014 9.63-.963 9.03 12.222-.212 4.663-3.766 4.15-8.134 4.15-7.964 0-8.193-.227-8.193-8.188 0-8.053.632-8.18 7.297-8.187v.003zm6.231 1.658a1.199 1.199 0 100 2.397 1.199 1.199 0 000-2.397zM20 14.868a5.131 5.131 0 00-5.132 5.13A5.13 5.13 0 0020 25.129a5.13 5.13 0 100-10.26zm0 1.8c4.405 0 4.411 6.66 0 6.66-4.404 0-4.41-6.66 0-6.66z" fill="#99A3C5"/></svg><svg fill="none" viewBox="0 0 24 24" id="italic" xmlns="http://www.w3.org/2000/svg"><path d="M17 6h-6a1 1 0 100 2h1.52l-3.2 8H7a1 1 0 000 2h6a1 1 0 000-2h-1.52l3.2-8H17a1 1 0 100-2z" fill="#1E3147"/></svg><svg fill="none" viewBox="0 0 24 24" id="link" xmlns="http://www.w3.org/2000/svg"><path d="M8 12a1 1 0 001 1h6a1 1 0 000-2H9a1 1 0 00-1 1zm2 3H7a3 3 0 010-6h3a1 1 0 100-2H7a5 5 0 100 10h3a1 1 0 000-2zm7-8h-3a1 1 0 100 2h3a3 3 0 010 6h-3a1 1 0 000 2h3a5 5 0 100-10z" fill="#1E3147"/></svg><svg fill="none" viewBox="0 0 24 24" id="list-ol" xmlns="http://www.w3.org/2000/svg"><path d="M7 20H4v-.1c0-.5.4-.9.9-.9 1.4 0 2.6-.9 3-2.2.4-1.6-.5-3.3-2.1-3.7-1.3-.4-2.7.2-3.4 1.4-.3.5-.1 1.1.4 1.4.5.3 1.1.1 1.4-.4.3-.5.9-.6 1.4-.3.1.1.2.1.2.2.2.3.2.6.2.9-.2.4-.6.7-1 .7-1.7 0-3 1.3-3 2.9V21c0 .6.4 1 1 1h4c.6 0 1-.4 1-1s-.4-1-1-1zm4-13h10c.6 0 1-.4 1-1s-.4-1-1-1H11c-.6 0-1 .4-1 1s.4 1 1 1zM7 9H6V3c0-.6-.4-1-1-1s-1 .4-1 1v1H3c-.6 0-1 .4-1 1s.4 1 1 1h1v3H3c-.6 0-1 .4-1 1s.4 1 1 1h4c.6 0 1-.4 1-1s-.4-1-1-1zm14 7H11c-.6 0-1 .4-1 1s.4 1 1 1h10c.6 0 1-.4 1-1s-.4-1-1-1z" fill="#1E3147"/></svg><svg fill="none" viewBox="0 0 24 24" id="list-ul" xmlns="http://www.w3.org/2000/svg"><path d="M3.71 16.29a1 1 0 00-.33-.21 1 1 0 00-.76 0 1 1 0 00-.33.21 1 1 0 00-.21.33 1 1 0 00.21 1.09c.097.088.209.16.33.21a.94.94 0 00.76 0 1.15 1.15 0 00.33-.21 1 1 0 00.21-1.09 1 1 0 00-.21-.33zM7 8h14a1 1 0 100-2H7a1 1 0 000 2zm-3.29 3.29a1 1 0 00-1.09-.21 1.15 1.15 0 00-.33.21 1 1 0 00-.21.33.94.94 0 000 .76c.05.121.122.233.21.33.097.088.209.16.33.21a.94.94 0 00.76 0 1.15 1.15 0 00.33-.21 1.15 1.15 0 00.21-.33.94.94 0 000-.76 1 1 0 00-.21-.33zM21 11H7a1 1 0 000 2h14a1 1 0 000-2zM3.71 6.29a1 1 0 00-.33-.21 1 1 0 00-1.09.21 1.15 1.15 0 00-.21.33.94.94 0 000 .76c.05.121.122.233.21.33.097.088.209.16.33.21a1 1 0 001.09-.21 1.15 1.15 0 00.21-.33.94.94 0 000-.76 1.15 1.15 0 00-.21-.33zM21 16H7a1 1 0 000 2h14a1 1 0 000-2z" fill="#1E3147"/></svg><svg fill="none" viewBox="0 0 16 17" id="look" xmlns="http://www.w3.org/2000/svg"><path d="M7.983 6.834c-1.247 0-2.2.954-2.2 2.2 0 1.248.953 2.201 2.2 2.201 1.247 0 2.2-.953 2.2-2.2 0-1.247-.953-2.2-2.2-2.2zm7.261 1.907c-1.467-3.447-4.254-5.574-7.261-5.574-3.008 0-5.795 2.127-7.262 5.574a.81.81 0 000 .587c1.467 3.447 4.254 5.575 7.262 5.575 3.007 0 5.794-2.128 7.261-5.575a.81.81 0 000-.587zm-7.261 3.961a3.632 3.632 0 01-3.668-3.667 3.632 3.632 0 013.668-3.668 3.632 3.632 0 013.667 3.668 3.632 3.632 0 01-3.667 3.667z" fill="#788CA1"/></svg><svg viewBox="0 0 24 24" id="mail" xmlns="http://www.w3.org/2000/svg"><path d="M19 4H5a3 3 0 00-3 3v10a3 3 0 003 3h14a3 3 0 003-3V7a3 3 0 00-3-3zm-.41 2l-5.88 5.88a1.002 1.002 0 01-1.42 0L5.41 6h13.18zM20 17a1 1 0 01-1 1H5a1 1 0 01-1-1V7.41l5.88 5.88a3 3 0 004.24 0L20 7.41V17z" fill="inherit"/></svg><svg viewBox="0 0 16 16" id="map" xmlns="http://www.w3.org/2000/svg"><path fill-rule="evenodd" clip-rule="evenodd" d="M12 5.333c0-2.206-1.793-4-4-4-2.206 0-4 1.794-4 4 0 3 4 7.334 4 7.334s4-4.334 4-7.334zm-5.333 0C6.667 4.6 7.267 4 8.001 4a1.333 1.333 0 11-1.333 1.333zm-3.333 9.334v-1.334h9.333v1.334H3.334z" fill="inherit"/></svg><svg viewBox="0 0 32 32" id="members" xmlns="http://www.w3.org/2000/svg"><path d="M11.332 15.333c2.934 0 5.334-2.4 5.334-5.333 0-2.933-2.4-5.333-5.334-5.333C8.4 4.667 6 7.067 6 10c0 2.933 2.4 5.333 5.333 5.333zm6-1.2c2.267 1.867 5.6 1.467 7.467-.8 1.867-2.266 1.467-5.6-.8-7.466-.933-.8-2.133-1.2-3.333-1.2-1.2 0-2.4.4-3.334 1.2 2.267 1.866 2.667 5.066.8 7.466-.133.267-.533.534-.8.8zm13.2 11.734c-.8-4.934-4.933-8.534-9.866-8.534-1.2 0-2.267.134-3.334.534 3.467 1.2 6 4.266 6.534 7.866.133.667-.4 1.467-1.2 1.467h-.134H29.2c.8 0 1.333-.533 1.333-1.333 0 0 0 .133 0 0zm-19.2-8.534c-4.933 0-9.2 3.6-9.866 8.534-.134.666.4 1.466 1.2 1.466h17.2c.8 0 1.333-.533 1.333-1.333v-.133c-.667-4.934-4.933-8.534-9.867-8.534z" fill="inherit"/></svg><svg fill="none" viewBox="0 0 24 24" id="mobile-close" xmlns="http://www.w3.org/2000/svg"><path d="M13.41 12l6.3-6.29a1.004 1.004 0 10-1.42-1.42L12 10.59l-6.29-6.3a1.004 1.004 0 00-1.42 1.42l6.3 6.29-6.3 6.29a1 1 0 000 1.42.998.998 0 001.42 0l6.29-6.3 6.29 6.3a.998.998 0 001.42 0 .997.997 0 00.219-1.095.998.998 0 00-.22-.325L13.41 12z" fill="#788CA1"/></svg><svg viewBox="0 0 24 24" id="more" xmlns="http://www.w3.org/2000/svg"><path d="M12 10c-1.1 0-2 .9-2 2s.9 2 2 2 2-.9 2-2-.9-2-2-2zm-9 0c-1.1 0-2 .9-2 2s.9 2 2 2 2-.9 2-2-.9-2-2-2zm18 0c-1.1 0-2 .9-2 2s.9 2 2 2 2-.9 2-2-.9-2-2-2z" fill="inherit"/></svg><svg fill="none" viewBox="0 0 25 24" id="new" xmlns="http://www.w3.org/2000/svg"><rect x="1" y=".5" width="23" height="23" rx="6.5" fill="#DFE8FF" stroke="#DFE8FF"/><path d="M6.5 12h12M12.5 18V6" stroke="#788CA1" stroke-width="2"/></svg><svg viewBox="0 0 16 17" id="notifications" xmlns="http://www.w3.org/2000/svg"><path d="M12 9.3V7.167c0-1.934-1.4-3.6-3.334-3.934V2.5c0-.4-.267-.667-.667-.667s-.666.267-.666.667v.733a4.002 4.002 0 00-3.334 3.934V9.3c-.8.267-1.333 1-1.333 1.867V12.5c0 .4.267.667.667.667h2.066c.334 1.4 1.8 2.266 3.2 1.933a2.82 2.82 0 001.934-1.933h2.133c.4 0 .667-.267.667-.667v-1.333c0-.867-.534-1.6-1.334-1.867zm-4 4.533c-.467 0-.934-.266-1.134-.666h2.333c-.266.4-.733.666-1.2.666z" fill="inherit"/></svg><svg viewBox="0 0 32 32" id="notifications2" xmlns="http://www.w3.org/2000/svg"><path d="M24 17.6v-4.267c0-3.866-2.8-7.2-6.666-7.866V4c0-.8-.533-1.333-1.333-1.333-.8 0-1.334.533-1.334 1.333v1.467c-3.866.666-6.666 4-6.666 7.866V17.6c-1.6.533-2.667 2-2.667 3.733V24c0 .8.533 1.333 1.333 1.333h4.134c.666 2.8 3.6 4.534 6.4 3.867a5.64 5.64 0 003.866-3.867h4.267c.8 0 1.333-.533 1.333-1.333v-2.667c0-1.733-1.066-3.2-2.666-3.733zm-8 9.067c-.933 0-1.866-.534-2.266-1.334h4.667c-.534.8-1.467 1.334-2.4 1.334z" fill="inherit"/></svg><svg fill="none" viewBox="0 0 13 13" id="plus" xmlns="http://www.w3.org/2000/svg"><path fill="#2EE1CE" d="M.5 5.5h12v2H.5z"/><path fill="#2EE1CE" d="M5.5 12.5V.5h2v12z"/></svg><svg fill="none" viewBox="0 0 24 24" id="plus2" xmlns="http://www.w3.org/2000/svg"><path d="M19 11h-6V5a1 1 0 00-2 0v6H5a1 1 0 000 2h6v6a1 1 0 002 0v-6h6a1 1 0 000-2z" fill="#1E3147"/></svg><svg fill="none" viewBox="0 0 21 21" id="price" xmlns="http://www.w3.org/2000/svg"><path d="M16.133 7.262V2.875H3.939a2 2 0 00-2 2v2.516m14.194-.129h1.097a2 2 0 012 2v7.613a2 2 0 01-2 2H3.94a2 2 0 01-2-2V7.262h14.193z" stroke="#1E3147" stroke-width="2"/><circle cx="15.617" cy="12.94" r="1.29" fill="#1E3147"/></svg><svg viewBox="0 0 32 32" id="projects" xmlns="http://www.w3.org/2000/svg"><path d="M22.666 20.667v2c0 .8-.533 1.333-1.333 1.333-.8 0-1.334-.533-1.334-1.333v-2h-8v2c0 .8-.533 1.333-1.333 1.333-.8 0-1.333-.533-1.333-1.333v-2H6.666c-.933 0-1.867-.267-2.667-.667v5.333c0 2.267 1.734 4 4 4h16c2.267 0 4-1.733 4-4V20c-.8.4-1.733.667-2.666.667h-2.667zM27.999 8h-5.333V6.667c0-2.267-1.733-4-4-4h-5.333c-2.267 0-4 1.733-4 4V8H3.999c-.8 0-1.333.533-1.333 1.333v5.334c0 2.266 1.733 4 4 4h18.667c2.266 0 4-1.734 4-4V9.333c0-.8-.534-1.333-1.334-1.333zm-8 0h-8V6.667c0-.8.534-1.334 1.334-1.334h5.333c.8 0 1.333.534 1.333 1.334V8z" fill="inherit"/></svg><svg fill="none" viewBox="0 0 21 20" id="purse" xmlns="http://www.w3.org/2000/svg"><path d="M15.694 6.387V2H3.5a2 2 0 00-2 2v2.516m14.194-.129h1.096a2 2 0 012 2V16a2 2 0 01-2 2H3.5a2 2 0 01-2-2V6.387h14.194z" stroke="#1E3147" stroke-width="2"/><circle cx="15.177" cy="12.065" r="1.29" fill="#1E3147"/></svg><svg fill="none" viewBox="0 0 24 25" id="question" xmlns="http://www.w3.org/2000/svg"><path d="M15.333 9.848a3.5 3.5 0 00-6.531-1.75 1 1 0 001.732 1 1.503 1.503 0 012.36-.311 1.5 1.5 0 01-1.061 2.56h-.002a.947.947 0 00-.19.04c-.067.006-.134.02-.198.04a.977.977 0 00-.156.105 1.005 1.005 0 00-.162.11 1.007 1.007 0 00-.117.173.984.984 0 00-.097.145 1.02 1.02 0 00-.043.211.953.953 0 00-.035.177v1l.002.011.001.491a1 1 0 001 .998h.003a1 1 0 00.997-1.003l-.001-.661a3.493 3.493 0 002.498-3.336zm-4.203 6.79a1 1 0 101.41 1.42 1.015 1.015 0 000-1.42 1.034 1.034 0 00-1.41 0z" fill="#788CA1"/></svg><svg fill="none" viewBox="0 0 24 24" id="question-circle" xmlns="http://www.w3.org/2000/svg"><path d="M11.29 15.29a1.573 1.573 0 00-.12.15.762.762 0 00-.09.18.643.643 0 00-.06.18 1.362 1.362 0 000 .2.84.84 0 00.08.38.9.9 0 00.54.54.94.94 0 00.76 0 .9.9 0 00.54-.54A1 1 0 0013 16a1 1 0 00-1.71-.71zM12 2a10 10 0 100 20 10 10 0 000-20zm0 18a8 8 0 110-16.001A8 8 0 0112 20zm0-13a3 3 0 00-2.6 1.5 1 1 0 101.73 1A1 1 0 0112 9a1 1 0 110 2 1 1 0 00-1 1v1a1 1 0 002 0v-.18A3 3 0 0012 7z" fill="#99A3C5"/></svg><svg fill="none" viewBox="0 0 16 17" id="rename" xmlns="http://www.w3.org/2000/svg"><path d="M11.8 8.033l-1.666-1.666a.644.644 0 00-.933 0 .644.644 0 000 .933l.533.533H6.267l.534-.533a.644.644 0 000-.933.644.644 0 00-.934 0L4.201 8.033c-.067.067-.134.134-.134.2-.066.067-.066.2-.066.267s0 .2.066.267c.067.066.067.133.134.2l1.666 1.666c.134.134.267.2.467.2s.333-.066.467-.2a.644.644 0 000-.933l-.534-.533h3.467l-.533.533a.605.605 0 00-.2.467c0 .4.266.666.666.666.2 0 .334-.066.467-.2l1.667-1.666c.066-.067.133-.134.133-.2 0-.067.067-.134.067-.267 0-.067 0-.2-.067-.267 0-.066-.067-.133-.133-.2zM2 4.5c-.4 0-.666.267-.666.667v6.666c0 .4.267.667.667.667s.666-.267.666-.667V5.167c0-.4-.266-.667-.666-.667zm12 0c-.4 0-.666.267-.666.667v6.666c0 .4.267.667.667.667s.666-.267.666-.667V5.167c0-.4-.266-.667-.666-.667z" fill="#788CA1"/></svg><svg fill="none" viewBox="0 0 16 16" id="search" xmlns="http://www.w3.org/2000/svg"><path d="M14.474 13.527l-2.473-2.454a6 6 0 10-.927.927l2.454 2.453a.668.668 0 00.946 0 .666.666 0 000-.926zM7.334 12a4.667 4.667 0 110-9.333 4.667 4.667 0 010 9.333z" fill="#788CA1"/></svg><svg viewBox="0 0 17 17" id="setting" xmlns="http://www.w3.org/2000/svg"><path d="M14.032 8.967a.7.7 0 010-.867l.867-.933c.2-.2.2-.534.067-.8l-1.334-2.334c-.133-.266-.4-.4-.733-.333l-1.267.267c-.333.066-.666-.134-.733-.467l-.4-1.2c-.133-.267-.4-.467-.667-.467H7.166a.64.64 0 00-.6.467l-.467 1.2c-.067.333-.4.533-.733.467L4.099 3.7c-.267-.067-.533.067-.733.333L2.032 6.367c-.133.2-.066.533.134.733l.866.933c.2.267.2.6 0 .867l-.866.933c-.2.2-.2.534-.067.8l1.333 2.334c.134.266.4.4.734.333l1.266-.267c.334-.066.667.134.734.467l.4 1.2a.64.64 0 00.6.467h2.666a.64.64 0 00.6-.467l.4-1.2c.134-.333.467-.533.734-.467l1.266.267a.67.67 0 00.734-.333l1.333-2.334c.133-.266.133-.533-.067-.8l-.8-.866zM8.5 10.5c-1.133 0-2-.867-2-2s.867-2 2-2 2 .867 2 2-.867 2-2 2z" fill="inherit"/></svg><svg fill="none" viewBox="0 0 32 32" id="settings" xmlns="http://www.w3.org/2000/svg"><path d="M27.067 16.933c-.4-.533-.4-1.2 0-1.733l1.733-1.867c.4-.4.4-1.066.133-1.6l-2.666-4.666c-.267-.534-.8-.8-1.467-.667l-2.534.533C21.6 7.067 20.934 6.667 20.8 6L20 3.6c-.267-.533-.8-.933-1.334-.933h-5.333c-.533 0-1.066.4-1.2.933L11.2 6c-.133.667-.8 1.067-1.467.933L7.2 6.4c-.534-.133-1.067.133-1.467.667l-2.667 4.666c-.266.4-.133 1.067.267 1.467l1.733 1.867c.4.533.4 1.2 0 1.733l-1.733 1.867c-.4.4-.4 1.066-.133 1.6l2.666 4.666c.267.534.8.8 1.467.667l2.533-.533c.667-.134 1.334.266 1.467.933l.8 2.4c.134.533.667.933 1.2.933h5.333c.534 0 1.067-.4 1.2-.933l.8-2.4c.267-.667.934-1.067 1.467-.933l2.534.533c.533.133 1.2-.133 1.466-.667l2.667-4.666c.267-.534.267-1.067-.134-1.6l-1.6-1.734zM16 20c-2.267 0-4-1.733-4-4s1.733-4 4-4 4 1.733 4 4-1.733 4-4 4z" fill="#99A3C5"/></svg><svg fill="none" viewBox="0 0 20 20" id="square" xmlns="http://www.w3.org/2000/svg"><path d="M6 1v3M1 9h5V7M19 11h-9v2" stroke="#1E3147" stroke-width="2"/><path d="M5.896 19H3a2 2 0 01-2-2V3a2 2 0 012-2h13.856a2 2 0 012 2v14a2 2 0 01-2 2H9.928L10 16" stroke="#1E3147" stroke-width="2"/></svg><svg fill="none" viewBox="0 0 28 27" id="square2" xmlns="http://www.w3.org/2000/svg"><path d="M9.667 19.181a1 1 0 002 0h-2zM5 4.348h4.667v-2H5v2zm5.667 13.333H23v-2H10.667v2zm12.333 0v4.667h2V17.68h-2zm0 4.667H5v2h18v-2zm-18 0v-18H3v18h2zm4.667-18V19.18h2V4.348h-2zm13.333 18v2a2 2 0 002-2h-2zm0-4.667h2a2 2 0 00-2-2v2zM9.667 4.348h2a2 2 0 00-2-2v2zM5 22.348H3a2 2 0 002 2v-2zm0-20a2 2 0 00-2 2h2v-2z" fill="#1E3147"/><path d="M8.166 7.514h2.5M14.834 19.181v-2.5M19.834 19.181v-2.5M8.166 12.514h2.5M8.166 16.681h2.5" stroke="#1E3147" stroke-width="2" stroke-linecap="round"/></svg><svg viewBox="0 0 14 14" id="start" xmlns="http://www.w3.org/2000/svg"><path fill="inherit" d="M1 1h2v13H1z"/><path d="M2 2h11l-2 3.5L13 9H2V2z" fill="inherit"/></svg><svg fill="none" viewBox="0 0 64 64" id="successful" xmlns="http://www.w3.org/2000/svg"><path d="M51.219 37.162H12.78L8.652 45.42h3.735V64h39.226V45.42h3.735l-4.13-8.258zm-1.276 2.065l2.064 4.129H35.735l-2.065-4.13h16.273zm-35.885 0H30.33l-2.065 4.129H11.993l2.065-4.13zm35.49 22.71H33.032V54.71h-2.064v7.225H14.452V45.42h15.09l1.426-2.853v9.047h2.064v-9.047l1.427 2.853h15.09v16.516z" fill="#788CA1"/><path d="M16.516 53.678h6.193v2.064h-6.193v-2.064zM16.516 57.807h6.193v2.064h-6.193v-2.064zM24.773 57.807h2.065v2.064h-2.065v-2.064zM27.233 16.788L32 15.573l4.767 1.214.374-5.119 2.532-4.325-4.479-1.939L32 1.455l-3.195 3.95-4.479 1.938 2.532 4.325.375 5.12zm2.858-9.692l1.91-2.359 1.908 2.36 2.805 1.215-1.596 2.728-.23 3.14L32 13.443l-2.888.734-.23-3.139-1.596-2.728 2.805-1.215zM11.334 18.896l1.5-2.561-2.657-1.152-1.92-2.373-1.918 2.372-2.657 1.152 1.5 2.56.221 3.055 2.855-.726 2.855.727.22-3.054zm-2.023-.63l-.079 1.074-.974-.247-.974.247-.08-1.074-.564-.965.984-.426.634-.782.632.783.984.426-.563.964zM58.818 18.896l1.5-2.561-2.657-1.152-1.919-2.373-1.919 2.372-2.657 1.152 1.5 2.56.222 3.055 2.854-.726 2.855.727.221-3.054zm-2.023-.63l-.079 1.074-.974-.247-.973.247-.079-1.074-.564-.965.984-.426.632-.782.633.783.984.426-.564.964zM12.847 24.6a22.894 22.894 0 015.187 4.757l4.089 5.11-.846-6.764a13.258 13.258 0 00-5.175-8.917l-.988-.741-3.026 6.05.759.506zm2.975-3.354a11.204 11.204 0 013.335 6.229 24.99 24.99 0 00-4.414-4.072l1.079-2.157zM42.723 27.702l-.846 6.763 4.089-5.11a22.91 22.91 0 015.187-4.756l.758-.506-3.026-6.05-.989.743a13.255 13.255 0 00-5.173 8.916zm6.534-4.3a24.925 24.925 0 00-4.414 4.072 11.21 11.21 0 013.335-6.229l1.079 2.157zM36.129 35.097h2.064v-4.325a21.27 21.27 0 014.923-13.595l-1.586-1.322a23.345 23.345 0 00-5.401 14.917v4.325zM43.355 12.387h2.065v2.064h-2.065v-2.064zM46.451 8.258h2.065v2.064H46.45V8.258zM25.807 35.097h2.064v-4.325c0-5.44-1.918-10.737-5.4-14.916l-1.586 1.321a21.275 21.275 0 014.922 13.595v4.325zM18.58 12.387h2.065v2.064H18.58v-2.064zM15.484 8.258h2.065v2.064h-2.065V8.258zM30.967 17.549h2.064v2.064h-2.064V17.55zM30.967 21.678h2.064v13.42h-2.064v-13.42zM59.871 27.871h2.065v2.065H59.87V27.87zM59.871 32h2.065v2.065H59.87V32zM61.935 29.936H64V32h-2.065v-2.064zM57.807 29.936h2.064V32h-2.064v-2.064zM56.773 0h2.065v2.065h-2.065V0zM56.773 4.129h2.065v2.064h-2.065V4.13zM58.838 2.064h2.064V4.13h-2.064V2.064zM54.709 2.064h2.064V4.13H54.71V2.064zM2.064 32H4.13v2.065H2.064V32zM2.064 36.129H4.13v2.064H2.064V36.13zM4.129 34.065h2.064v2.064H4.13v-2.064zM0 34.065h2.065v2.064H0v-2.064zM2.064 0H4.13v2.065H2.064V0zM2.064 4.129H4.13v2.064H2.064V4.13z" fill="#788CA1"/><path d="M4.129 2.064h2.064V4.13H4.13V2.064zM0 2.064h2.065V4.13H0V2.064z" fill="#788CA1"/></svg><svg viewBox="0 0 16 17" id="support" xmlns="http://www.w3.org/2000/svg"><path d="M8 1.833c-3.666 0-6.666 3-6.666 6.667s3 6.667 6.667 6.667c3.666 0 6.666-3 6.666-6.667s-3-6.667-6.666-6.667zm2.467 1.934c1 .533 1.8 1.333 2.334 2.333l-1.934.667c-.266-.467-.666-.8-1.066-1.067l.666-1.933zm-4.933 0L6.201 5.7c-.467.267-.8.667-1.067 1.067L3.201 6.1c.6-1 1.4-1.8 2.333-2.333zm0 9.466c-1-.533-1.8-1.333-2.333-2.333l1.933-.667c.267.467.667.8 1.067 1.067l-.667 1.933zM8.001 10.5c-1.134 0-2-.867-2-2s.866-2 2-2c1.133 0 2 .867 2 2s-.867 2-2 2zm2.466 2.733L9.801 11.3c.466-.267.8-.667 1.066-1.067l1.934.667c-.6 1-1.4 1.8-2.334 2.333z" fill="inherit"/></svg><svg fill="none" viewBox="0 0 40 40" id="support2" xmlns="http://www.w3.org/2000/svg"><path fill-rule="evenodd" clip-rule="evenodd" d="M33.633 19.303c-.029-8.741-7.145-15.913-15.886-15.97-8.853-.055-16.08 7.117-16.08 15.998 0 8.825 7.143 15.969 15.968 15.969 3.614 0 6.976-1.205 9.638-3.222.7.224 1.4.364 2.13.505.812.111 1.652.196 2.465.168.784-.028 1.596-.112 2.325-.337.42-.112.84-.252 1.26-.42.134-.05.258-.11.378-.169.081-.039.16-.077.239-.111.112-.056.224-.168.028-.252-.588-.252-1.149-.532-1.653-.897a8.282 8.282 0 01-1.373-1.204 9.76 9.76 0 01-1.457-2.326 15.664 15.664 0 002.018-7.732z" fill="#33A1FB"/><path fill-rule="evenodd" clip-rule="evenodd" d="M15.957 26.89c0 .897.755 1.654 1.653 1.654.98 0 1.68-.757 1.68-1.681-.026-.925-.755-1.653-1.68-1.625-.898 0-1.653.728-1.653 1.653zm4.391-7.182l.176-.157.456-.413c1.27-1.131 2.711-2.421 2.737-4.266 0-1.289-.644-2.55-1.624-3.39-3.252-2.858-9.974-1.485-10.423 3.278-.026.28.084.392.364.42.368.042.736.092 1.1.14.362.05.723.098 1.085.14.589.084.618.084.784-.476 1.15-3.782 6.78-1.737 4.541 1.317-.39.536-.908.923-1.422 1.308-.668.5-1.325.994-1.69 1.801-.53 1.093-.504 2.69-.475 3.895 0 .252.11.336.335.336h1.29c.364 0 .758-.028 1.148 0 .335.028.476-.084.45-.42 0-.617.026-1.233.084-1.85.049-.752.57-1.213 1.084-1.663z" fill="#fff"/></svg><svg fill="none" viewBox="0 0 16 17" id="trash" xmlns="http://www.w3.org/2000/svg"><path d="M13.333 4.5h-2.666v-.667c0-1.133-.867-2-2-2H7.333c-1.133 0-2 .867-2 2V4.5H2.667c-.4 0-.667.267-.667.667s.267.666.667.666h.666v7.334c0 1.133.867 2 2 2h5.334c1.133 0 2-.867 2-2V5.833h.666c.4 0 .667-.266.667-.666s-.267-.667-.667-.667zm-4 0H6.667v-.667c0-.4.266-.666.666-.666h1.334c.4 0 .666.266.666.666V4.5z" fill="#788CA1"/></svg><svg fill="none" viewBox="0 0 32 16" id="triangle" xmlns="http://www.w3.org/2000/svg"><path fill-rule="evenodd" clip-rule="evenodd" d="M16.037 0c.547 8.938 7.246 16 15.43 16H.533c8.184 0 14.883-7.062 15.43-16h.074zM0 15.99c.177.006.355.01.533.01H0v-.01zm32 0c-.177.006-.355.01-.533.01H32v-.01z" fill="#fff"/></svg><svg fill="none" viewBox="0 0 24 24" id="underline" xmlns="http://www.w3.org/2000/svg"><path d="M12 15.5a5 5 0 005-5v-5a1 1 0 00-2 0v5a3 3 0 01-6 0v-5a1 1 0 00-2 0v5a5 5 0 005 5zm5 2H7a1 1 0 000 2h10a1 1 0 000-2z" fill="#1E3147"/></svg><svg fill="none" viewBox="0 0 20 21" id="upload" xmlns="http://www.w3.org/2000/svg"><path d="M7.258 6.925l1.908-1.917V13a.833.833 0 101.667 0V5.008l1.908 1.917a.834.834 0 001.366-.271.833.833 0 00-.183-.912l-3.333-3.334a.833.833 0 00-.275-.175.833.833 0 00-.633 0 .833.833 0 00-.275.175L6.074 5.742a.837.837 0 001.184 1.183zM17.499 10.5a.833.833 0 00-.833.833v5a.833.833 0 01-.833.834H4.166a.834.834 0 01-.833-.834v-5a.833.833 0 10-1.667 0v5a2.5 2.5 0 002.5 2.5h11.667a2.5 2.5 0 002.5-2.5v-5a.833.833 0 00-.834-.833z" fill="#19DAC6"/></svg><svg viewBox="0 0 36 36" id="user" xmlns="http://www.w3.org/2000/svg"><rect width="36" height="36" rx="4" fill="#9FCCFA"/><path d="M20.472 18.473a4.001 4.001 0 10-4.946 0 6.666 6.666 0 00-4.147 5.454.671.671 0 001.333.146 5.333 5.333 0 0110.6 0 .666.666 0 00.667.594h.073a.667.667 0 00.587-.734 6.667 6.667 0 00-4.167-5.46v0zM18 18a2.667 2.667 0 110-5.333 2.667 2.667 0 010 5.333z" fill="#fff" stroke="#fff" opacity=".7"/></svg><svg fill="none" viewBox="0 0 24 24" id="user-plus" xmlns="http://www.w3.org/2000/svg"><path d="M21 10.5h-1v-1a1 1 0 00-2 0v1h-1a1 1 0 000 2h1v1a1 1 0 002 0v-1h1a1 1 0 000-2zm-7.7 1.72A4.92 4.92 0 0015 8.5a5 5 0 00-10 0 4.92 4.92 0 001.7 3.72A8 8 0 002 19.5a1 1 0 102 0 6 6 0 1112 0 1 1 0 002 0 8 8 0 00-4.7-7.28zM10 11.5a3 3 0 110-6 3 3 0 010 6z" fill="#1E3147"/></svg><svg viewBox="0 0 16 17" id="user-small" xmlns="http://www.w3.org/2000/svg"><path d="M12.667 1.833H3.334c-1.133 0-2 .867-2 2v9.334c0 1.133.867 2 2 2h9.333c1.134 0 2-.867 2-2V3.833c0-1.133-.866-2-2-2zM8.001 4.5c1 0 1.866.8 1.866 1.867 0 1.066-.8 1.866-1.866 1.866-1.067 0-1.867-.8-1.867-1.866 0-1.067.867-1.867 1.867-1.867zm3.066 7.933c-.066 0-.133.067-.266.067H5.134a.668.668 0 01-.667-.667c0-.066 0-.133.067-.266.733-1.934 2.867-2.867 4.8-2.134 1 .4 1.733 1.134 2.133 2.134.134.4-.066.733-.4.866z" fill="inherit"/></svg><svg fill="none" viewBox="0 0 40 40" id="vk" xmlns="http://www.w3.org/2000/svg"><path d="M20 40c11.046 0 20-8.954 20-20S31.046 0 20 0 0 8.954 0 20s8.954 20 20 20z" fill="#EBEFF2"/><path fill-rule="evenodd" clip-rule="evenodd" d="M19.274 26.95h1.256s.379-.042.572-.251c.179-.192.173-.552.173-.552s-.025-1.687.757-1.936c.77-.244 1.76 1.63 2.81 2.352.792.546 1.395.426 1.395.426l2.804-.04s1.467-.09.772-1.245c-.057-.095-.405-.855-2.085-2.417-1.759-1.635-1.523-1.37.595-4.198 1.29-1.722 1.806-2.774 1.645-3.224-.154-.43-1.103-.316-1.103-.316l-3.157.02s-.234-.032-.408.072c-.17.102-.279.34-.279.34s-.5 1.332-1.166 2.466c-1.406 2.391-1.968 2.517-2.198 2.369-.535-.346-.401-1.39-.401-2.132 0-2.318.35-3.284-.684-3.535-.343-.083-.596-.137-1.473-.146-1.127-.012-2.08.003-2.62.268-.36.176-.637.569-.468.592.209.027.681.127.932.469.323.44.312 1.431.312 1.431s.186 2.728-.434 3.067c-.426.233-1.01-.242-2.263-2.411-.643-1.112-1.128-2.34-1.128-2.34s-.093-.23-.26-.353c-.202-.148-.485-.196-.485-.196l-3 .02s-.451.012-.616.209c-.148.174-.012.535-.012.535s2.349 5.505 5.009 8.28c2.439 2.543 5.208 2.376 5.208 2.376z" fill="#99A3C5"/></svg><svg viewBox="0 0 16 17" id="wallet" xmlns="http://www.w3.org/2000/svg"><path d="M12.667 5.167h-.666V4.5c0-1.133-.867-2-2-2H3.334c-1.133 0-2 .867-2 2v8c0 1.133.867 2 2 2h9.333c1.134 0 2-.867 2-2V7.167c0-1.134-.866-2-2-2zm-2 0H3.334c-.4 0-.667-.267-.667-.667s.267-.667.667-.667h6.667c.4 0 .666.267.666.667v.667zm2.667 6h-.667c-.733 0-1.333-.6-1.333-1.334 0-.733.6-1.333 1.333-1.333h.667v2.667z" fill="inherit"/></svg></svg>