<svg width="16" height="17" viewBox="0 0 16 17" xmlns="http://www.w3.org/2000/svg">
<path d="M12.6673 3.16667H3.33398C2.20065 3.16667 1.33398 4.03334 1.33398 5.16667V7.16667C1.33398 7.56667 1.60065 7.83334 2.00065 7.83334H2.66732V13.1667C2.66732 14.3 3.53398 15.1667 4.66732 15.1667H11.334C12.4673 15.1667 13.334 14.3 13.334 13.1667V7.83334H14.0007C14.4007 7.83334 14.6673 7.56667 14.6673 7.16667V5.16667C14.6673 4.03334 13.8007 3.16667 12.6673 3.16667ZM9.33398 10.5H6.66732C6.26732 10.5 6.00065 10.2333 6.00065 9.83334C6.00065 9.43334 6.26732 9.16667 6.66732 9.16667H9.33398C9.73398 9.16667 10.0007 9.43334 10.0007 9.83334C10.0007 10.2333 9.73398 10.5 9.33398 10.5ZM13.334 6.50001H2.66732V5.16667C2.66732 4.76667 2.93398 4.50001 3.33398 4.50001H12.6673C13.0673 4.50001 13.334 4.76667 13.334 5.16667V6.50001Z" fill="inherit"/>
</svg>
