<svg width="32" height="32" viewBox="0 0 32 32" xmlns="http://www.w3.org/2000/svg">
<path d="M25.3327 5.33329H23.9993V3.99996C23.9993 3.19996 23.466 2.66663 22.666 2.66663C21.866 2.66663 21.3327 3.19996 21.3327 3.99996V5.33329H10.666V3.99996C10.666 3.19996 10.1327 2.66663 9.33268 2.66663C8.53268 2.66663 7.99935 3.19996 7.99935 3.99996V5.33329H6.66602C4.39935 5.33329 2.66602 7.06663 2.66602 9.33329V10.6666H29.3327V9.33329C29.3327 7.06663 27.5993 5.33329 25.3327 5.33329ZM2.66602 25.3333C2.66602 27.6 4.39935 29.3333 6.66602 29.3333H25.3327C27.5993 29.3333 29.3327 27.6 29.3327 25.3333V13.3333H2.66602V25.3333ZM22.666 16C23.466 16 23.9993 16.5333 23.9993 17.3333C23.9993 18.1333 23.466 18.6666 22.666 18.6666C21.866 18.6666 21.3327 18.1333 21.3327 17.3333C21.3327 16.5333 21.866 16 22.666 16ZM22.666 21.3333C23.466 21.3333 23.9993 21.8666 23.9993 22.6666C23.9993 23.4666 23.466 24 22.666 24C21.866 24 21.3327 23.4666 21.3327 22.6666C21.3327 21.8666 21.866 21.3333 22.666 21.3333ZM15.9993 16C16.7993 16 17.3327 16.5333 17.3327 17.3333C17.3327 18.1333 16.7993 18.6666 15.9993 18.6666C15.1993 18.6666 14.666 18.1333 14.666 17.3333C14.666 16.5333 15.1993 16 15.9993 16ZM15.9993 21.3333C16.7993 21.3333 17.3327 21.8666 17.3327 22.6666C17.3327 23.4666 16.7993 24 15.9993 24C15.1993 24 14.666 23.4666 14.666 22.6666C14.666 21.8666 15.1993 21.3333 15.9993 21.3333ZM9.33268 16C10.1327 16 10.666 16.5333 10.666 17.3333C10.666 18.1333 10.1327 18.6666 9.33268 18.6666C8.53268 18.6666 7.99935 18.1333 7.99935 17.3333C7.99935 16.5333 8.53268 16 9.33268 16ZM9.33268 21.3333C10.1327 21.3333 10.666 21.8666 10.666 22.6666C10.666 23.4666 10.1327 24 9.33268 24C8.53268 24 7.99935 23.4666 7.99935 22.6666C7.99935 21.8666 8.53268 21.3333 9.33268 21.3333Z" fill="inherit"/>
</svg>
