<svg width="16" height="17" viewBox="0 0 16 17" fill="none" xmlns="http://www.w3.org/2000/svg">
<g clip-path="url(#clip0)">
<path d="M8.00018 8.16668C9.46685 8.16668 10.6669 6.96668 10.6669 5.50001C10.6669 4.03334 9.46685 2.83334 8.00018 2.83334C6.53352 2.83334 5.33352 4.03334 5.33352 5.50001C5.33352 6.96668 6.53352 8.16668 8.00018 8.16668ZM15.3335 7.50001H12.0002C11.6002 7.50001 11.3335 7.76668 11.3335 8.16668C11.3335 8.56668 11.6002 8.83334 12.0002 8.83334H15.3335C15.7335 8.83334 16.0002 8.56668 16.0002 8.16668C16.0002 7.76668 15.7335 7.50001 15.3335 7.50001ZM8.00018 9.16668C5.53352 9.16668 3.40018 10.9667 3.06685 13.4333C3.00018 13.7667 3.26685 14.1667 3.66685 14.1667H3.73352H12.2669C12.6669 14.1667 12.9335 13.9 12.9335 13.5V13.4333C12.6002 10.9667 10.4669 9.16668 8.00018 9.16668Z" fill="#788CA1"/>
<path d="M15.6026 7.23319L14.1994 5.62865C13.911 5.35146 13.5339 5.35892 13.2567 5.6473C12.9795 5.93568 12.987 6.31273 13.2754 6.58993L14.6786 8.19447C14.967 8.47166 15.344 8.4642 15.6212 8.17582C15.8984 7.88744 15.8909 7.51039 15.6026 7.23319Z" fill="#788CA1"/>
<path d="M13.2744 9.89988L14.6776 8.29534C14.966 8.01815 15.343 8.02561 15.6202 8.31399C15.8974 8.60237 15.8899 8.97942 15.6016 9.25661L14.1984 10.8612C13.91 11.1383 13.5329 11.1309 13.2557 10.8425C12.9786 10.5541 12.986 10.1771 13.2744 9.89988Z" fill="#788CA1"/>
</g>
<defs>
<clipPath id="clip0">
<rect width="16" height="16" fill="white" transform="translate(0 0.5)"/>
</clipPath>
</defs>
</svg>
