<svg width="16" height="17" viewBox="0 0 16 17" xmlns="http://www.w3.org/2000/svg">
<path d="M13.134 5.76668C13.4007 5.50001 13.4007 5.10001 13.134 4.83334L10.334 2.03334C10.0673 1.76668 9.66732 1.76668 9.40065 2.03334L7.53398 3.90001L11.334 7.70001L13.134 5.76668ZM3.33398 12.5H6.13398C6.33398 12.5 6.46732 12.4333 6.60065 12.3L10.2673 8.63334L6.53398 4.83334L2.86732 8.50001C2.73398 8.63334 2.66732 8.83334 2.66732 9.03334V11.8333C2.66732 12.2333 2.93398 12.5 3.33398 12.5ZM14.0007 13.8333H2.00065C1.60065 13.8333 1.33398 14.1 1.33398 14.5C1.33398 14.9 1.60065 15.1667 2.00065 15.1667H14.0007C14.4007 15.1667 14.6673 14.9 14.6673 14.5C14.6673 14.1 14.4007 13.8333 14.0007 13.8333Z" fill="inherit"/>
</svg>
