<svg width="16" height="17" viewBox="0 0 16 17" xmlns="http://www.w3.org/2000/svg">
<path d="M11.3327 1.83334H4.66602C3.53268 1.83334 2.66602 2.7 2.66602 3.83334V7.83334H8.39935L6.86602 6.3C6.59935 6.03334 6.59935 5.63334 6.86602 5.36667C7.13268 5.1 7.53268 5.1 7.79935 5.36667L10.466 8.03334C10.7327 8.3 10.7327 8.7 10.466 8.96667L7.79935 11.6333C7.53268 11.9 7.13268 11.9 6.86602 11.6333C6.59935 11.3667 6.59935 10.9667 6.86602 10.7L8.39935 9.16667H2.66602V13.1667C2.66602 14.3 3.53268 15.1667 4.66602 15.1667H11.3327C12.466 15.1667 13.3327 14.3 13.3327 13.1667V3.83334C13.3327 2.7 12.466 1.83334 11.3327 1.83334Z" fill="inherit"/>
</svg>
