<svg width="32" height="32" viewBox="0 0 32 32" xmlns="http://www.w3.org/2000/svg">
<path d="M28.9328 13.3334L16.9327 2.6667C16.3994 2.2667 15.7327 2.2667 15.1994 2.6667L3.19942 13.3334C2.66608 13.8667 2.53275 14.6667 3.06608 15.2C3.33275 15.4667 3.73275 15.6 3.99942 15.6H5.33275V27.6C5.33275 28.4 5.86608 28.9334 6.66608 28.9334H25.3327C26.1327 28.9334 26.6661 28.4 26.6661 27.6V15.6H27.9994C28.7994 15.6 29.3327 15.0667 29.3327 14.2667C29.3327 13.8667 29.1994 13.6 28.9328 13.3334ZM19.9994 26.2667H11.9994V22.2667C11.9994 20 13.7327 18.2667 15.9994 18.2667C18.2661 18.2667 19.9994 20 19.9994 22.2667V26.2667Z" fill="inherit"/>
</svg>
