<svg width="16" height="17" viewBox="0 0 16 17" fill="none" xmlns="http://www.w3.org/2000/svg">
<path d="M7.98268 6.83416C6.73573 6.83416 5.78218 7.78771 5.78218 9.03466C5.78218 10.2816 6.73573 11.2352 7.98268 11.2352C9.22963 11.2352 10.1832 10.2816 10.1832 9.03466C10.1832 7.78771 9.22963 6.83416 7.98268 6.83416ZM15.2443 8.74126C13.7773 5.29381 10.99 3.16666 7.98268 3.16666C4.97533 3.16666 2.18803 5.29381 0.721028 8.74126C0.647678 8.96131 0.647678 9.10801 0.721028 9.32806C2.18803 12.7755 4.97533 14.9027 7.98268 14.9027C10.99 14.9027 13.7773 12.7755 15.2443 9.32806C15.3177 9.10801 15.3177 8.96131 15.2443 8.74126ZM7.98268 12.7022C5.92888 12.7022 4.31518 11.0885 4.31518 9.03466C4.31518 6.98086 5.92888 5.36716 7.98268 5.36716C10.0365 5.36716 11.6502 6.98086 11.6502 9.03466C11.6502 11.0885 10.0365 12.7022 7.98268 12.7022Z" fill="#788CA1"/>
</svg>
