<svg width="16" height="17" viewBox="0 0 16 17" xmlns="http://www.w3.org/2000/svg">
<path d="M11.9993 9.30003V7.16669C11.9993 5.23336 10.5993 3.56669 8.66602 3.23336V2.50003C8.66602 2.10003 8.39935 1.83336 7.99935 1.83336C7.59935 1.83336 7.33268 2.10003 7.33268 2.50003V3.23336C5.39935 3.56669 3.99935 5.23336 3.99935 7.16669V9.30003C3.19935 9.56669 2.66602 10.3 2.66602 11.1667V12.5C2.66602 12.9 2.93268 13.1667 3.33268 13.1667H5.39935C5.73268 14.5667 7.19935 15.4334 8.59935 15.1C9.53268 14.8334 10.266 14.1 10.5327 13.1667H12.666C13.066 13.1667 13.3327 12.9 13.3327 12.5V11.1667C13.3327 10.3 12.7993 9.56669 11.9993 9.30003ZM7.99935 13.8334C7.53268 13.8334 7.06602 13.5667 6.86602 13.1667H9.19935C8.93268 13.5667 8.46602 13.8334 7.99935 13.8334Z" fill="inherit"/>
</svg>
