<svg width="32" height="32" viewBox="0 0 32 32" xmlns="http://www.w3.org/2000/svg">
<path d="M24.0007 17.6V13.3333C24.0007 9.46663 21.2007 6.13329 17.334 5.46663V3.99996C17.334 3.19996 16.8007 2.66663 16.0007 2.66663C15.2007 2.66663 14.6673 3.19996 14.6673 3.99996V5.46663C10.8007 6.13329 8.00065 9.46663 8.00065 13.3333V17.6C6.40065 18.1333 5.33398 19.6 5.33398 21.3333V24C5.33398 24.8 5.86732 25.3333 6.66732 25.3333H10.8007C11.4673 28.1333 14.4007 29.8666 17.2007 29.2C19.0673 28.6666 20.534 27.2 21.0673 25.3333H25.334C26.134 25.3333 26.6673 24.8 26.6673 24V21.3333C26.6673 19.6 25.6007 18.1333 24.0007 17.6ZM16.0007 26.6666C15.0673 26.6666 14.134 26.1333 13.734 25.3333H18.4007C17.8673 26.1333 16.934 26.6666 16.0007 26.6666Z" fill="inherit"/>
</svg>
