<svg width="16" height="16" viewBox="0 0 16 16" fill="none" xmlns="http://www.w3.org/2000/svg">
<path d="M14.4742 13.5267L12.0009 11.0733C12.961 9.87627 13.4259 8.35686 13.3001 6.82753C13.1743 5.2982 12.4674 3.87519 11.3246 2.85109C10.1818 1.827 8.69012 1.27967 7.15619 1.32164C5.62227 1.36362 4.16273 1.99171 3.07767 3.07676C1.99262 4.16181 1.36453 5.62136 1.32256 7.15528C1.28059 8.6892 1.82792 10.1809 2.85201 11.3237C3.8761 12.4664 5.29911 13.1734 6.82845 13.2992C8.35778 13.425 9.87719 12.9601 11.0742 12L13.5276 14.4533C13.5896 14.5158 13.6633 14.5654 13.7445 14.5993C13.8258 14.6331 13.9129 14.6505 14.0009 14.6505C14.0889 14.6505 14.1761 14.6331 14.2573 14.5993C14.3385 14.5654 14.4123 14.5158 14.4742 14.4533C14.5944 14.329 14.6616 14.1629 14.6616 13.99C14.6616 13.8171 14.5944 13.651 14.4742 13.5267ZM7.33425 12C6.41127 12 5.50901 11.7263 4.74158 11.2135C3.97416 10.7007 3.37602 9.97191 3.02281 9.11919C2.6696 8.26646 2.57718 7.32815 2.75725 6.42291C2.93731 5.51766 3.38177 4.68614 4.03441 4.0335C4.68706 3.38085 5.51858 2.9364 6.42382 2.75633C7.32907 2.57627 8.26738 2.66868 9.1201 3.02189C9.97282 3.3751 10.7017 3.97324 11.2144 4.74067C11.7272 5.5081 12.0009 6.41035 12.0009 7.33333C12.0009 8.57101 11.5092 9.75799 10.6341 10.6332C9.75891 11.5083 8.57192 12 7.33425 12Z" fill="#788CA1"/>
</svg>
