<svg width="40" height="40" viewBox="0 0 40 40" fill="none" xmlns="http://www.w3.org/2000/svg">
<path fill-rule="evenodd" clip-rule="evenodd" d="M33.6325 19.3029C33.6045 10.5618 26.4884 3.38973 17.7474 3.3337C8.89433 3.27767 1.66618 10.4498 1.66618 19.3309C1.66618 28.1559 8.81028 35.3 17.6353 35.3C21.2494 35.3 24.6113 34.0954 27.2729 32.0782C27.9733 32.3023 28.6737 32.4424 29.4021 32.5825C30.2146 32.6945 31.055 32.7786 31.8675 32.7506C32.652 32.7226 33.4644 32.6385 34.1928 32.4144C34.6131 32.3023 35.0333 32.1622 35.4536 31.9941C35.5875 31.9439 35.7115 31.8837 35.8315 31.8254C35.9122 31.7861 35.991 31.7478 36.0699 31.714C36.182 31.658 36.2941 31.5459 36.0979 31.4618C35.5096 31.2097 34.9493 30.9295 34.445 30.5653C33.9127 30.2011 33.4644 29.7809 33.0722 29.3606C32.4558 28.6322 31.9796 27.8478 31.6154 27.0353C32.9041 24.766 33.6325 22.1045 33.6325 19.3029Z" fill="#33A1FB"/>
<path fill-rule="evenodd" clip-rule="evenodd" d="M15.9568 26.8907C15.9568 27.7872 16.712 28.5437 17.6105 28.5437C18.5903 28.5437 19.2902 27.7872 19.2902 26.8627C19.2641 25.9381 18.5349 25.2097 17.6105 25.2377C16.712 25.2377 15.9568 25.9662 15.9568 26.8907ZM20.3481 19.7077L20.5239 19.5505L20.9796 19.1375C22.2491 18.007 23.6912 16.7167 23.7172 14.8718C23.7172 13.5831 23.0727 12.3224 22.0929 11.4818C18.8409 8.62426 12.1189 9.99704 11.6697 14.7597C11.6437 15.0399 11.7543 15.152 12.0343 15.1799C12.4021 15.2223 12.77 15.2716 13.1346 15.3209C13.4959 15.3697 13.8572 15.4184 14.2185 15.4601C14.8077 15.5442 14.837 15.5442 15.003 14.9838C16.1521 11.2017 21.7836 13.2469 19.5441 16.3007C19.1534 16.8365 18.6359 17.2241 18.1215 17.6085C17.4542 18.1083 16.7967 18.6027 16.4321 19.4104C15.9015 20.503 15.9275 22.0999 15.9568 23.3046C15.9568 23.5568 16.0675 23.6408 16.2921 23.6408H17.5812C17.9458 23.6408 18.3396 23.6128 18.7303 23.6408C19.0655 23.6688 19.2055 23.5568 19.1795 23.2206C19.1795 22.6043 19.2055 21.9879 19.2641 21.3716C19.3129 20.6186 19.8338 20.1581 20.3481 19.7077Z" fill="white"/>
</svg>
