<svg width="16" height="17" viewBox="0 0 16 17" fill="none" xmlns="http://www.w3.org/2000/svg">
<path d="M13.3333 4.5H10.6667V3.83334C10.6667 2.7 9.8 1.83334 8.66667 1.83334H7.33333C6.2 1.83334 5.33333 2.7 5.33333 3.83334V4.5H2.66667C2.26667 4.5 2 4.76667 2 5.16667C2 5.56667 2.26667 5.83334 2.66667 5.83334H3.33333V13.1667C3.33333 14.3 4.2 15.1667 5.33333 15.1667H10.6667C11.8 15.1667 12.6667 14.3 12.6667 13.1667V5.83334H13.3333C13.7333 5.83334 14 5.56667 14 5.16667C14 4.76667 13.7333 4.5 13.3333 4.5ZM9.33333 4.5H6.66667V3.83334C6.66667 3.43334 6.93333 3.16667 7.33333 3.16667H8.66667C9.06667 3.16667 9.33333 3.43334 9.33333 3.83334V4.5Z" fill="#788CA1"/>
</svg>
