<svg width="16" height="17" viewBox="0 0 16 17" xmlns="http://www.w3.org/2000/svg">
<path d="M12.6673 1.83334H3.33398C2.20065 1.83334 1.33398 2.70001 1.33398 3.83334V13.1667C1.33398 14.3 2.20065 15.1667 3.33398 15.1667H12.6673C13.8007 15.1667 14.6673 14.3 14.6673 13.1667V3.83334C14.6673 2.70001 13.8007 1.83334 12.6673 1.83334ZM8.00065 4.50001C9.00065 4.50001 9.86732 5.30001 9.86732 6.36668C9.86732 7.43334 9.06732 8.23334 8.00065 8.23334C6.93398 8.23334 6.13398 7.43334 6.13398 6.36668C6.13398 5.30001 7.00065 4.50001 8.00065 4.50001ZM11.0673 12.4333C11.0007 12.4333 10.934 12.5 10.8007 12.5H5.13398C4.73398 12.5 4.46732 12.1667 4.46732 11.8333C4.46732 11.7667 4.46732 11.7 4.53398 11.5667C5.26732 9.63334 7.40065 8.70001 9.33398 9.43334C10.334 9.83334 11.0673 10.5667 11.4673 11.5667C11.6007 11.9667 11.4007 12.3 11.0673 12.4333Z" fill="inherit"/>
</svg>
