<svg width="40" height="40" viewBox="0 0 40 40" fill="none" xmlns="http://www.w3.org/2000/svg">
<path d="M20 40C31.0457 40 40 31.0457 40 20C40 8.95431 31.0457 0 20 0C8.95431 0 0 8.95431 0 20C0 31.0457 8.95431 40 20 40Z" fill="#EBEFF2"/>
<path fill-rule="evenodd" clip-rule="evenodd" d="M19.2745 26.9498H20.5297C20.5297 26.9498 20.9089 26.9081 21.1025 26.699C21.2806 26.5071 21.2749 26.1468 21.2749 26.1468C21.2749 26.1468 21.2504 24.4597 22.0321 24.2112C22.8027 23.9665 23.7923 25.8418 24.8411 26.5628C25.6342 27.1085 26.2369 26.9889 26.2369 26.9889L29.0414 26.9498C29.0414 26.9498 30.5084 26.8592 29.8128 25.7039C29.7558 25.6093 29.4077 24.8492 27.7277 23.2871C25.9692 21.6523 26.2047 21.9167 28.3229 19.0888C29.613 17.3666 30.1287 16.3152 29.9676 15.8648C29.8139 15.4359 28.8652 15.5493 28.8652 15.5493L25.7075 15.569C25.7075 15.569 25.4735 15.537 25.2998 15.641C25.1302 15.7429 25.021 15.9805 25.021 15.9805C25.021 15.9805 24.5213 17.3132 23.8547 18.4466C22.4487 20.8382 21.8865 20.9644 21.6567 20.8159C21.1221 20.4698 21.2556 19.4255 21.2556 18.6836C21.2556 16.366 21.6065 15.3997 20.5722 15.1495C20.229 15.0664 19.9764 15.0116 19.0986 15.0027C17.9719 14.991 17.0183 15.0062 16.4783 15.2712C16.1191 15.4473 15.842 15.84 16.0108 15.8626C16.2195 15.8905 16.6921 15.9902 16.9427 16.332C17.2663 16.7729 17.2549 17.7632 17.2549 17.7632C17.2549 17.7632 17.4408 20.4915 16.8207 20.8305C16.3951 21.0629 15.8112 20.5883 14.5577 18.4186C13.9154 17.3072 13.4304 16.0787 13.4304 16.0787C13.4304 16.0787 13.3369 15.8491 13.1701 15.7263C12.9677 15.5776 12.6849 15.5302 12.6849 15.5302L9.68435 15.5499C9.68435 15.5499 9.23391 15.5624 9.06855 15.7586C8.92145 15.9331 9.05687 16.294 9.05687 16.294C9.05687 16.294 11.406 21.7991 14.0659 24.5733C16.5048 27.1168 19.2745 26.9498 19.2745 26.9498Z" fill="#99A3C5"/>
</svg>
