<svg width="16" height="17" viewBox="0 0 16 17" xmlns="http://www.w3.org/2000/svg">
<path d="M12.6673 5.16667H12.0007V4.5C12.0007 3.36667 11.134 2.5 10.0007 2.5H3.33398C2.20065 2.5 1.33398 3.36667 1.33398 4.5V12.5C1.33398 13.6333 2.20065 14.5 3.33398 14.5H12.6673C13.8007 14.5 14.6673 13.6333 14.6673 12.5V7.16667C14.6673 6.03333 13.8007 5.16667 12.6673 5.16667ZM10.6673 5.16667H3.33398C2.93398 5.16667 2.66732 4.9 2.66732 4.5C2.66732 4.1 2.93398 3.83333 3.33398 3.83333H10.0007C10.4007 3.83333 10.6673 4.1 10.6673 4.5V5.16667ZM13.334 11.1667H12.6673C11.934 11.1667 11.334 10.5667 11.334 9.83333C11.334 9.1 11.934 8.5 12.6673 8.5H13.334V11.1667Z" fill="inherit"/>
</svg>
